<?xml version="1.0" encoding="UTF-8" standalone="no"?>
<svg
   id="_桔梗の素材セット"
   data-name="桔梗の素材セット"
   viewBox="0 0 544.32257 524.84587"
   version="1.1"
   sodipodi:docname="Fleur_Hero copie.svg"
   width="544.32257"
   height="524.84589"
   inkscape:version="1.4.2 (ebf0e940d0, 2025-05-08)"
   xmlns:inkscape="http://www.inkscape.org/namespaces/inkscape"
   xmlns:sodipodi="http://sodipodi.sourceforge.net/DTD/sodipodi-0.dtd"
   xmlns="http://www.w3.org/2000/svg"
   xmlns:svg="http://www.w3.org/2000/svg">
  <defs
     id="defs1057" />
  <sodipodi:namedview
     id="namedview1057"
     pagecolor="#ffffff"
     bordercolor="#000000"
     borderopacity="0.25"
     inkscape:showpageshadow="2"
     inkscape:pageopacity="0.0"
     inkscape:pagecheckerboard="0"
     inkscape:deskcolor="#d1d1d1"
     inkscape:zoom="0.27679718"
     inkscape:cx="-104.76985"
     inkscape:cy="153.54203"
     inkscape:window-width="1920"
     inkscape:window-height="1008"
     inkscape:window-x="0"
     inkscape:window-y="0"
     inkscape:window-maximized="1"
     inkscape:current-layer="_桔梗の素材セット" />
  <g
     id="g404"
     transform="rotate(53,2262.4655,560.57626)"
     style="opacity:0.27">
    <g
       id="g394">
      <path
         d="m 983.89,2057.43 c 8.37,14.91 13.36,31.05 17.26,47.58 -0.54,7.78 -6.89,13.18 -8.4,20.64 -0.64,3.18 -1.14,5.87 0.33,9.03 2.17,4.65 0.97,10.19 3.89,14.91 1.36,2.21 -0.73,3.96 -3.54,4.57 -5.5,1.18 -10.77,0.93 -15.81,-1.57 -3.02,-1.5 -5.2,-1.27 -7.77,1.28 -3.99,3.97 -8.96,2.06 -13.64,1.2 -1.97,-1.04 -4.78,0.39 -6.27,-2.08 -0.58,-1.42 -0.54,-2.79 0.36,-4.08 -1.42,1.45 -2.89,2.83 -5.03,3.16 -9.71,-4.79 -20.07,-4.33 -30.45,-3.81 -5.13,0.26 -4.41,4.66 -5.52,7.76 -11.32,-2.67 -21.38,-8.48 -32.07,-12.73 0.1,-0.18 0.17,-0.42 0.32,-0.54 7.6,-5.76 7.67,-6.79 -0.49,-12.53 -3.95,-2.78 -8.24,-4.97 -9.04,-10.44 -0.18,-1.21 -1.2,-2.4 -2.39,-2.77 -6.1,-1.88 -10.45,-6.91 -16.47,-8.93 -5.39,-1.81 -10.58,-4.02 -13.86,-9.12 -0.7,-1.09 -1.86,-1.66 -3.27,-1.25 -3.32,-8.89 -7.74,-17.4 -9.36,-26.87 -0.27,-1.58 -0.93,-3.1 -2.68,-2.85 -1.77,0.26 -2.03,1.77 -1.54,3.44 0.35,1.19 0.47,2.45 0.69,3.68 -3.89,-0.61 -7.6,-3.45 -6.68,-6.57 1.14,-3.86 3.23,-8.7 8.67,-9.48 2.2,0.52 2.88,2.36 3.62,4.15 0.59,1.73 0.91,3.54 1.35,5.31 0.13,0.9 -0.15,1.77 -0.16,2.66 0.77,2.74 1.18,5.78 4.88,6.16 -3.21,-1.04 -4.55,-3.43 -4.76,-6.65 2.93,-3.44 5.48,-0.22 8.18,0.45 1.33,0.55 2.28,1.77 4.19,2.32 0.14,-5.44 -7.16,-10.75 -1.19,-15.67 2.57,-2.12 6.12,-5.52 10.58,-2.9 0.37,0.42 0.67,0.89 0.89,1.41 0.49,2.04 0.83,4.19 3.5,4.58 3.55,0.74 6.74,2.12 9.07,5.05 0.73,5.59 2.79,10.52 7.08,14.39 0.75,0.68 1.14,2.03 2.08,2.27 8.28,2.1 10.6,9.25 13.64,15.81 0.92,1.98 2.59,3.23 4.3,4.44 1.57,1.13 3.32,2.21 5.24,1.64 5.12,-1.52 6.51,2.05 8.26,5.52 4.24,8.39 8.17,16.98 14.96,23.82 -5.49,-7.38 -9.14,-15.87 -14.28,-23.46 -2.02,-2.98 -3.79,-6.04 -4.34,-9.67 0.72,-4 1.06,-7.7 -2.57,-10.9 -2.85,-2.51 -2.24,-6.13 0.12,-8.47 3.01,-2.98 4.71,0.59 6.51,2.35 6.26,6.17 12.38,12.47 18,19.24 2.83,3.41 5.28,7.05 6.89,11.2 0.84,2.16 1.7,4.3 2.96,6.24 0.77,1.18 1.62,2.95 3.32,1.98 1.51,-0.87 0.97,-2.72 0.39,-4.02 -1.97,-4.41 -4.18,-8.73 -7.1,-12.58 -3.9,-5.15 -6.75,-11.11 -12.18,-15.09 -1.64,-1.2 -2.65,-3.24 -3.13,-5.36 0.61,-9.99 4.62,-14.68 13.86,-16.25 17.68,4.76 30.18,16.28 38.84,29.5 -2.03,-2.2 -3.91,-6.9 -7.32,-10.71 -6.72,-7.51 -14.85,-12.76 -23.54,-17.45 -2.18,-1.18 -4.42,-2.46 -5.67,-4.82 0.15,-5.79 -0.85,-11.64 0.89,-17.35 2.45,-1.3 4.35,0.1 6.28,1.29 7.21,3.36 12.61,9.38 19.3,12.86 -5.03,-5.01 -11.31,-8.98 -17.67,-12.84 -3.98,-2.84 -6.03,-7.29 -8.84,-11.05 -1,-1.34 -2.41,-2.05 -3.29,-3.37 -2.71,-4.37 -6.35,-8 -9.47,-12.03 -1.35,-1.74 -3.15,-3.29 -3.19,-5.78 0.77,-2.57 1.93,-4.99 2.22,-7.75 0.27,-2.52 1.55,-4.17 4.65,-3.56 4.36,0.86 4.56,-1.57 3.36,-4.76 -0.44,-1.17 -0.94,-2.85 -1.94,-3.1 -8,-1.95 -4.57,-8.12 -4.95,-12.88 -0.06,-1.45 -0.52,-2.93 0.27,-4.32 3.59,1.2 7.18,2.39 10.23,4.75 3.98,7.24 10.06,11.61 18.11,13.32 0.84,0.82 1.69,1.65 2.53,2.47 0.44,2 -0.78,4.01 -0.07,6.05 2.21,0.73 2.43,-1.8 3.86,-2.27 6.23,6.02 7.8,15.24 14.46,20.97 5.62,5.89 3.87,14.63 8.33,21.11 3.01,4.37 5.35,9.04 11.18,10.1 z"
         fill="#c3b3d8"
         id="path240" />
      <path
         d="m 867.51,1825.59 c 0.37,-0.44 0.74,-0.89 1.11,-1.33 2.32,-1.57 3.94,0.11 5.59,1.29 1.71,1.22 3.43,2.35 5.48,2.98 2.26,0.69 5.51,0.56 5.05,4.25 -0.41,3.27 -2.75,4.99 -5.79,5.84 -1.79,0.5 -3.83,0.23 -5.35,1.56 -1.61,1.39 -2.89,3.05 -3.25,5.21 -0.18,1.07 0.03,2.26 1.27,2.52 1.47,0.31 1.58,-0.99 1.71,-1.98 0.55,-4.24 2.85,-6.72 7.05,-7.72 1.34,-0.32 2.47,-1.5 3.43,-2.65 3.96,-4.77 6.76,-5.29 12.02,-1.9 2.52,1.63 5.31,4.14 7.45,0.6 1.74,-2.88 6.27,-5.45 2.46,-10.25 -2.64,-3.32 -0.16,-6.92 5.19,-6.7 5.46,0.22 10.16,-1.94 15.2,-3.01 4.94,-4.18 9.95,-3.19 14.78,0.07 2.47,1.67 4.39,2.33 7.24,0.37 7.03,-4.85 12.1,-4.08 17.8,2.2 1.12,1.23 2.34,2.35 3.42,3.63 1.67,2.62 1.97,5.88 4.22,8.27 1.59,1.69 1.08,3.86 0.32,5.9 -1.08,2.92 -2.45,5.78 -3.12,8.81 -0.8,3.62 -2.96,4.74 -6.39,5.63 -6.18,1.61 -12.16,3.86 -18.65,1.84 -2.33,-2.66 0.28,-4.11 1.62,-5.57 4.39,-4.78 9.24,-9.11 13.93,-14.47 -8.04,5.63 -13.17,13.36 -19.57,19.77 -7.87,7.89 -16.77,14.5 -24.86,22.07 -1.98,1.86 -4.29,3.38 -5.89,5.63 -2.43,3.01 -6.31,4 -9.1,6.14 -6.65,5.1 -15.14,7.17 -20.71,14.28 -3.68,4.7 -9.87,7.4 -14.71,11.31 -1.45,1.17 -3.29,1.82 -4.35,3.48 -1.65,2.61 -3.8,4.32 -6.5,6.12 -6.04,4.03 -12.84,6.28 -19,9.86 -3.32,1.93 -5.16,0.92 -5.81,-2.65 -0.57,-3.12 1.1,-5.6 2.42,-8.25 4.87,-9.77 11.01,-18.71 17.32,-27.58 5.83,-8.19 11.18,-16.73 18.6,-23.67 2.43,-2.28 4.94,-4.43 8.7,-6.43 -5.8,1.54 -9.86,-2.36 -14.64,-2.47 -0.09,2 1.26,2.52 2.17,3.29 3.28,2.77 3.24,5.39 0.27,8.5 -7.97,8.37 -14.71,17.71 -21.34,27.17 -7.15,10.2 -12.01,21.47 -16.59,32.91 -0.24,0.52 -0.52,1.02 -0.79,1.52 -1.39,1.6 -0.52,5.92 -4.83,4.06 -0.75,-0.45 -1.4,-1.03 -1.99,-1.66 -0.79,-0.86 -1.46,-1.81 -2.02,-2.84 -1.22,-2.66 -2.04,-5.43 -2.2,-8.37 0.44,-3.34 -1.58,-5.88 -2.83,-8.68 -0.96,-4.77 0,-10.19 -4.69,-13.69 1.03,-6.98 2.91,-14.03 -2.25,-20.39 -0.76,-0.93 -0.62,-2.44 -0.43,-3.69 0.64,-4.27 -0.8,-6.05 -5.39,-7.22 -10.41,-2.67 -16.62,-10.28 -20.03,-20.26 -1.16,-3.38 -3.06,-6.41 -4.64,-9.6 -2.68,-4.02 -4.85,-8.19 -4.18,-13.26 0.7,-1.26 1.55,-2.44 2.5,-3.51 2.97,-3.33 5.27,-3.09 6.62,1.04 0.96,2.93 2.38,5.17 4.95,6.74 1.2,1.1 0.65,2.76 1.21,4.3 3.53,-1.57 1.17,-6.74 5.03,-7.8 2.25,2.34 3.11,7.06 8.1,4.7 6.63,-1.05 6.85,-1.02 7.37,5.4 0.25,3.11 1.84,4.6 4.25,6.34 5.21,3.76 11.17,6.74 14.76,12.45 0.23,6.95 -2.71,13.47 -3.16,20.33 1.06,-7.61 2.97,-15.07 4.26,-22.63 0.1,-0.59 0.89,-0.79 1.51,-0.94 1.69,1.16 1.46,2.63 0.68,4.19 2.86,-7.49 11.69,-12.61 18.41,-10.68 -0.32,7.1 -5.23,12.13 -8.25,17.98 -2.5,4.85 -5.44,9.39 -5.08,15.18 0.21,3.34 -3.09,5.67 -3.78,10.68 4.75,-4.71 7.27,-8.82 9.5,-13.18 3.5,-6.86 5.95,-14.24 10.36,-20.64 5.69,-0.31 8.41,-5.74 13.19,-7.65 0.75,-0.3 1.25,-1.37 1.08,-2.13 -1.15,-5.16 0.52,-10.72 -2.2,-15.65 0.34,-0.47 0.68,-0.95 1.03,-1.42 1.79,-0.77 3.02,-2.08 3.73,-3.88 z"
         fill="#b9a7d0"
         id="path241" />
      <path
         d="m 945.08,1850.36 c 2.36,-0.34 4.59,-2.2 7.13,-0.39 2.24,1.59 4.19,1.08 5.99,-0.98 0.62,-0.72 1.72,-1.12 2.68,-1.42 2.48,-0.77 6.48,1.22 7.39,-1.62 1.57,-4.87 3.31,-9.65 5.14,-14.42 0.17,-0.45 -0.19,-1.59 -0.52,-1.68 -4.86,-1.36 -2.98,-6.08 -4.58,-9.03 6.53,-5.6 13.66,-10.43 21.28,-14.29 3.33,-1.68 7.4,-0.46 10.26,2.75 2.48,2.78 5.93,4.94 9.35,4.53 8.98,-1.1 12.05,4.99 15.29,11.18 1.26,2.39 1.96,5.11 4.34,6.78 1.04,0.73 2.25,1.59 3.44,1 1.69,-0.84 1.36,-2.65 0.71,-3.88 -3.5,-6.67 -4.98,-15.02 -14.08,-17.15 -1.86,-0.44 -3.58,-1.51 -3.82,-3.7 -0.27,-2.49 1.34,-3.82 3.38,-4.71 1.17,-0.51 2.09,-1.38 3.19,-1.99 9.46,-0.62 9.73,-0.43 11.26,8.23 1.33,7.52 2.57,8.66 10.23,9.1 2.75,0.16 5.42,0.52 7.97,1.58 8.37,5.17 8.98,11.01 2.02,19.57 0.24,1.57 1.78,1.57 2.76,2.23 6.06,4.01 6.15,6.67 0.33,11.22 -0.83,0.65 -1.64,1.31 -2.35,2.08 -3.44,3.75 -3.14,5.29 1.45,7.31 1.15,0.5 2.43,0.68 3.47,1.44 -5.19,10.25 -10.39,20.5 -15.58,30.75 -4.17,-1.82 -7.97,-3.8 -7.51,-9.46 0.19,-2.31 -2.09,-3.49 -3.49,-5 -3.21,-3.45 -4.2,-7.12 -1.52,-11.39 2.43,-3.88 3.69,-8.32 6.3,-12.23 3.81,-5.72 -0.68,-13.98 -7.52,-14.91 -2.88,-0.39 -3.81,1.04 -3.24,3.74 1.9,9 1.92,9.06 -5.55,12.27 -1.68,0.72 -2.13,1.79 -2.14,3.38 -0.02,5.39 -3.28,7.3 -8.1,7.53 -1.91,0.09 -3.68,0.79 -5.5,1.26 -3.16,0.8 -5.54,1.87 -4.28,5.97 0.75,2.45 -0.32,4.51 -2.58,5.86 -7.47,2.96 -15.65,2.07 -23.24,4.36 -4.47,0.22 -8.81,2.22 -13.38,1.05 -2.37,-2.12 -2.4,-4.98 0.03,-6.28 3.88,-2.08 3.41,-7.09 7.1,-9.1 0.52,-0.28 -0.96,-1.66 -1.03,-2.73 -0.05,-1.46 0.78,-2.38 1.95,-2.97 13.66,-6.79 26.7,-14.73 40.17,-21.88 1.03,-0.55 2.1,-1.29 3.09,-1.18 -10.17,2.5 -18.91,8.82 -28.51,13.24 -5.67,2.61 -11.6,4.7 -16.91,8.18 -2.53,1.66 -5.81,2.41 -9.08,1.5 -4.55,-4.63 -10.06,-8.18 -14.7,-12.72 -0.38,-1.44 0.19,-2.39 1.51,-2.96 z"
         fill="#cabedc"
         id="path242" />
      <path
         d="m 998.68,1880.57 c 0.33,-0.77 0.71,-1.52 0.99,-2.31 0.96,-2.74 -3.9,-5.45 -1.15,-7.29 3.31,-2.23 7.71,-3.73 11.69,-3.85 5.64,-0.17 8,-2.09 6.54,-7.5 -1.17,-4.33 1.88,-3.24 3.88,-3.43 7.07,-0.68 8.43,-3.23 4.14,-9.04 -1.89,-2.56 -1.11,-4.33 0.34,-6.11 1.58,-1.93 3.22,-2.35 5.88,-0.66 8,5.09 12.04,11.52 8.14,16.76 -2.79,3.75 -3.8,8.18 -6.51,11.63 -3.88,4.95 -1.98,8.69 1.99,11.72 2.52,1.92 3.98,3.59 2.77,6.72 -0.82,2.11 0.47,3.06 2.09,3.89 1.65,0.83 3.63,1.37 3.77,3.75 0.21,5.62 -3.24,9.89 -5.94,14.15 -4.44,7.01 -9.74,13.49 -16.05,19.02 -6.61,1.8 -13.73,1.4 -19.93,5.11 -5.03,3.01 -11.81,6.07 -13.8,10.19 -3.44,7.09 -9.03,9.22 -14.83,12.16 -12.25,2.72 -25.22,0.5 -37.14,4.75 -10.67,3.8 -21.56,4.39 -32.62,4.49 -0.63,0 -1.25,-0.05 -1.88,-0.08 -0.32,-2.62 3.12,-1.78 3.5,-3.68 -0.99,-2.74 -6.63,-1.85 -5.09,-6.01 1.26,-3.4 5.15,-1.93 7.85,-2.6 4.26,-1.07 6.96,1.16 7.95,5.09 0.6,2.4 1.64,3.09 3.89,2.77 2.42,-0.34 3.85,-1.47 3.81,-4.07 -0.03,-1.87 -0.65,-3.72 -0.09,-5.61 1.54,-5.2 4.33,-8.94 10.36,-8.95 26.82,-1.71 45.19,-17.6 61.65,-36.7 1.15,-1.34 1.95,-2.72 1.23,-4.54 -0.3,-2.33 0.05,-4.66 0.98,-6.7 2.06,-4.52 0.62,-7.42 -3.62,-9.39 0.04,-0.66 0.32,-1.34 0.92,-1.46 6.83,-1.39 13.73,-1.34 20.02,-1.52 -2.19,-1.16 -5.12,0.35 -8.01,0.36 -2.58,0.01 -5.4,1.16 -7.7,-1.04 z"
         fill="#c2b3d7"
         id="path243" />
      <path
         d="m 766.24,1699.52 c 1.28,0.34 2.12,1.17 2.65,2.35 3.08,4.54 7.75,7.5 11.49,11.41 3.08,3.22 4.3,6.03 2.94,10.57 -2.1,7.01 -3.27,14.21 -8.79,19.78 -2.35,2.37 -1.35,5.89 0.38,8.22 4.05,5.44 2.91,10.07 -1.21,14.65 -3.45,3.82 -6.14,3.2 -8.16,-1.39 -2.05,-5.57 -2.58,-11.05 -1.44,-17.12 1.45,-7.68 -3.39,-11.37 -11.08,-9.45 -4.15,1.03 -7.82,3 -10.88,6.06 -1.78,1.79 -3.18,3.99 -5.1,5.56 -9.26,7.62 -11.82,16.89 -9.26,28.66 2.07,9.51 -1.44,17.76 -10.07,23.3 -4.45,2.85 -6.79,2.5 -8.73,-2.3 -1.32,-3.26 -4.15,-5.26 -5.76,-8.2 -4.64,-7.32 -1.49,-15.53 -2.71,-23.25 -0.69,-5.29 0.64,-10.72 -2.05,-15.92 -1.33,-2.57 0.98,-4.77 3.45,-5.87 3.51,-1.57 4.51,-4.21 4.95,-7.93 0.81,-6.93 0.73,-14.4 7.71,-19.05 1.53,-1.02 2.89,-2.21 4.63,-3.04 4.86,-2.33 9.83,-4.55 12.89,-9.47 1.59,-2.56 4.06,-3.55 7.09,-2.56 1.6,0.52 3.5,1.47 4.88,0.59 6.81,-4.35 14.94,-3.13 22.17,-5.6 z"
         fill="#e5dfee"
         id="path244" />
      <path
         d="m 677.61,1898.09 c 4.54,1.79 9.87,1.31 13.8,4.84 -3.68,2.48 -3.72,5.19 0.28,7.62 3.22,1.96 6.93,2.97 10.5,4.17 1.58,0.53 3.29,0.71 4.62,1.86 4.34,3.79 4.62,0.22 5.17,-2.85 5.37,2.28 9.98,5.63 13.88,9.97 -4.94,5.26 -7.81,5.94 -13.71,3.57 -8.95,-3.59 -18.45,-5.35 -27.74,-7.75 -7.49,-1.94 -14.42,-5.8 -23.16,-6.16 15.37,3.31 29.36,8.61 43.92,11.89 2.46,0.55 6.11,0.3 6.41,3.9 0.32,3.94 -3.01,5.04 -6.08,6.07 -6.16,2.06 -9.7,6.4 -9.68,12.89 0,3.78 -0.85,4.28 -4.68,3.99 -23.71,-1.79 -46.13,-10.04 -69.48,-13.56 -2.17,-0.33 -4.46,-1.84 -6.37,0.62 -7.45,-0.08 -14.03,-2.72 -19.84,-7.18 -1.77,-1.36 -3.42,-3.44 -1.59,-5.89 1.6,-2.14 3.72,-1.14 5.66,-0.37 2.53,1 4.52,2.92 6.9,4.16 1.87,0.62 3.8,2.57 5.68,0.4 1.03,-1.2 1.16,-3.17 0.39,-5.98 -1.98,-7.27 -6.82,-8.96 -6.02,-11.87 0.6,-2.17 3.39,-1.67 7.79,-6.32 0,0 2.23,-2.66 2.16,-4.55 -0.02,-0.51 -0.17,-1.05 -0.52,-1.63 -0.34,-0.47 -0.44,-0.98 -0.34,-1.54 5.35,-4.37 11.1,-2 16.19,-0.07 4.11,1.56 7.64,3.17 11.93,1.18 1.79,-0.83 3.79,-0.83 5.44,0.34 2.89,2.07 4.63,0.05 5.41,-1.99 1.19,-3.09 -2.03,-2.27 -3.46,-2.86 -1.76,-0.72 -4.57,0.13 -4.3,-3.24 0.19,-0.22 0.39,-0.44 0.58,-0.66 6.29,1.22 12.58,2.43 18.87,3.65 1.28,2.34 -3.85,4.07 -0.67,6.52 2.61,2.01 8.57,0.39 12.08,-3.14 z"
         fill="#c3b5d8"
         id="path245" />
      <path
         d="m 582.36,2035.26 c -18.1,-12.37 -36.86,-23.81 -53.74,-37.91 2.71,-6.39 4.48,-13.25 10.68,-17.68 1.54,-1.1 0.73,-3.96 0.42,-6.05 -0.52,-3.6 -0.17,-7.1 1.49,-10.4 5.7,-0.52 6.36,3.69 5.43,7.25 -1.67,6.36 -0.32,10.55 5.32,14.25 4.08,2.67 5.22,7.93 7.44,12.19 3.23,6.2 4.38,6.67 10.75,3.85 2.77,-1.23 5.18,-1.03 7.84,0 3.14,1.22 6.38,1.95 10.24,0.02 -2.55,-2.52 -5.73,-2.74 -8.51,-3.6 -5.74,-1.79 -10.84,-4.46 -14.65,-9.23 -1.32,-1.66 -2.45,-3.43 -2.45,-5.65 0,-1.58 0.65,-2.84 2.09,-3.6 1.3,-0.68 2.54,-0.35 3.43,0.64 6.59,7.26 15.47,4.91 23.59,5.54 2.04,0.16 4.27,-0.57 6.2,0.26 6.35,2.74 12.22,0.87 18.21,-1.32 5.91,-2.16 10.71,1.03 10.31,7.15 -0.21,3.16 3.14,1 3.17,2.98 -0.49,2.83 -2.97,2.53 -4.87,3.04 -8.82,2.37 -17.57,5.11 -26.72,6.04 12.21,-1.23 23.84,-4.84 35.64,-7.99 13.6,-3.63 26.11,-10.1 39.62,-13.81 2.8,-0.77 5.6,-1.87 8.61,-1.05 1.01,0.42 1.94,1.04 1.92,2.22 -0.08,4.49 -6.47,11.18 -10.83,11.18 -5.2,0 -8.84,3.54 -13.13,5.56 -2.07,0.97 -1.11,3.34 -1.06,5.16 0.11,4.28 0.25,9.42 -4.27,10.89 -5.39,1.75 -11.21,5.75 -17.18,0.89 -5.71,-4.65 -11.76,-6.34 -18.41,-1.82 -0.51,0.35 -1.17,0.66 -1.76,0.64 -12.84,-0.54 -13.36,9.82 -15.74,18.16 -1.24,4.34 -2.88,6.3 -7.47,4.49 -3.71,-1.46 -7.91,-0.59 -11.6,-2.28 z"
         fill="#cabedc"
         id="path246" />
      <path
         d="m 615.34,1938.74 c -0.23,-1.21 -2.43,-1.46 -1.71,-2.98 0.53,-1.13 1.77,-0.63 2.78,-0.4 18.45,4.14 36.83,8.64 55.4,12.18 5.75,1.1 11.56,5.13 17.95,1.38 1.7,-1 2.09,3.18 5.04,2.13 -2.71,-4.13 -0.47,-7.48 1.65,-11.05 2.05,-3.44 3.7,-6.64 8.69,-6.41 2.22,0.1 5.51,-1.08 5.35,-4.22 -0.14,-2.81 -3.39,-1.96 -5.13,-2.36 -15.05,-3.44 -29.45,-9.28 -44.69,-12 -1.41,-0.25 -3.47,-0.21 -3.21,-2.1 0.3,-2.17 2.4,-1.77 4.1,-1.62 7.6,0.67 14.35,4.26 21.57,6.28 10.63,2.96 21.7,4.42 31.79,9.26 4.53,2.17 7.11,-2.74 10.94,-3.13 7.17,5.04 15.56,8.2 22.02,14.34 1.35,1.08 2.76,0.9 4.01,-0.06 6.81,-5.22 7.1,-5.22 12.53,0.85 -0.43,-2.16 -1.47,-4.01 -0.7,-6.07 0.36,-0.98 0.74,-2.75 0.12,-2.98 -5.6,-2.12 -3.48,-9.19 -7.88,-11.99 -0.9,-0.57 -1.99,-1.6 -1.7,-2.49 1.91,-5.82 -2.9,-7.41 -6.06,-10.12 -7.95,-6.82 -15.83,-13.74 -22.71,-21.67 -2.29,-2.64 -5.01,-5.34 -3.74,-9.45 0.42,-1.36 1.61,-1.99 2.97,-1.82 4.16,0.5 4.56,4.47 6.41,7.1 3.1,2.66 5.39,6.08 8.3,8.9 1.99,1.57 3.77,3.38 5.65,5.08 2.73,2.84 5.67,5.4 9.15,7.29 0.54,0.32 1.01,0.77 1.56,1.05 2.12,1.07 3.04,5.04 5.9,3.65 3.15,-1.52 0.01,-4.51 0.41,-6.62 0.84,-4.48 3.52,-8.19 6.95,-11.23 0.87,-0.77 3.21,-0.95 2.62,-2.13 -3.75,-7.52 6.14,-8.45 6.47,-13.89 0.65,-0.01 1.19,0.21 1.62,0.7 2.5,8.53 2.27,17.36 2.74,26.1 0.17,3.14 -1.84,5.43 -3.42,7.92 -1.98,3.11 -2.09,6.9 2.06,7.39 5.98,0.7 6.93,5.02 7.89,9.06 1.02,4.3 2.31,8.45 3.8,12.59 2.76,7.68 0.27,12.52 -7.44,15.53 -3.27,1.28 -5.6,4.36 -9.15,5.27 -12.35,2.78 -23.42,-1.99 -34.77,-5.62 -7.42,-2.38 -14.27,-6.56 -22.91,-5.42 -3.7,0.49 -7.68,-3.3 -12.22,-0.2 -2.29,1.57 -3.71,2.5 -2.35,5.24 2.51,5.07 -0.47,6.82 -4.71,7.81 -3.06,0.72 -6.18,1.13 -9.24,1.9 -1.99,0.26 -3.94,0.34 -5.66,-0.95 0.19,-2.86 -0.82,-4.41 -4,-4.75 -18.79,-1.97 -37.06,-6.78 -55.58,-10.25 -2.75,-0.52 -5.14,-1.77 -7.65,-2.83 -0.88,-0.52 -1.51,-1.25 -1.82,-2.23 z"
         fill="#937ab7"
         id="path247" />
      <path
         d="m 825.24,1855.6 c -6.1,-3.46 -10.45,-9.42 -17.43,-11.73 -2.12,-0.7 -3.03,-3.98 -2.44,-5.95 2.13,-7.13 -1.87,-5.52 -5.73,-4.42 -3.15,-3.86 -2.54,-7.32 1.25,-10.28 3.74,-2.93 6.32,-7.43 12.45,-8.25 -3.03,-3.9 -5.02,-7.49 -4.63,-11.84 0.07,-0.83 0,-1.67 0.04,-2.51 0.12,-2.18 0.78,-5.33 2.67,-5.13 6.3,0.67 7.17,-10.6 14.88,-6.17 -1.19,-4.24 -3.42,-7.01 -7.8,-8.13 -3.72,-0.95 -5.4,-3.83 -4.92,-7.68 0.49,-3.94 0.87,-7.98 3.55,-11.21 2.18,-2.63 3.69,-5.29 3.76,-8.98 0.06,-3.28 1.86,-5.62 5.79,-3.58 9.53,12.25 17.16,25.74 25.45,38.8 1.33,2.09 2.16,4.58 2.01,7.17 -0.96,16.99 -1.66,34.01 -6.2,50.57 -7.36,1.3 -13.71,4.3 -17.95,10.83 -1.32,-1.17 -0.62,-2.72 -0.86,-4.07 -2.01,-7.21 1.3,-14.01 1.66,-21.05 0.87,-16.91 3.68,-33.82 -0.72,-50.65 -0.37,-1.42 -0.9,-2.79 -0.96,-3.01 3.39,8.65 3.61,18.99 3.15,29.22 -0.64,14.19 -1.22,28.45 -4.69,42.35 -0.5,1.99 -0.6,4.19 -2.33,5.7 z"
         fill="#c3b5d8"
         id="path248" />
      <path
         d="m 582.36,2035.26 c 4.41,-0.8 8.78,-1.06 12.9,1.16 2.95,1.58 4.82,0.27 4.45,-2.56 -0.48,-3.71 2.63,-6.55 2.59,-9.04 -0.16,-10.89 7.5,-10.37 14.51,-11.63 4.64,-0.83 8.37,-5.96 13.89,-2.94 1.09,0.6 2.76,0.62 3.39,1.47 5.45,7.39 12.66,4.37 18.95,2.58 5,-1.42 5.03,-6.88 3.9,-11.09 -1.06,-3.94 -0.65,-5.47 3.57,-6.64 5.36,-1.49 9.56,-7.14 16.17,-4.19 0.68,0.3 1.66,-0.67 1.57,-1.56 -0.34,-3.43 1.66,-5.3 4.15,-7.08 1.03,-0.73 0.59,-1.85 -0.43,-2.57 4.59,-5.54 10.82,-7.44 17.67,-7.93 6.21,0.29 12.05,1.34 15.63,7.35 1.01,1.7 2.75,1.62 4.47,1.07 2.4,-0.78 4.1,-0.21 4.7,2.46 0,0.61 -0.16,1.19 -0.43,1.74 -3.17,3.29 -7.07,5.64 -10.75,8.28 -6.37,1.77 -11.4,6.09 -17.02,9.24 -16.26,9.11 -33.1,16.6 -50.55,20.89 7.21,-0.94 14.56,-4.07 22.23,-6.01 1.69,-0.43 3.83,-2 4.92,0.46 0.82,1.85 -0.55,3.59 -1.93,4.97 -0.91,0.91 -1.99,1.65 -3.27,1.73 -3.42,0.22 -5.22,1.84 -5.82,5.33 -0.92,5.36 -5.63,5.45 -9.65,6.38 -0.6,0.04 -1.2,0 -1.8,-0.08 -3.5,-1.04 -7.02,0 -10.53,-0.04 -4.03,-0.05 -4.38,3.87 -6.11,6.28 -3.83,4.84 -8.07,9.11 -14.57,10.11 -1.37,0.05 -2.7,-0.04 -3.59,-1.31 -2.11,-4.21 -7.32,-6.25 -7.96,-11.59 -0.15,-1.26 -1.73,-0.84 -2.62,-0.32 -4.52,2.68 -8.83,3.58 -12.93,-0.85 -0.55,-0.59 -1.44,0.44 -2.1,0.89 -2.99,-0.96 -5.58,-2.53 -7.63,-4.94 z"
         fill="#b9a9d1"
         id="path249" />
      <path
         d="m 826.66,1749.75 c -2.48,0.02 -5.61,0.69 -4.5,3.53 1.74,4.49 -0.69,6.66 -3.24,9.12 -3.69,3.56 -3.22,8.46 -4.01,12.86 -0.45,2.51 1.7,4.06 4.13,4.77 6.37,1.86 9.3,5.88 9.35,12.82 -1.69,-0.03 -2.42,-1.51 -3.54,-2.37 -2.77,-2.15 -4.53,-2.16 -4.72,1.97 -0.07,1.46 0.69,3.97 -2.11,3.43 -3.15,-0.61 -6.75,-0.78 -7.37,2.52 -0.81,4.3 -1.94,9.65 2.17,12.98 4.65,3.77 4.38,4.48 -1.48,5.82 -5.31,1.21 -8.28,6.56 -12.22,10.15 -2.05,1.87 2.74,3.87 0.51,6.18 -5.93,2.23 -7.81,-0.61 -7.62,-6.06 -0.96,-3.74 0.42,-7.05 2.09,-10.22 6,-11.35 9.77,-23.6 13.5,-35.74 2.57,-8.36 2.38,-17.4 -0.64,-24.65 0.6,1.68 0.88,4.67 0.29,7.74 -0.46,3.47 -2.39,4.77 -5.72,3.69 -5.69,-1.84 -10.46,-0.39 -15.31,3.03 -6.63,4.68 -11,2.73 -13.36,-5.22 2.66,-4.7 4.78,-8.8 0.1,-14.22 -2.99,-3.47 -2.01,-8.52 2.37,-12.02 2.6,-2.08 3.06,-5.65 4.52,-8.52 5.72,-11.27 -0.62,-18.19 -8.24,-24.83 -1.44,-1.25 -4.03,-1.76 -2.73,-4.61 7.11,6.31 16.35,8.85 24.42,13.48 10.43,5.99 17.7,14.9 25.55,23.36 3.03,3.27 6.79,6.24 7.79,11.03 z"
         fill="#d5cbe4"
         id="path250" />
      <path
         d="m 767.37,2183.43 c -3.78,3.18 -8.13,5.46 -12.44,7.8 -4.49,-2.11 -9.5,-1.54 -13.22,0.47 -4.57,2.47 -9.72,3.7 -13.95,6.91 -5.99,4.53 -13.14,3.5 -19.98,3.14 -2.36,-0.12 -4.05,-2.05 -5.03,-4.32 1.76,-5.76 5.15,-8.46 10.56,-8.41 10.2,0.09 12.71,-2.98 10.34,-12.83 -0.51,-2.13 -0.54,-4.12 0.46,-6.08 10.94,-11.16 17.15,-25.12 23.2,-39.18 1.35,-3.13 3,-6.02 6.27,-7.58 5.69,-0.92 10.6,-3.64 15.38,-6.66 2.29,-1.45 4.53,-3.04 7.19,-3.71 5.55,-1.41 9.01,2.1 7.41,7.6 -0.99,3.41 -1.98,6.79 -1.93,10.37 -0.14,2.37 -1.19,4.65 -0.7,7.09 2.17,3.59 2,6.12 -1.96,8.9 -4.22,2.96 -7.34,7.38 -6.6,13.17 0.24,1.89 0.02,3.41 -1.7,4.3 -4.97,2.58 -6.5,8.02 -10.91,12.26 4.42,0.78 6.48,3.34 7.61,6.77 z"
         fill="#dfd8ea"
         id="path251" />
      <path
         d="m 615.94,1899.65 c 1,0.5 3.99,-1.3 2.89,0.53 -2.4,3.97 -2.36,9.79 -7.54,11.8 -3.41,1.33 -3.04,3.06 -0.95,5.02 2.27,2.14 2.61,5.18 4.03,7.7 1.64,2.9 0.4,6.28 -1.28,8.11 -1.69,1.85 -4.54,-0.19 -6.62,-1.55 -2.45,-3.47 -5.04,-6.92 -1.55,-11.49 -5.25,3.51 -10.81,3.96 -16.63,2.36 -2.07,-0.57 -4.19,-0.77 -6.11,0.3 -3.94,2.2 -7.83,2.14 -12.05,0.68 -3.93,-1.35 -6.77,0.74 -9.06,3.88 -2.38,3.28 -1.19,5.76 1.41,8.18 1.54,1.43 2.57,3.33 3.27,5.3 1.98,5.52 4.73,10.24 10.96,11.85 1.02,0.26 1.68,1.2 1.51,2.43 -2.79,3.3 -5.78,1.79 -8.91,0.54 -4.15,-1.66 -8.38,-3.81 -12.77,-0.54 -2.22,2.21 -4.44,4.41 -6.54,6.74 -2.37,2.63 -5.74,2.55 -6.38,-0.72 -1.98,-10.03 -10.77,-10.41 -17.64,-13.6 -0.91,-0.22 -1.73,-0.59 -2.33,-1.33 15.44,-6.91 24.45,-20.08 33.31,-33.59 8.7,-13.26 22.08,-18.89 37.25,-21.03 0.86,0.62 1.12,2.55 1.63,2.36 7.15,-2.67 12.1,1.51 17.21,5.27 0.88,0.64 1.83,0.89 2.89,0.8 z"
         fill="#ddd5e9"
         id="path252" />
      <path
         d="m 668.11,2094.79 c 10.15,-19.78 22.29,-37.65 39.92,-52.1 10.09,-8.27 20.63,-15.16 31.85,-21.45 2.12,-1.19 5.33,-2.15 4.64,-5.84 0.25,-0.21 0.5,-0.41 0.74,-0.62 1,-0.04 1.91,0.26 2.78,0.72 5.23,4.47 5.05,9.95 -0.6,13.49 -2.62,1.64 -5.23,3.33 -8.02,4.68 -11.39,6.73 -22.08,14.23 -30.3,24.9 -13.19,17.12 -24.26,35.57 -34.79,54.37 -2.85,5.09 -6.2,9.87 -9.13,14.92 2.49,-3.43 5.07,-6.79 6.96,-10.62 1.02,-2.06 1.92,-4.27 4.62,-4.72 5.25,-0.16 6.34,3.54 7.05,7.59 -0.11,3.8 -3.2,5.62 -5.25,7.95 2.86,-1.55 4.6,-5.39 8.77,-4.98 2.71,3.45 4.3,8.13 9.86,8.34 1.24,0.05 2.33,1.65 2.02,2.8 -1.45,5.3 0.39,10.47 0.31,15.7 -2.45,2.74 -4.45,6.12 -8.75,6.32 -2.92,-3.72 -6.17,-7.18 -7,-12.21 -0.5,-3.03 -3.15,-4.2 -6.02,-4.55 -3.51,-0.43 -6.51,0.29 -8.7,3.48 -1.35,1.97 -1.95,5.51 -5.81,3.78 -4.03,-9.68 -4.63,-19.86 -4.49,-30.15 6.33,-3.36 9.59,-8.26 8.12,-15.7 -0.42,-2.11 1.18,-3.98 1.23,-6.09 z"
         fill="#c9bbdb"
         id="path253" />
      <path
         d="m 767.37,2183.43 c -1.32,-0.16 -3.64,0.58 -3.28,-1.62 0.54,-3.2 -0.43,-3.22 -2.87,-2.27 -1.26,0.49 -2.53,0.04 -3.3,-1.16 -1.09,-1.71 0.18,-2.97 1.3,-3.71 4.65,-3.1 4.81,-10.53 11.39,-11.77 0.36,-0.07 0.79,-0.96 0.8,-1.48 0.23,-9.02 0.79,-10.1 8.74,-16.85 2.92,-2.48 0.17,-3.91 -1.12,-5.59 11.76,-16.99 16.72,-36.13 17.72,-56.49 0.09,-1.89 -0.18,-3.78 1.35,-5.27 4.96,-4.49 8.83,-0.72 12.81,1.76 4.02,2.5 3.55,6.07 2.35,9.94 -3.25,10.52 -2.87,20.85 2.18,30.8 1.22,2.4 1.21,4.79 0.46,7.27 -3.02,8.36 -7.61,15.62 -14.06,21.87 -3.31,3.21 -4.41,7.83 -4.69,12.47 -9.93,7.36 -19.86,14.72 -29.79,22.08 z"
         fill="#c7b9d9"
         id="path254" />
      <path
         d="m 702.29,1767.73 c 1.13,7.93 -1.22,16.12 1.87,23.9 -0.47,0.39 -1.01,0.66 -1.6,0.81 -2.75,1.46 -1.39,4.04 -1.58,6.11 -1.25,13.06 3.76,25.03 6.71,37.35 1.93,8.09 3.78,16.23 6.85,24.01 0.79,4.37 2.98,8.21 4.64,12.26 1.14,2.78 1.74,5.46 0.49,8.45 -2.91,6.96 -9.92,9.79 -14.71,14.86 -1.2,1.27 -3.18,-0.27 -4.81,-0.31 -5.84,-5.2 -11.28,-10.77 -15.68,-17.28 3.93,-0.78 7.04,-4.33 11.72,-2.95 1.85,0.54 4.06,-2.08 3.67,-3.46 -1.05,-3.72 -0.12,-7.69 -2.16,-11.3 -3.05,-5.4 -7.65,-10.57 -3.59,-17.67 1.38,-2.42 -0.68,-4.13 -2.9,-5.38 -4.34,-2.43 -5.4,-5.71 -3.13,-10.47 2.73,-5.74 2.05,-12.18 2.55,-18.34 0.13,-1.67 -0.92,-3.14 -2.03,-4.47 -1.92,-2.3 -3.21,-4.88 -3.04,-7.99 3.56,-4.35 7.73,-8.36 5.04,-15.01 -0.59,-1.46 1.45,-3.31 2.29,-4.98 3.47,-6.9 0.48,-11.76 -7.04,-11.55 2.91,-7.21 6.57,-14.03 10.74,-20.58 2.75,-0.08 2.63,2.21 1.97,3.4 -4.38,7.97 0.06,14.18 3.74,20.59 z"
         fill="#c1b2d6"
         id="path255" />
      <path
         d="m 933.35,1942.69 c -1.41,2.83 -6.28,-0.81 -7.3,4.64 -0.56,2.97 -1.83,5.8 -1.34,9.07 0.53,3.56 -0.96,5.59 -4.84,5.45 -2.07,-0.07 -4.15,0.07 -6.27,0.12 1.22,-6.85 -0.84,-8.75 -7.7,-7.62 -1.39,0.23 -2.87,-0.19 -4.3,-0.11 -0.48,0.03 -1.13,0.58 -1.35,1.05 -0.45,0.96 0.17,1.54 1.09,1.76 0.6,0.15 1.27,0.1 1.84,0.31 2.24,0.81 4.79,2.35 4.62,4.49 -0.22,2.79 -3.47,1 -5.21,1.79 -0.56,0.25 -1.05,0.65 -1.57,0.97 -3.74,0.8 -7.45,0.78 -11.05,-0.67 -2.13,-0.86 -4.04,-2.01 -6.06,0.56 -0.64,0.81 -2.85,0.94 -4.13,0.59 -8.84,-2.4 -16.56,1.32 -25.59,4.61 8.67,2.58 16.78,-0.59 24.38,1.77 1.11,1.25 2.26,2.48 2.58,4.2 0.51,2.72 2.2,3.45 4.87,3.75 6.25,0.72 9.34,6.12 6.66,12.02 -1.44,3.17 -2.56,6.6 -4.86,9.37 -5.37,1.25 -9.85,-2.48 -14.96,-2.67 -2.52,-0.91 -5.2,-0.45 -7.77,-0.88 -4.61,-1.99 -2.66,-3.54 0.33,-5.04 2.77,-0.58 6.01,0.96 8.32,-1.63 1.31,-1.47 2.17,-3.58 1.12,-5.21 -1.35,-2.09 -2.92,-0.17 -4.19,0.69 -1.39,0.94 -2.66,2.07 -4.51,1.87 -1.51,-0.26 -2.84,-1.08 -3.41,-2.4 -2.83,-6.56 -8.32,-7.91 -14.67,-7.77 -1.57,-0.77 -2.75,-1.87 -3.03,-3.69 3.82,-9.09 8.94,-16.12 19.24,-19.74 6.9,-2.42 13.79,-5.85 20.53,-9.17 10.13,-4.99 21.01,-5.89 31.96,-4.36 5.51,0.77 11.38,-1.65 16.55,1.85 z"
         fill="#a893c6"
         id="path256" />
      <path
         d="m 926.59,1815.47 c -4.97,1.15 -9.25,5 -15.06,3.13 -1.8,-0.58 -4.93,0.28 -5.78,2.65 -0.86,2.39 2.16,1.89 3.2,2.94 0.55,0.56 1.14,1.32 1.25,2.06 0.32,2.25 -7.27,11.84 -9.52,12.28 -1.71,0.33 -2.59,-0.76 -3.72,-1.77 -5.85,-5.26 -7.44,-5.11 -12.66,0.06 -1.26,1.25 -3.29,1.7 -4.94,2.57 -3,1.58 -5.08,3.87 -4.3,7.46 0.49,2.26 0.58,3.93 -2.23,3.76 -2.38,-0.14 -4.5,-0.93 -4.75,-3.96 -0.33,-4.13 4.86,-9.44 9.17,-8.95 3.78,0.43 5.74,-2.03 6.42,-4.72 0.86,-3.41 -2.52,-2.45 -4.31,-2.66 -4.48,-0.51 -6.32,-5.55 -10.74,-6.07 2.63,-4.44 4.76,-9.32 9.95,-11.55 4.51,3.84 9.35,1.99 14.11,0.75 1.96,-0.51 2.55,-2.01 1.75,-3.89 -0.82,-1.94 -1.2,-3.94 -1,-6.04 9.12,-6.4 18.55,-12.29 28.67,-17.01 2.79,2.12 6.36,1.96 9.43,3.25 1.91,0.8 3.29,0.1 4.24,-1.54 2.59,-4.45 6.8,-5.32 11.4,-5.07 4.18,0.23 8.3,-1.2 12.49,-0.37 0.04,6.92 -1.6,8.65 -7.18,6.76 -3.4,-1.15 -4.46,1.13 -5.05,3.08 -2.67,8.86 -9.32,11.66 -17.61,12.43 -2.8,0.26 -6.16,-0.17 -7.38,3.46 -1.29,3.83 2.44,4.82 4.15,6.94 z"
         fill="#cbbedb"
         id="path257" />
      <path
         d="m 700.14,1895.16 c 7.58,-1.26 11.26,-8.03 16.62,-12.3 2.84,-2.26 2.91,-6.71 0.78,-10.78 -1.87,-3.56 -4.29,-7.15 -4.12,-11.53 0.37,-1.67 -0.7,-3.6 0.9,-5.05 3.57,0.36 2.71,3.59 3.59,5.65 1.89,4.45 4.39,7.99 9.93,7.67 5.77,2.02 6.37,5.1 2.31,11.7 -1.11,-1.98 -2.13,-4.02 -3.35,-5.93 -0.72,-1.13 -1.98,-1.73 -3.27,-1.04 -1.35,0.72 -1.39,2.31 -0.79,3.32 1.38,2.32 2.9,4.63 4.75,6.58 8.55,9 17.6,17.47 27.43,25.1 1.39,1.08 5.83,2.38 0.76,4.8 -0.28,0.13 -0.5,1.03 -0.5,1.03 5.11,2.41 4.09,9.11 8.11,11.89 2.24,1.54 3.97,2.47 2.58,5.15 -1.43,2.76 -1.73,5.02 1.02,7.12 1.17,0.9 1.26,2.3 -0.05,3.16 -1.23,0.8 -3.01,0.04 -3.35,-0.82 -3.19,-7.85 -7.46,-6 -12.36,-1.77 -0.86,0.74 -2.45,0.23 -3.23,-1.06 3.05,0.15 5.35,-0.82 2.01,-3.52 -6.57,-5.32 -12.71,-11.12 -19.44,-16.31 -10.05,-7.74 -21.1,-14.21 -30.3,-23.06 z"
         fill="#a792c5"
         id="path258" />
      <path
         d="m 1051.51,1821.43 c -3.93,-0.39 -7.77,-1.31 -11.81,-1.12 -5.12,0.24 -8.15,-3.42 -7.9,-7.81 0.48,-8.43 -4.18,-10.3 -10.96,-10.54 -0.24,-0.12 -0.49,-0.24 -0.74,-0.35 -1.9,-1.76 -3.39,-4.27 -6.62,-3.63 -1.26,-0.02 -2.51,-0.1 -3.76,0.19 -7.33,1.72 -10.51,0.2 -13.8,-6.65 -0.9,-1.88 -1.42,-3.91 -2.97,-5.47 -4.07,-4.11 -6.33,-4.27 -10.25,-0.03 -2.84,3.06 -5.27,3.81 -8.22,0.18 -3.1,-3.81 -8.28,-3.79 -12.16,-6.22 -1.04,-0.84 -1.49,-1.96 -1.49,-3.27 6.55,-2.54 13.13,-3.23 20.14,-1.68 10.93,2.41 22.37,1.96 33.03,6.15 11.6,4.56 21.6,11.82 31.83,18.61 6.81,4.52 13.59,9.01 21.18,12.05 3.66,1.46 6.2,3.85 8.47,7.03 2.43,3.41 2.65,5.95 -1.17,8.2 -1.9,-0.98 -3.03,-2.97 -4.87,-3.93 -4.06,-2.11 -7.45,-8.5 -13.05,-2.06 -0.99,1.14 -3.21,0.5 -4.89,0.37 z"
         fill="#bdacd3"
         id="path259" />
      <path
         d="m 725.45,2170.45 c -0.89,1.94 -1.09,3.68 -0.17,5.89 3.7,8.92 -1.02,15.81 -10.42,14.41 -6.34,-0.94 -8.75,2.59 -11.4,6.76 -3.85,-0.06 -3.87,-3.37 -4.95,-5.8 0.02,-4.31 3.22,-6.59 5.98,-9.08 3.05,-2.77 6.78,-4.78 8.93,-7.71 -4.16,4.18 -9.43,7.87 -14.8,11.44 -1.72,0.92 -3.54,1.12 -5.29,0.29 -3.39,-1.6 -6.32,-0.59 -9.14,1.35 -2.61,-5.44 -5.23,-10.87 -7.84,-16.31 3.29,-4.11 6.83,-7.76 11.84,-10.04 3.99,-1.81 7.09,-5.18 10.24,-8.27 2.42,-2.38 4.91,-4.6 8.43,-5.22 6.29,-0.07 12.45,1.55 18.76,1.36 2.39,-0.07 3.86,1.38 4.3,3.76 -0.21,6.05 -5.01,10.91 -4.47,17.16 z"
         fill="#d1c5e1"
         id="path260" />
      <path
         d="m 744.52,2015.4 c -2.4,-3.25 -5.14,-3.6 -7.09,0.06 -1.3,2.46 -3.7,2.32 -5.41,3.62 -1.92,1.68 -4.22,2.92 -6.69,2.85 -4.64,-0.12 -7.18,2.02 -8.24,6.32 -6.84,4.58 -15.65,4.58 -22.27,9.65 0.93,-5.92 3.67,-7.66 12.28,-7.85 -0.46,0.44 -1.31,0.64 -1.68,0.23 -4.04,-4.43 -10.99,-4.57 -14.44,-9.86 -1.55,-2.39 -3.91,-1.9 -6.23,-1.62 -2.37,0.29 -4.93,0.29 -5.67,-2.54 -0.61,-2.34 1.15,-4.16 3,-5.02 5.08,-2.36 9.42,-6.24 15.09,-7.37 7.39,0.82 18,-3.06 23.11,-8.7 1.41,-1.56 3.02,-2.01 4.9,-2.33 3.57,-0.61 3.87,-2.59 2.07,-5.34 1,-3.32 3.59,-4.11 6.64,-4.17 2.5,0.99 4.31,2.83 4.83,5.38 0.68,3.36 0.86,6.39 5.68,6.47 2.17,0.04 2.49,3 2.57,5.16 0.1,2.58 -1.05,4.88 -1.63,7.31 -0.13,2.35 1.28,4.84 -0.61,7.03 -0.06,0.25 -0.12,0.5 -0.19,0.74 z"
         fill="#a893c4"
         id="path261" />
      <path
         d="m 814.03,2126.94 c 0.96,-2.14 1.68,-4.16 0.19,-6.51 -6.34,-9.93 -5.57,-20.59 -2.85,-31.34 0.69,-2.74 3.42,-6.05 0.04,-7.84 -3.71,-1.96 -7,-7.61 -12.49,-3.21 -1.67,-1.67 -3.21,-3.46 -4.68,-5.31 -0.9,-2.04 -0.87,-4.16 -0.52,-6.3 1.41,-3.75 0.37,-7.41 -0.47,-11.07 -0.19,-0.81 -0.67,-1.07 -0.42,-0.28 0.06,0.19 -0.52,0.59 -0.79,0.94 -2.69,0.26 -5.25,2.21 -8.06,0.54 -0.4,-7.47 3.17,-13.21 7.99,-18.4 3.88,-0.93 9.97,3.07 10.24,6.73 0.26,3.57 5.49,8.7 9.32,8.07 5.96,-0.98 8.06,2.45 9.8,6.9 -4.7,0.27 -4.86,5.25 -7.05,7.78 -2.61,3.01 3.74,4.45 4.86,7.48 6.08,15.09 9.3,30.49 4.94,46.68 -2.2,-0.96 -1.7,1.05 -2.02,1.95 -1.49,4.15 -3.94,5.68 -8.04,3.2 z"
         fill="#b7a6d0"
         id="path262" />
      <path
         d="m 702.29,1767.73 c -5.65,-5.69 -10.82,-11.48 -5.37,-20.17 0.73,-1.17 1.46,-2.71 -0.34,-3.83 11.42,-18.88 21.85,-38.39 35.73,-55.69 2.14,-2.67 3.69,-5.57 4.46,-8.87 1.25,-5.31 2.63,-5.9 6.69,-1.99 6.01,5.79 12.66,10.93 17.65,17.77 1.32,1.81 3.39,3.06 5.12,4.56 -0.82,3.53 -4.34,4.19 -6.36,3.53 -4.71,-1.52 -7.89,0.66 -11.64,2.54 -2.81,1.41 -6,3.3 -9.37,0.48 -2.12,-1.78 -4.27,-0.6 -5.27,1.38 -1.82,3.58 -5.09,5.14 -7.87,7.52 -3.63,3.1 -8.81,3.16 -11.85,7.74 -1.47,2.22 -3.55,3.79 -3.87,6.86 -0.45,4.3 -2.13,8.36 -1.6,12.9 0.31,2.7 -2.35,4.14 -4.79,5.08 -1.94,0.74 -5.2,1.96 -3.9,3.89 3.54,5.23 1.89,10.87 2.58,16.3 z"
         fill="#d5cbe3"
         id="path263" />
      <path
         d="m 955.88,2153.86 c 5.65,0.27 11.82,2.76 15.73,-4.07 0.87,-1.53 2.43,-1.08 3.81,-0.07 5.64,4.16 12.16,3.92 18.52,2.93 3.53,-0.55 2.53,-3.74 0.7,-5.01 -2.49,-1.72 -2.09,-3.68 -2.01,-5.94 0.1,-2.84 0.38,-5.62 -1.81,-8.13 -2.97,-3.4 0.4,-6.56 0.96,-9.81 1.24,-7.17 7.13,-12.06 9.37,-18.76 0.13,1.63 0.25,3.26 0.38,4.89 1.39,1.92 -0.09,4.41 1.25,6.33 2.87,14.1 4.31,28.48 8.43,42.32 0.86,2.91 -0.38,4.41 -2.99,5.09 -6.93,1.78 -14.21,3.46 -21.08,1.78 -17.68,-4.32 -35.74,-3.03 -53.57,-4.74 -1.45,-0.14 -2.96,0.05 -4.12,-1.11 5.22,-2.96 11,-3.8 16.82,-3.74 3.46,0.03 6.58,-0.49 9.63,-1.97 z"
         fill="#b6a4ce"
         id="path264" />
      <path
         d="m 686.55,1795.78 c 0.88,2.96 1.84,5.62 4.26,8.06 3.7,3.72 1.6,9.27 1.12,13.42 -0.44,3.85 -0.36,8.51 -3.34,12.39 -2.21,2.88 0.94,5.52 3.76,6.22 5.34,1.33 4.31,4.56 3.28,8.2 -0.55,1.92 -3.87,4.04 -1.93,5.34 3.94,2.64 1.27,8.59 5.99,10.31 1.03,0.37 2.48,1.53 1.97,1.88 -5.41,3.73 5.37,9.12 -1.31,12.32 -1.95,0.94 -2.45,8.42 -6.61,1.77 -0.46,-0.74 -1.94,0.35 -2.56,1.17 -1.94,2.52 -4.25,2.17 -6.71,1.03 -1.99,-1.26 -2.25,-3.28 -2.63,-5.4 -2.08,-11.49 -4.17,-22.98 -6.53,-34.41 -1.09,-5.3 0,-10.44 0.62,-15.56 0.79,-6.67 -0.8,-13.6 2.06,-20.04 1.92,3.11 3.2,7.17 8.69,5.29 -0.21,-2.1 -2.05,-3.83 -2.22,-6.02 -0.17,-2.25 -1.63,-5.04 2.09,-5.95 z"
         fill="#af9cca"
         id="path265" />
      <path
         d="m 523.66,1945.85 c 0.81,-0.03 1.62,-0.06 2.43,-0.09 5.71,5.28 11.55,10.46 15.57,17.26 0.2,4.7 -0.9,9.32 0.13,14.14 0.81,3.76 -1.84,6.93 -5.4,8.21 -3.81,1.37 -4.99,3.31 -3.46,7.05 1.8,4.39 -0.85,5.05 -4.31,4.92 -4.49,-2.98 -9.3,-5.51 -12.94,-9.62 -2.29,-1.62 -3.99,-3.61 -4.51,-6.48 -0.26,-1.44 -1.03,-2.7 -1.94,-3.88 -1.6,-2.05 -4.9,-3.11 -4.43,-6.37 0.47,-3.23 3.59,-2.93 5.86,-3.73 1.4,-0.49 1.67,-1.87 1.69,-3.09 0.12,-7.14 3.01,-12.79 8.84,-16.93 0.83,-0.46 1.66,-0.92 2.49,-1.39 z"
         fill="#baa9d1"
         id="path266" />
      <path
         d="m 619.18,2053.38 c 4.77,-3.26 9.82,-6.17 13.7,-10.58 3.74,-7.9 11.07,-6.36 17.68,-6.71 h -0.02 c 5.24,0.31 9.95,-0.89 14.24,-4.14 5.41,-4.1 16.43,-0.05 18.04,6.55 1.18,4.85 -3.22,6.75 -5.51,9.76 -18.61,10.42 -37.69,15.42 -58.13,5.13 z"
         fill="#7451a3"
         id="path267" />
      <path
         d="m 677.31,2048.25 c 0.75,-1.47 1.19,-3.28 2.32,-4.35 3.28,-3.1 2.45,-5.46 -0.44,-8.32 -4.24,-4.2 -10.41,-5.2 -14.76,-1.5 -4.33,3.67 -9.01,3.14 -13.89,1.99 5.15,-1.29 11.17,-1.43 10.39,-9.51 -0.14,-1.46 1.75,-3.47 4.14,-2.78 4.55,1.32 5.74,-1.67 7.19,-5.29 -10.46,3.16 -20.16,7.27 -31.26,7.79 0.79,-3.23 2.88,-3.47 5.11,-3.99 17.17,-4.04 32.89,-11.54 48.4,-19.8 6.27,-3.34 11.35,-9.48 19.32,-9.38 0.09,0.28 0.19,0.56 0.28,0.84 -3.36,6.73 -9.9,8.71 -16.28,10.95 -6.09,1.21 -10.46,5.79 -15.92,8.26 -1.06,0.48 -2.8,1.67 -1.75,3.44 0.87,1.47 2.62,1.5 3.95,0.89 4.81,-2.22 8.06,-1.37 9.28,4.19 0.04,0.19 0.23,0.53 0.3,0.52 6.99,-1.26 9.01,7.36 16.44,7.74 -6.33,1.88 -12.89,1.3 -15.33,7.96 -5.22,4.49 -11.78,6.72 -17.5,10.35 z"
         fill="#8669ae"
         id="path268" />
      <path
         d="m 832.03,2097.71 c 0.73,-2.59 2.13,-4.25 3.87,-0.99 3.47,6.5 9.85,8.04 15.88,10.62 5.43,2.32 9.68,7.01 15.67,8.43 0.34,0.08 0.79,0.53 0.85,0.88 1.81,9.73 11.52,12.25 17.03,18.61 1.63,1.88 1.8,3.7 -0.18,4.62 -2.59,1.2 -4.7,3.66 -7.91,3.4 -11.05,-1.94 -20.36,-6.39 -27.54,-15.67 -5.93,-7.67 -14.88,-13.11 -16.47,-23.78 -0.31,-2.05 -0.79,-4.08 -1.19,-6.12 z"
         fill="#a38bc1"
         id="path269" />
      <path
         d="m 888.04,2000.31 c -0.65,-2.91 0.75,-5.17 2.24,-7.47 1.37,-2.12 3.95,-4.49 -0.14,-6.49 -2.89,-1.41 4.91,-3.54 -0.49,-4.98 -2.57,-0.68 -4.85,0.1 -7.23,-0.09 -1.64,-0.13 -2.2,-1.61 -2.48,-3.16 -0.39,-2.23 -0.9,-4.43 -1.36,-6.65 11.68,-0.04 22.32,4.22 33.06,8.05 -2.26,2.9 -2.96,5.78 0.2,8.65 2.41,-0.07 1.75,-4.37 4.78,-3.57 0.02,3.11 0.69,6.3 -1.87,9.67 5.04,-0.34 7.17,2.53 8.85,6.25 1.03,2.27 1.69,4.44 0.19,6.48 -1.48,2.01 -3.56,1.7 -5.63,0.58 -3.29,-1.78 -3.19,1.38 -3.01,2.7 0.42,3.08 -0.71,5.23 -2.79,7.16 -3.61,-0.21 -5.74,-2.9 -7.81,-5.2 -2.52,-2.79 -5.26,-5.14 -8.48,-6.99 -2.36,-2.17 -5.62,-2.87 -8.03,-4.95 z"
         fill="#b9a9d1"
         id="path270" />
      <path
         d="m 1051.51,1821.43 c 2.17,-2.39 8.09,-0.2 7.42,-6.07 0.59,-0.05 1.45,-0.37 1.72,-0.1 4.24,4.31 11.55,5.06 13.67,11.8 -3.09,6.09 -6.23,12.17 -7.67,18.9 -1.41,6.59 -3.76,12.71 -7.84,18.12 -4.2,2.04 -8.12,-0.64 -9.38,-3.21 -1.92,-3.93 3.26,-6.01 5.32,-8.87 1.12,-1.56 5.1,-0.99 4.61,-4.04 -0.49,-3.05 -3.16,-4.64 -6.17,-5.45 -1.35,-0.36 -3.05,-0.64 -3.4,-2.33 -0.44,-2.13 1.52,-1.87 2.71,-2.55 5.03,-2.87 4.47,-11.25 -0.98,-16.21 z"
         fill="#a28bc1"
         id="path271" />
      <path
         d="m 663.25,2146.73 c 1.62,-0.07 2.98,-0.74 3.36,-2.33 1.54,-6.38 6.28,-7.32 11.65,-6.68 5,0.59 7.82,3.29 7.71,8.8 -0.08,3.92 5.9,4.99 5.08,9.54 -4.04,5.99 -9.12,10.71 -16.07,13.16 -3.99,-7.46 -9.06,-14.35 -11.73,-22.49 z"
         fill="#d6cde5"
         id="path272" />
      <path
         d="m 686.55,1795.78 c -2.59,4.09 -0.33,7.41 1.81,10.66 0.61,0.92 2.41,1.25 1.5,2.84 -0.82,1.45 -2.19,0.42 -3.34,0.52 -5.41,0.46 -9.72,-0.2 -8.55,-7.34 -0.36,-10.98 1.67,-21.48 6.12,-31.54 0.91,-2.06 1.17,-4.39 1.73,-6.6 2.38,-1.77 5.61,-4.29 7.5,-0.96 1.99,3.5 4.8,8.19 1.73,12.25 -3.33,4.4 -5.03,7.96 -0.66,12.62 1.55,1.65 -0.15,3.25 -1.99,3.51 -2.74,0.38 -4.75,1.5 -5.89,4.05 z"
         fill="#8d70b4"
         id="path273" />
      <path
         d="m 699.36,2191.13 c 1.39,2.11 1.95,4.76 4.1,6.38 6.22,4.65 19.28,3.29 25.46,-1.3 7.19,-5.35 15.77,-8.02 24.87,-8.2 2.25,-0.04 1.76,1.77 1.15,3.22 -8.48,4.82 -18.38,7.2 -25.81,13.68 -6.39,5.57 -13.5,9.16 -21.49,11.43 -0.73,-3.5 0.64,-7.17 -2.39,-10.57 -2.57,-2.89 -5,-4.8 -8.83,-4.81 -0.57,-0.29 -0.99,-0.72 -1.28,-1.29 -0.4,-3.74 0.12,-7.04 4.23,-8.54 z"
         fill="#c6b8d9"
         id="path274" />
      <path
         d="m 972.67,1955.46 c 1.72,-2.49 4.33,-3.73 6.89,-5.11 2.59,-1.39 6.25,-2.11 4.51,-6.6 -0.2,-0.52 0.35,-1.81 0.89,-2.09 10.64,-5.51 19.5,-15.05 32.73,-14.74 1.19,0.03 2.36,0.7 3.55,1.07 -8.44,12.3 -20.25,20.25 -33.97,25.31 -4.51,1.67 -9.71,1.48 -14.6,2.14 z"
         fill="#d4c9e3"
         id="path275" />
      <path
         d="m 955.88,2153.86 c -0.38,2.92 -2.79,4.13 -4.93,3.76 -7.41,-1.29 -14.29,2.1 -21.51,1.95 -6.86,-0.38 -13.59,-1.45 -20.14,-3.57 -1.42,-8.49 0.64,-10.62 9.05,-9.21 2.71,0.46 5.35,0.52 7.98,-0.3 3.24,-1 6.09,-3.68 9.36,1.3 1.15,1.75 7.37,0.01 9.99,3.75 2.15,-1.52 3.61,-0.18 5.06,1.22 1.49,1.39 3.87,-1.39 5.13,1.09 z"
         fill="#a48cc2"
         id="path276" />
      <path
         d="m 814.03,2126.94 c 4.21,0.71 6.32,-1.19 7.13,-5.27 0.16,-0.81 0.68,-2.9 2.55,-2.2 0.36,0.14 0.26,1.52 0.38,2.32 -1.9,13.93 -9.77,24.52 -19.28,34.11 -2.17,2.19 -5.08,3.64 -7.65,5.44 -0.72,-0.7 -2.11,-1.95 -2.05,-2.02 3.27,-4 0.81,-11.48 7.9,-13.13 0.59,-0.14 1.63,-0.46 1.63,-0.71 0.07,-7.75 9.59,-10.7 9.39,-18.54 z"
         fill="#a088c0"
         id="path277" />
      <path
         d="m 674.99,2169.22 c 5.36,-4.38 10.71,-8.77 16.07,-13.15 2.49,-2.1 4.98,-4.2 7.48,-6.31 8.47,-11.38 19.94,-19.53 30.68,-28.46 0.8,-0.67 1.75,-1.16 2.74,-1.54 1.2,-0.46 2.59,-0.92 3.51,0.19 0.96,1.16 0.11,2.43 -0.65,3.41 -2.58,3.33 -5.47,6.41 -8.59,9.2 -6.54,5.86 -12.94,11.93 -20.2,16.94 -5.61,2.86 -8.84,8.72 -14.29,11.65 -5.54,2.98 -10.03,7.39 -15.4,10.55 -0.45,-0.83 -0.9,-1.65 -1.35,-2.48 z"
         fill="#9b86b7"
         id="path278" />
      <path
         d="m 521.17,1947.24 c -4.97,6.02 -7.46,12.82 -7.43,20.75 0.01,2.94 -2.67,1.53 -4.38,1.13 -1.33,-0.31 -2.46,0.03 -3.29,1.17 -0.57,0.78 -0.55,1.99 0.09,2.24 6.98,2.72 6.14,10.27 9.51,15.19 -6.53,-4.27 -13.5,-7.93 -14.52,-17.16 -0.32,-2.9 -0.04,-4.7 1.99,-6.49 6.16,-5.45 9.68,-13.72 18.03,-16.83 z"
         fill="#cdc1de"
         id="path279" />
      <path
         d="m 983.89,2057.43 c -0.27,1.74 -0.76,2.78 -2.83,1.57 -7.95,-4.68 -11.58,-12.64 -13.59,-20.74 -0.98,-3.97 -2.59,-7.9 -3.1,-12.04 12.29,6.79 16.16,18.84 19.51,31.21 z"
         fill="#a28bc1"
         id="path280" />
      <path
         d="m 960.84,1776.71 c 1.08,0.54 1.43,1.49 1.46,2.62 0.07,1.84 -0.57,3.22 -2.44,3.82 -3.76,1.58 -7.74,1.82 -11.69,1.54 -5.42,-0.38 -9.96,0.51 -12.22,6.2 -0.79,1.97 -1.75,1.85 -3.68,0.87 -2.54,-1.29 -5.54,-1.76 -8.39,-2.33 -1.86,-0.37 -2.59,-1.06 -1.79,-2.9 7.64,-4.47 16.34,-5.09 24.75,-6.53 4.76,-0.82 9.35,-2.08 13.99,-3.28 z"
         fill="#a690c5"
         id="path281" />
      <path
         d="m 684.18,2188.01 c 0.97,-5.43 5.05,-4.44 8.3,-3.41 2.03,0.65 3.68,1.75 5.78,0.62 1.53,2.94 -1.09,4.43 -2.28,6.4 -1.75,2.89 -3.58,5.74 -0.02,8.62 l -0.05,-0.06 c 2.08,3.04 3.87,6.25 5.79,9.38 1.23,2.01 2.84,4.22 0.94,6.77 -14.23,-4.18 -14.27,-17.61 -18.47,-28.33 z"
         fill="#b6a5cf"
         id="path282" />
      <path
         d="m 862.75,1830.89 c 2.63,0 6.32,-1.02 3.24,3.88 -1.34,2.12 -0.19,4.36 0.14,6.62 0.59,4.09 3.3,9.47 -4.49,10.12 -0.9,0.08 -1.87,1.55 -2.48,2.58 -2.13,3.58 -4.94,4.16 -8.47,2.23 3,-8.96 8.07,-16.95 12.07,-25.43 z"
         fill="#8c6fb4"
         id="path283" />
      <path
         d="m 711.98,1913.74 c 1.94,2.12 2.63,4.05 -0.43,5.92 -2.38,1.45 -3.13,0.75 -5.23,-1.21 -2.73,-2.55 -7.25,-3.23 -11.06,-4.57 -7.02,-2.46 -7.76,-3.3 -9.27,-11.65 1.87,0.24 3.65,0.47 5.43,0.7 3.44,1.61 6.88,3.21 10.32,4.82 3.43,1.96 7.28,3.21 10.23,5.98 v 0 z"
         fill="#a690c4"
         id="path284" />
      <path
         d="m 589.99,2040.19 c -0.04,-1.25 -1.94,-2.79 0.38,-3.65 1.18,-0.44 2.61,-0.31 3.19,1.15 2.1,5.31 5.66,3.77 9.21,1.99 3.4,-1.7 7.68,-6.79 6.99,2.86 -0.15,2.1 3.97,4.48 6.07,6.77 0.85,0.93 2.89,2.11 -0.24,2.76 -8.87,-3.23 -17.77,-6.42 -25.61,-11.87 z"
         fill="#886bb0"
         id="path285" />
      <path
         d="m 893.43,1803.53 c 0.16,0.13 0.46,0.27 0.46,0.4 0.08,3.53 5.89,6.91 2.14,9.83 -4.65,3.63 -11.12,3.23 -16.97,2.52 -2.34,-0.29 -0.7,-2.3 -0.5,-3.57 4.29,-4.13 9.89,-6.14 14.86,-9.18 z"
         fill="#b5a2ce"
         id="path286" />
      <path
         d="m 702.65,2216.33 c 0.09,-3.51 -2.01,-6.53 -4.03,-8.54 -2.44,-2.43 -2.64,-4.79 -2.7,-7.61 2.83,0.18 6.17,-2.61 8.33,1.48 2.43,4.6 8.32,8.38 3.39,14.68 -1.66,0.99 -3.32,1.17 -4.98,0 z"
         fill="#987eb8"
         id="path287" />
      <path
         d="m 668.11,2094.79 c 0.12,5.43 1.11,11.03 0.07,16.23 -0.78,3.88 -5.52,4.9 -9.42,5.56 0.64,-8.33 4.82,-15.13 9.35,-21.79 z"
         fill="#a893c6"
         id="path288" />
      <path
         d="m 677.61,1898.09 c -1.72,5.34 -10.39,7.88 -14.45,3.99 -4.83,-4.62 2.9,-4.53 3.03,-7.37 4.17,-0.09 7.9,1.28 11.41,3.38 z"
         fill="#a38dc3"
         id="path289" />
      <path
         d="m 943.59,1999 c -2.3,2.52 -5.31,0.63 -6.71,-0.26 -4.43,-2.84 -8.32,-6.55 -12.25,-10.11 -0.99,-0.9 -1.79,-2.64 0.84,-2.95 6.21,4.21 12.88,7.78 18.11,13.32 z"
         fill="#a28bc2"
         id="path290" />
      <path
         d="m 615.94,1899.65 c -0.49,2.58 -1.79,2.5 -3.43,1 -4.79,-4.39 -9.63,-7.96 -16.9,-5.65 -2.05,0.65 -1.01,-2.42 -1.4,-3.78 2.91,-0.52 5.82,-1.03 8.74,-1.55 1.36,-0.93 2.9,-0.49 4.37,-0.6 2.13,4.03 5.94,6.7 8.48,10.4 l 0.14,0.17 z"
         fill="#c3b5d8"
         id="path291" />
      <path
         d="m 916.62,1984.61 c -2.53,1.63 -1.72,4.93 -3.36,7.06 -7.27,-6.51 -7.67,-9.79 -1.62,-12.14 1.2,0.46 2.41,0.93 3.61,1.39 0.46,1.23 0.92,2.46 1.37,3.69 z"
         fill="#9175b7"
         id="path292" />
      <path
         d="m 626.94,1889.22 c 6.79,0.62 13.59,1.23 20.38,1.85 0,0 -0.31,0.39 -0.31,0.39 -1.39,1.7 -3.19,2.83 -5.36,2.68 -5.77,-0.4 -11.61,0.24 -17.32,-0.88 -2.25,-0.44 -5.16,-0.59 -4.82,-4.2 2.49,-0.38 4.99,-0.87 7.45,0.17 z"
         fill="#c3b5d8"
         id="path293" />
      <path
         d="m 717.09,2028.24 c -1.66,-6.34 0.96,-8.64 7.16,-7.64 2.76,0.44 5.19,-0.97 7.78,-1.53 -3.95,4.73 -9.96,6.12 -14.94,9.17 z"
         fill="#d2c7e1"
         id="path294" />
      <path
         d="m 949.91,2005.25 c 0.12,2.82 -0.57,5.58 -3.96,4.91 -3.99,-0.78 -1.84,-3.81 -1.26,-6.01 0.25,-0.95 0.94,-1.79 1.43,-2.68 1.27,1.26 2.53,2.52 3.79,3.78 z"
         fill="#a28bc2"
         id="path295" />
      <path
         d="m 626.94,1889.22 c -2.51,0.04 -5.02,0.09 -7.52,0.13 -3.67,2.75 -7.44,2.8 -11.29,0.41 -1.72,-0.02 -3.45,-0.05 -5.17,-0.07 7.96,-1.93 15.95,-2.54 23.99,-0.47 z"
         fill="#ddd5e9"
         id="path296" />
      <path
         d="m 711.97,1913.73 c -3.77,-1.38 -7.43,-2.96 -10.23,-5.99 4.19,0.66 8.01,1.96 10.23,5.99 z"
         fill="#c3b5d8"
         id="path297" />
      <path
         d="m 867.51,1825.59 c 0.48,2.95 -0.86,4.14 -3.73,3.88 0.91,-1.62 2.08,-2.97 3.73,-3.88 z"
         fill="#cbbedb"
         id="path298" />
      <path
         d="m 1002.77,2116.23 c -1.95,-1.81 -1.01,-4.19 -1.25,-6.33 1.88,1.82 1.12,4.17 1.25,6.33 z"
         fill="#c3b3d8"
         id="path299" />
      <path
         d="m 929.45,2048.62 c -0.15,5.86 0.33,11.74 -0.81,17.56 -1.29,0.75 -2.4,0.07 -3.51,-0.47 -13.67,-6.63 -27.35,-13.2 -42.03,-17.37 -0.83,-0.23 -1.44,-0.81 -1.91,-1.52 -0.47,-1.46 -0.07,-2.87 0.38,-4.22 1.41,-4.25 0.17,-7.28 -4.04,-8.87 -3.67,-1.39 -6.46,-4.39 -10.29,-5.43 -1.15,-0.16 -2.28,-0.41 -3.38,-0.78 -1.78,-0.6 -2.95,-1.83 -3.67,-3.52 -0.19,-4.37 -2.93,-4.94 -6.47,-4.34 -0.52,-0.27 -0.92,-0.66 -1.18,-1.18 3.38,-3.68 -1.85,-5.44 -1.89,-8.36 0.02,-0.58 0.13,-1.14 0.29,-1.7 1.92,-3.44 -0.66,-4.36 -3.03,-5.39 -1.05,-0.88 -1.41,-2.04 -1.37,-3.37 1.92,-5.34 5.89,-2.18 9.1,-2.21 9.7,2.5 16.45,9.65 23.81,15.63 13.47,10.94 27.75,20.58 42.88,29.01 2.56,1.43 5.05,2.92 7.25,4.87 0.33,0.58 0.29,1.13 -0.11,1.66 z"
         fill="#b7a6ce"
         id="path300" />
      <path
         d="m 912.64,2085.59 c 8.38,8.92 15.88,18.48 21.5,29.42 0.57,1.1 1.7,2.09 1.83,3.21 0.28,2.34 1.66,5.46 -1.17,6.78 -3.14,1.46 -5.31,-1 -6.14,-3.69 -5.09,-16.35 -18.71,-26.21 -29.06,-38.54 -0.77,-0.92 -2.06,-2.37 -2.89,-0.78 -1.05,2.03 -3.08,5.03 -0.26,6.74 5.4,3.28 4.84,7.41 2.86,12.14 -0.3,3.17 -2.3,2.52 -4.21,1.8 -1.51,-0.57 -2.45,-2.05 -3.7,-2.84 -2.12,0.7 -0.32,4.53 -3.58,4.01 -6.12,-1.84 -6.31,-7.97 -8.84,-12.37 -0.78,-1.35 -0.27,-3.79 -2.28,-4.06 -7.55,-1.04 -9.97,-8.44 -15.42,-11.98 -1.94,-1.26 -1.43,-2.21 -0.75,-3.49 0.96,-1.81 1.18,-3.53 -0.05,-5.28 -1.5,-4.07 1.87,-3.87 4,-4.16 3.01,-0.41 5.08,-1.43 5.36,-4.73 0.95,-1.93 2.46,-2.81 4.58,-2.23 1.41,0.39 2.24,1.69 1.79,2.88 -3,7.94 3.92,12.45 6.13,18.56 0.27,-2.01 -0.85,-3.55 -1.67,-5.18 -0.85,-1.68 -1.98,-3.19 -2.88,-4.83 -0.98,-1.77 -2.79,-3.96 -0.69,-5.57 1.69,-1.29 3.35,0.84 4.81,1.94 0.5,0.37 0.92,0.86 1.7,1.04 1.92,-2.22 -0.98,-4.75 0.33,-7 1.9,-1.3 3.38,0 4.36,1.17 7.78,9.32 16.94,17.39 24.35,27.03 z"
         fill="#876aad"
         id="path301" />
      <path
         d="m 821.33,2059.86 c -1.01,-1.51 -3.72,-0.96 -3.96,-3.53 -0.26,-2.83 -2.02,-2.3 -4.12,-1.83 -3.16,0.71 -6.68,1.39 -8.07,-2.91 -0.37,-1.14 -1.05,-1.4 -1.77,-1.07 -2.2,1 -4.3,1.03 -5.32,-1.32 -1.22,-2.78 3.19,-2.3 3.11,-5.19 -4.54,1.51 -2.53,-7.48 -8.19,-4.88 -1.9,-2.78 -0.07,-5.17 0.88,-7.59 1.68,-4.26 3.59,-8.44 3.22,-13.19 -0.49,-3.46 0.84,-5.67 4.37,-6.36 4.17,2.67 7.17,6.44 9.87,10.51 2.51,6.71 2.91,14.36 8.69,19.63 -1.07,7.8 2.28,13.02 9.56,14.89 6.05,1.55 8.54,9.86 4.57,15.24 -2.68,0.64 -4.66,-3.59 -7.61,-1.1 -0.4,0.62 -0.8,0.62 -1.19,-0.01 -0.06,-0.82 -0.12,-1.63 -0.18,-2.45 -1.23,-1.46 0.5,-3.7 -1.31,-5.01 -0.85,-1.27 -1.7,-2.54 -2.55,-3.81 z"
         fill="#a690c4"
         id="path302" />
      <path
         d="m 929.45,2048.62 c 0,-0.41 -0.02,-0.81 -0.03,-1.22 -5.83,-7.15 -14.24,-10.68 -21.86,-15.21 -12.81,-7.6 -24.23,-16.93 -35.16,-26.9 -1.9,-1.73 -4.47,-4.36 0.59,-5.77 0.92,-0.09 1.83,-0.02 2.74,0.16 2.71,0.6 5.45,0.97 8.23,0.85 3.84,0.18 7.12,1.95 10.41,3.67 9.94,5.79 16.77,14.91 24.43,23.12 2.26,2.42 4.63,4.81 6.56,7.55 3.39,2.68 6.43,5.89 8.18,9.69 0.89,1.94 2.7,2.29 3.48,3.86 -0.45,1.21 -1.28,2.07 -2.46,2.6 -1.78,-0.64 -2.93,-2.61 -5.11,-2.39 z"
         fill="#b4a3cd"
         id="path303" />
      <path
         d="m 870.38,2057.58 c 2.33,4.03 1.16,6 -3.48,6.39 -2.34,0.2 -5.64,-1.35 -6.44,2.7 -2.35,-2.73 -5.87,-3.34 -8.86,-4.93 -1.72,-1.32 -2.62,-3.29 -3.91,-4.95 -0.03,-0.41 -0.08,-0.83 -0.15,-1.24 -1.28,-1.6 0.09,-4.93 -3.7,-5.02 -1.86,-0.04 -3.08,-1.9 -3.99,-3.65 -2.41,-4.68 -6.03,-8.44 -9.48,-12.34 -0.46,-3.35 0.5,-6.02 4.2,-6.36 3.63,-0.34 7.83,0.06 8.95,4.06 1.81,6.47 5.21,8.29 11.87,7.85 6.88,-0.45 14.43,9.27 14.97,17.5 z"
         fill="#957cb9"
         id="path304" />
      <path
         d="m 912.64,2085.59 c -8.17,-6.4 -15.08,-14.06 -21.71,-21.96 -2,-2.38 -3.86,-4.83 -6.73,-6.25 -2.73,0 -3.93,-1.76 -4.69,-4.04 0.75,-5.03 4.53,-3.78 7.2,-2.86 10.43,3.58 20.95,7.13 30.34,13.06 3.14,1.98 7.87,1.96 9.13,6.58 -9.1,1.76 -12.12,5.21 -13.54,15.48 z"
         fill="#b7a6cf"
         id="path305" />
      <path
         d="m 830.92,2034.63 c 3.64,0.04 4.03,3.76 6.13,5.35 3.95,2.99 3.79,9.52 9.98,10.63 2.18,0.39 -0.03,3.28 0.52,4.95 -9.84,0.03 -12.77,4.1 -8.82,12.27 0.09,0.19 0.19,0.38 0.22,0.58 0.31,2.71 3.9,5.87 1.15,7.81 -2.83,2 -3.55,-3.06 -5.92,-3.97 2.51,-3.47 -0.25,-6.79 -0.45,-10.16 -0.31,-5.17 -4.84,-3.02 -7.79,-3.59 -5.18,-1.01 -9.51,-12.11 -6.35,-16.16 0.53,0.09 1.04,0.24 1.53,0.44 1.99,0.32 4.11,1.26 5.42,-1.28 0.81,-2.71 0.57,-6.1 4.38,-6.88 z"
         fill="#b7a6d0"
         id="path306" />
      <path
         d="m 926.17,2070.12 c -12.36,-7.24 -25.35,-13.14 -38.85,-17.85 -2.03,-0.71 -5.48,-3.83 -6.89,1.23 -5.26,-0.46 -5.97,-3.34 -4.06,-7.63 1.72,-1.19 3.41,-1.37 5.03,0.2 14.68,3.9 28.21,10.7 42.02,16.75 1.87,0.82 3.48,2.23 5.21,3.36 17.25,8.19 32.06,18.9 38.88,37.99 -10.46,-15.48 -23.76,-27.4 -41.34,-34.06 z"
         fill="#947eb3"
         id="path307" />
      <path
         d="m 887.81,2103.85 c 3.14,-1.74 -1.27,-6.02 1.89,-6.99 3.32,-1.03 3.27,3.78 5.78,4.84 1.57,0.66 2.81,0.69 3.82,-0.82 4.17,9.47 10.55,17.66 15.44,26.71 1.73,3.2 5.09,5.56 5.14,11.27 -6.08,-4.68 -10.1,-9.66 -12.71,-15.47 -2.38,-5.29 -6.64,-9.58 -7.74,-15.55 -0.4,-2.14 -1.85,-3.53 -4.69,-1.93 -2.59,1.46 -5.22,0.64 -6.93,-2.06 z"
         fill="#9881b6"
         id="path308" />
      <path
         d="m 925.36,2034.86 c -6.68,-5.02 -12,-11.45 -17.57,-17.54 -4.13,-4.52 -8.96,-8.02 -13.49,-11.95 0.51,-1.1 1.82,-0.64 2.55,-1.32 6.39,3.05 10.11,9.2 15.5,13.4 4.11,5.97 9.96,10.64 13,17.41 z"
         fill="#8b72af"
         id="path309" />
      <path
         d="m 934.57,2051.01 c -0.02,-1.66 0.87,-2.46 2.46,-2.6 8.22,4.43 15.83,9.61 20.74,18.21 -7.73,-5.2 -15.47,-10.41 -23.2,-15.61 z"
         fill="#8b72af"
         id="path310" />
      <path
         d="m 825.38,2071.13 c 0.4,0.03 0.79,0.03 1.19,0.01 1.13,1.64 1.4,3.99 3.78,4.6 1.27,0.32 3.64,-2.12 3.65,1.12 0,1.75 -2.37,0.92 -3.52,1.72 -1.75,1.23 -3.13,0.62 -3.68,-1.5 -0.51,-1.98 -0.96,-3.97 -1.43,-5.96 z"
         fill="#b7a6d0"
         id="path311" />
      <path
         d="m 844.91,2069.26 c 1.97,3.66 7.11,2.81 8.72,6.84 -2.24,-3.39 -9.96,1.47 -8.72,-6.84 z"
         fill="#b7a6d0"
         id="path312" />
      <path
         d="m 950.74,2152.78 c -1.69,-0.41 -3.37,-0.81 -5.06,-1.22 0.9,-1.79 2.37,-3.34 4.29,-2.71 1.39,0.46 0.59,2.56 0.77,3.93 z"
         fill="#b6a4ce"
         id="path313" />
      <path
         d="m 847.69,2056.79 c 2.25,0.91 4.34,1.94 3.91,4.95 -4.02,0.49 -3.96,-2.23 -3.91,-4.95 z"
         fill="#b7a6d0"
         id="path314" />
      <path
         d="m 823.88,2063.66 c 3.09,0.98 1.33,3.22 1.31,5.01 -1.76,-1.33 -1.1,-3.29 -1.31,-5.01 z"
         fill="#b7a6d0"
         id="path315" />
      <path
         d="m 820.96,1933.73 c 0.43,0.44 0.87,0.88 1.31,1.32 1.3,2.1 2.47,2.94 3.05,-0.38 0.2,-1.12 -0.32,-2.37 0.62,-3.36 v 0 c 3.27,-2.68 4.94,-1.81 4.79,2.31 -0.09,2.34 -1.24,4.36 -2.36,5.54 13.11,-8.49 26.16,-18.39 41.54,-26.49 -3.79,-0.16 -6.38,3.97 -9.09,0.11 5.56,-4.23 10.76,-9.12 16.83,-12.43 3.39,-1.85 2.99,-5.87 6.93,-7.34 7.21,-2.7 12.75,-8.78 20.26,-11.35 2.07,-0.71 3.71,-2.67 5.54,-4.05 1.38,-1.87 3.23,-3.34 5.06,-1.09 1.55,1.91 -0.52,3.47 -1.87,4.67 -6.93,6.2 -14.32,11.83 -19.91,15.73 11.57,-3.8 22.66,-13.92 36.8,-18.27 4.63,-1.42 8.81,-4.63 13.36,-6.73 2.19,-1.01 4.3,-1.78 6.47,-0.16 2.42,1.8 2.56,4.12 1.37,6.69 -0.65,1.14 -1.67,1.75 -2.88,2.1 -5.76,1.31 -11.48,3.63 -15.99,6.89 -7.01,5.08 -15.21,6.69 -22.56,10.59 1.66,0.44 3.08,1.31 2.48,3.54 -3.93,4.21 -9.75,4.5 -14.63,6.55 -6.71,2.81 -13.3,5.95 -20.19,8.46 6.59,6.68 5.96,13 -1.84,17.15 -3.7,1.97 -6.39,5.51 -10.6,6.63 -1.96,0.53 -4.34,0.49 -4.69,3.26 -0.96,7.69 -7.06,9.63 -13.05,11.49 -3.51,1.09 -7.63,0.88 -8.44,5.88 -0.79,4.87 -1.39,9.52 4.29,12.1 1.11,0.51 1.5,1.97 2.48,2.77 0.75,0.96 1.44,1.96 1.84,3.12 0.15,1.35 -0.29,2.39 -1.55,2.99 -3.76,-0.16 -7.26,0.58 -10.19,3.14 -4.91,1.12 -9.85,4.46 -14.55,-0.69 -4.2,-4.59 -4.49,-8.15 -0.51,-13.39 2,-2.64 4.66,-4.86 4.61,-8.62 -0.02,-1.61 0.9,-3.55 -0.98,-4.52 -1.58,-0.82 -2.6,0.91 -3.82,1.59 -0.92,0.51 -1.83,1.01 -3.01,1.49 2.33,1.11 6.06,-0.44 6.7,2.93 0.59,3.07 -2.08,4.87 -4.38,6.32 -3.54,2.23 -6.65,5.11 -10.57,6.75 -1.84,0.77 -3.65,1.32 -5.17,-0.44 -1.58,-1.84 -0.72,-3.44 0.67,-4.98 0.7,-0.77 2.59,-1.17 1.23,-2.82 -4.27,-5.18 -0.12,-7.84 3.23,-10.67 1.73,-1.46 4.08,-2.15 5.41,-4.18 -10.91,-3.88 -19.05,-0.18 -22.16,9.73 -0.85,2.72 -0.36,4.32 1.91,5.8 2.87,1.87 4.83,4.55 6.51,7.52 3.49,6.19 0.49,11.66 -7.16,12.87 0.09,-5.93 -2.7,-8.35 -8.75,-8.63 -4.51,-0.21 -9.96,0.27 -12.42,-5.49 -0.89,-2.08 -2,-0.05 -2.98,0.29 -5.61,1.89 -13.56,-3.17 -13.74,-8.96 -0.08,-2.4 -0.9,-5.72 1.8,-6.85 3.43,-1.44 7.38,-1.86 10.95,0.02 1.84,0.97 3.34,2.53 5.37,3.23 0.54,0.18 1.07,0.41 1.6,0.64 1.53,0.71 3.06,1.4 4.54,-0.1 0.61,-0.56 1.28,-1.04 1.99,-1.47 4.62,-1.85 4.38,-7.72 8.37,-10.09 5.81,-3.13 9.99,-8.1 14.22,-12.92 2.94,-3.35 5.63,-6.31 10.53,-3.73 2.5,1.32 3.76,-0.91 5.4,-2 z"
         fill="#7453a0"
         id="path316" />
      <path
         d="m 959.86,1783.15 c 0.81,-1.27 1.62,-2.55 2.44,-3.82 5.23,1.49 11.01,1.51 14.43,7.14 1.75,2.88 3.39,0.51 4.64,-1.28 1.53,-2.19 3.17,-5.78 5.86,-4.71 3.61,1.43 8.01,3.13 9.2,7.62 0.79,2.95 2.02,5.4 4.17,7.5 2.2,2.14 4.22,4.18 7.39,1.28 2.03,-1.86 4.3,-0.88 6.41,0.22 2.74,0.84 4.89,2.46 6.44,4.86 v 0 c 0.96,1.93 0.15,2.56 -1.78,2.67 -1.62,0.1 -2.75,1.05 -2.89,2.76 -0.16,1.91 1.41,2.67 2.76,2.88 11.34,1.79 12.34,12.06 16.23,19.85 0.7,1.41 1.06,3.89 -0.96,5.11 -1.92,1.16 -3.46,-0.29 -5.15,-1.17 -2.38,-1.24 -4.11,-2.96 -4.82,-5.47 -1.23,-4.36 -3.92,-7.75 -6.64,-11.22 -1.31,-1.67 -2.25,-2.39 -4.6,-1.87 -5.74,1.27 -10.8,-0.8 -14.4,-5.21 -3.49,-4.27 -8.61,-3.85 -11.12,-1.56 -5.78,5.25 -12.18,9 -19.15,12.11 -4,-0.43 -5.12,-4.67 -8.73,-6.46 -5.54,-2.75 -7.97,-0.55 -11.13,2.19 -2.11,1.82 -3.9,3.22 -6.37,0.79 -4.69,-4.6 -9.77,-5.95 -15.5,-1.87 -4.48,0.11 -7,-2.19 -6.26,-6.53 0.56,-3.28 2.23,-5.66 6.88,-5.31 10.34,0.79 17.08,-4.46 20.16,-14.34 0.72,-2.33 1.96,-4.36 4.31,-2.06 4.39,4.29 5.86,1.38 7.29,-2.43 0.22,-0.58 0.59,-1.1 0.88,-1.65 z"
         fill="#ded6e9"
         id="path317" />
      <path
         d="m 772.87,1766.07 c 0.65,0.51 1.51,0.89 1.92,1.54 3.34,5.41 6.44,6.27 11.17,1.96 5.01,-4.57 10.32,-5.16 16.18,-2.73 3.36,1.39 3.53,-0.39 3.51,-2.81 4.23,1.38 3.05,4.98 2.8,7.76 -1.11,12.19 -4.81,23.74 -10.32,34.57 -3.23,6.34 -5.05,13.25 -8.62,19.41 -1.14,1.96 -1.6,4.35 -3.85,5.52 -3.69,0.28 -5.78,-1.4 -6.32,-5.08 -0.22,-1.52 0.6,-3.67 -1.43,-4.28 -2.87,-0.86 -1.97,2.52 -3.33,3.42 -0.82,0.54 -1.79,0.83 -2.69,1.24 -1.64,-0.26 -2.72,-1.39 -3.12,-2.79 -2.46,-8.79 -8.45,-15.85 -11.78,-24.19 -1.92,-4.79 -6.57,-7.53 -8.73,-12.15 -1.23,-2.62 -3.36,-4.83 -3.38,-7.97 2.48,-4.56 6.45,-8.03 9.74,-11.88 2.55,-2.98 7.35,-4.51 11.95,-2.62 1.59,3.37 3.73,3.56 6.33,1.09 z"
         fill="#c8bbdb"
         id="path318" />
      <path
         d="m 776.22,1965.17 c -0.42,0 -0.83,0.01 -1.25,0.02 -0.33,-2.13 1.96,-4.3 -0.71,-6.52 -2.61,-2.18 0.6,-2.64 1.7,-3.65 1.73,-2.65 6.74,-1.97 6.65,-6.53 0,-0.16 1.01,-0.5 1.54,-0.5 6.17,0.05 9.53,-4.54 7.77,-10.44 -1.48,-4.95 -3.99,-9.47 -4.5,-14.9 -0.29,-3.12 -1.18,-8.14 -7.53,-6.98 -3.32,0.61 -5.89,-7.26 -2.95,-9.71 5.13,-4.28 4.53,-9.74 3.72,-14.98 -0.98,-6.36 -1.04,-12.75 -1.62,-19.12 -1.16,-4.11 1.1,-4.91 4.47,-4.63 1.64,0.78 2.14,2.4 2.87,3.86 2.15,6.59 6.52,12.08 9.32,18.36 0.77,1.73 2,3.66 3.74,4.04 6.41,1.41 7.88,8.17 12.71,11.2 1.54,0.97 1.24,2.51 0.99,3.94 -0.4,2.3 -0.75,4.55 1.11,6.44 2.53,1.95 4.07,4.26 2.79,7.61 -2.26,3.74 -1.86,6.77 2.38,8.75 0.51,0.77 1.03,1.53 1.54,2.3 -0.28,3.81 -1.79,6.72 -5.74,3.73 -4,-3.02 -5.8,-0.98 -8.13,1.84 -4.58,5.55 -9.16,11.16 -16,14.18 -3.34,-0.56 -2.41,2.63 -3.5,4.03 -1.65,2.13 -2.78,4.68 -5.1,6.26 -0.41,0.43 -0.82,0.86 -1.23,1.28 -1.65,1.12 -3.34,1.03 -5.04,0.12 z"
         fill="#6a4799"
         id="path319" />
      <path
         d="m 950.81,1877.98 c 0.11,-1.98 1.09,-4.11 -1.43,-5.51 -2.08,-1.15 -3.34,0.23 -5.09,0.9 -6.54,2.51 -11.86,7.66 -18.96,8.84 -7.35,1.22 -11.78,7.53 -18.36,10.18 -6.53,2.63 -13.37,4.72 -19.7,8.29 9.32,-7.63 18.65,-15.26 28.01,-22.92 -2.13,-2.36 -3.47,-0.52 -4.92,-0.15 6.01,-7.78 14.24,-13.14 21.48,-19.56 6.37,-5.65 12.51,-11.55 17.91,-18.06 4.05,-4.89 8.7,-8.79 13.94,-12.3 -1.34,6.04 -6.1,9.6 -10.13,13.53 -2.99,2.92 -6.16,5.61 -8.48,9.13 -0.46,0.84 -0.92,1.67 -1.37,2.51 -3.12,5.79 -9.16,8.83 -12.74,13.91 8.8,-0.09 18.16,3.69 27.05,-1.5 8.81,-0.05 15.24,-6.16 22.82,-9.27 11.69,-4.79 22.33,-12.05 34.7,-15.42 0.53,-0.15 1.14,-0.04 2.28,1.18 -16.57,8.97 -33.14,17.94 -49.71,26.92 -4.08,6.23 -10.21,8.66 -17.3,9.29 z"
         fill="#957db6"
         id="path320" />
      <path
         d="m 860.81,1912.78 c 3.6,1.62 5.69,-1.93 8.64,-2.5 1.18,-0.23 2.64,-0.68 3.24,0.86 0.47,1.22 -0.61,1.88 -1.53,2.39 -8.5,4.77 -18.1,8.82 -24.82,15.15 -6.6,6.22 -16.18,7.17 -21.61,14.62 1.51,-2.96 3.21,-5.84 4.49,-8.9 1.47,-3.5 -0.44,-3.92 -3.29,-3.08 7.61,-23.11 20.8,-42.82 37.36,-60.35 3.73,-3.95 4.9,-6.48 -0.8,-9.25 -1.51,-0.73 -3.66,-2.1 -2.01,-4.4 1.43,-1.99 3.28,-0.74 5.11,-0.22 4.56,1.29 8.86,5.5 14.59,0.6 -1.36,6.4 -6.83,7.45 -9.93,10.71 -7.35,7.74 -13.77,16.08 -19.16,25.25 -2.07,3.54 -4.74,6.85 -7.25,9.86 -4.78,5.74 -6.17,13.15 -10.93,18.75 -1.63,1.92 -1.92,5.2 0.22,6.86 2.17,1.68 2.81,-1.54 4.15,-2.58 0.81,-0.63 1.94,-1.84 2.51,-1.63 6.35,2.28 8.77,-3.96 13.12,-5.92 3.1,-1.4 6.48,-2.61 7.9,-6.21 z"
         fill="#9178b4"
         id="path321" />
      <path
         d="m 784.04,1867.96 c -2.77,-0.11 -4.84,0.68 -5,3.91 -0.42,0 -0.83,0 -1.25,0.01 -1.78,0 -2.91,-0.88 -3.45,-2.56 -0.35,-1.84 0.18,-3.67 0.12,-5.51 -0.48,-14.78 -8.84,-26.8 -14.03,-39.92 -7.06,-17.29 -15.16,-34.04 -25.56,-49.6 -0.7,-1.05 -1.34,-2.15 -1.63,-3.39 -0.33,-1.43 -0.69,-3.06 0.99,-3.86 1.31,-0.63 2.51,0.28 3.29,1.21 2.92,3.5 6.52,6.56 7.75,11.24 10.22,14.93 20.24,29.99 26.61,47.1 1.74,4.17 1.9,9 5.28,12.47 1.11,5.06 3.1,9.73 5.63,14.28 2.54,4.56 4.68,9.43 1.26,14.63 z"
         fill="#866ca9"
         id="path322" />
      <path
         d="m 784.04,1867.96 c 0.36,-6.3 -0.55,-12.22 -4.12,-17.7 -2.14,-3.28 -3.2,-7.14 -2.77,-11.21 3.49,7.24 6.98,14.49 10.48,21.73 0.36,0.74 0.81,2.11 1.15,2.09 4.68,-0.3 7.72,4.99 10.77,4.93 9.1,-0.19 8.19,4.85 7.5,10.63 -0.22,1.84 1.18,2.99 2.17,4.36 3.22,4.49 2.93,12.69 -0.45,17.37 -1.7,-1.32 -1.49,-3.33 -1.85,-5.13 -0.42,-2.13 -1.06,-4.42 -3.32,-4.89 -5.93,-1.23 -8.47,-5.94 -10.72,-10.54 -1.76,-3.6 -4.05,-6.17 -7.54,-7.84 -1.44,-0.92 -1.21,-2.41 -1.29,-3.8 z"
         fill="#9981bc"
         id="path323" />
      <path
         d="m 825.24,1855.6 c 1.75,-13.39 4.6,-26.63 4.93,-40.21 0.32,-13.58 1.49,-27.22 -4.02,-40.21 -0.59,-1.4 -2.4,-3.38 -0.02,-4.22 2.14,-0.75 3.04,1.56 3.61,3.37 3.47,11.09 5.15,22.43 4.56,34.07 -0.72,13.95 -2.29,27.82 -4.25,41.65 -0.14,1.02 -0.61,2 -0.92,3 -2.49,7.93 -2.37,16.54 -6.8,25.65 -0.2,-8.91 2.32,-15.9 2.92,-23.1 z"
         fill="#8571a4"
         id="path324" />
      <path
         d="m 785.65,1831.28 c 4.57,-10.61 8.98,-21.29 13.76,-31.8 4.29,-9.43 6.53,-19.32 7.46,-29.55 0.18,-1.97 0.68,-4.25 -1.22,-5.9 1.21,-3.76 -0.37,-7.62 0.17,-12.65 5.98,12.52 6.5,23.83 1.55,35.67 -3.33,7.96 -5.19,16.53 -8.53,24.49 -2.22,5.31 -4.97,10.42 -6.84,15.91 -2.25,2.05 -0.58,5.33 -2.39,7.56 -1.14,1.4 -1.8,3.95 -4,3.15 -1.75,-0.63 -1.05,-2.9 -0.8,-4.51 0.12,-0.81 0.54,-1.58 0.83,-2.36 z"
         fill="#a38fbd"
         id="path325" />
      <path
         d="m 785.34,1871.75 c 4,-0.48 6.02,0.99 8.06,4.91 2.47,4.77 3.49,11.13 11.66,11.98 4.45,0.46 3.57,7.18 3.72,11.5 7.44,2.92 4.74,9.55 5.47,14.93 -1.37,-0.32 -2.47,-1.27 -2.45,-2.52 0.15,-9.23 -5.61,-13.96 -13.09,-17.31 -1.73,-0.77 -2.68,-2.03 -3.38,-3.49 -3.19,-6.74 -8.12,-12.61 -9.99,-20 z"
         fill="#866ca9"
         id="path326" />
      <path
         d="m 819.41,1931.43 c -1.87,-1.03 -4.99,0.86 -5.87,-1.58 -1.12,-3.07 1.54,-5.14 3.5,-7.17 0.79,2.92 1.59,5.83 2.38,8.75 z"
         fill="#7453a0"
         id="path327" />
      <path
         d="m 825.93,1931.31 c -0.13,1.82 -0.05,3.69 -0.48,5.44 -0.21,0.85 -1.44,1.61 -2.49,1.08 -1.1,-0.55 -0.65,-1.8 -0.7,-2.78 4.3,1.77 1.09,-3.83 3.67,-3.74 z"
         fill="#9178b4"
         id="path328" />
      <path
         d="m 912.14,1901.52 c -0.5,-4.26 -3.48,-1.16 -6.91,-2.16 5.87,-2.02 8.55,-6.73 14.53,-6.56 2.71,0.08 5.51,-2.29 8.07,-4.16 6.13,-4.47 13.03,-7.57 20.51,-9.22 1.14,6.84 1.54,7.16 8.62,6.57 1.41,-0.12 2.84,-0.63 4.09,0.5 4.64,-0.08 9.06,-2.1 13.76,-1.58 2.35,-0.63 5.25,-1.9 3.21,2.7 -1.52,1.37 -3.44,1.85 -5.32,2.41 -0.61,0.17 -1.24,0.28 -1.88,0.34 -2.74,0.32 -5.62,-0.2 -8.16,1.37 -2.07,1.03 -4.21,1.55 -6.51,0.89 -3.42,-2.02 -7.15,-2.03 -10.82,-1.18 -6.44,1.5 -12.82,3.28 -19.28,4.65 -2.98,0.63 -3.09,2.8 -4.18,4.59 -3.16,1.38 -6.38,1.99 -9.75,0.84 z"
         fill="#947bb8"
         id="path329" />
      <path
         d="m 958.02,1865.28 c -5.2,6.74 -12.34,4.56 -18.9,3.68 -3.94,-0.53 -7.69,-1.07 -11.73,0.09 5.01,-5.97 9.78,-11.96 16.32,-16.18 5.49,3.31 11.43,6.09 14.31,12.41 z"
         fill="#baa9d0"
         id="path330" />
      <path
         d="m 961.06,1886.48 c -2.21,0.49 -4.4,1.3 -6.64,1.42 -6.95,0.38 -8.76,-2.26 -6.08,-8.49 0.82,-0.48 1.64,-0.96 2.47,-1.44 5.74,-3.15 12.13,-5.09 17.3,-9.29 1.39,2.67 -0.96,11.74 -3.74,12.39 -3.45,0.81 -3.57,2.77 -3.3,5.4 z"
         fill="#b09ec8"
         id="path331" />
      <path
         d="m 977.32,1887.25 c 1.55,-3.32 -1.32,-1.94 -2.5,-2.35 7.66,-3.07 16.03,-2.21 23.86,-4.34 6.52,-0.15 13.05,-0.3 19.57,-0.45 0.01,0.61 0.03,1.23 0.04,1.84 -8.27,0.17 -16.54,0.39 -24.56,2.53 -5.08,3.24 -10.39,5.07 -16.4,2.77 z"
         fill="#b09ec8"
         id="path332" />
      <path
         d="m 845.77,1976.27 c -1.2,-0.83 -2.4,-1.67 -3.62,-2.48 -5.79,-3.84 -7.02,-10.36 -3.23,-16.28 1.15,-1.8 1.85,-3.04 4.61,-3.04 5.05,0 9.33,-2.92 13.58,-5.45 1.69,-1.01 2.01,-2.62 1.83,-4.35 -0.49,-4.78 2.3,-5.74 6.22,-5.44 0.76,1.26 1.77,1.92 3.03,0.78 6.55,-5.94 14.65,-9.91 20.82,-16.33 2,-2.09 3.93,-5.18 7.27,-3.04 3.15,2.03 1.79,5.13 0.57,7.88 -1.32,1.27 -3.13,1.47 -4.71,2.17 -2.46,1.26 -4.51,2.99 -6.12,5.24 -0.15,0.52 -0.32,1.02 -0.49,1.53 -0.39,4.85 2.59,2.72 4.74,2.28 9.08,-3.36 18.32,-3.16 27.87,-2.41 27.44,2.16 50.63,-6.88 68.76,-27.98 1.77,-2.07 3.69,-4.01 5.63,-5.92 1.21,-1.14 2.42,-2.27 4.22,-2.36 3.21,-0.03 1.53,1.95 0.86,2.73 -17.09,20.11 -35.56,37.97 -64.27,38.9 -8.49,0.4 -16.96,0 -25.41,-0.7 -9.1,-0.76 -17.26,2.52 -25.28,5.98 -8.68,3.75 -17.06,8.21 -25.74,11.96 -3.19,1.38 -4.77,2.97 -5.68,6.48 -0.8,3.08 -3.54,5.67 -5.42,8.47 0.4,0.32 0.53,0.63 0.39,0.93 -0.14,0.3 -0.28,0.45 -0.42,0.45 z"
         fill="#896eaf"
         id="path333" />
      <path
         d="m 996.76,1901.06 c -0.81,0.81 -1.62,1.62 -2.43,2.44 -2.36,1.26 -4.87,2.14 -6.64,4.45 -1.82,2.38 -4.36,1.96 -6.79,0.74 -5.35,-2.67 -9.99,-13.55 -8.45,-19.82 1.45,-1.07 3.09,-1.58 4.88,-1.61 5.47,-0.92 10.93,-1.85 16.4,-2.77 6.97,0.16 7.29,0.58 5.53,7 -0.87,3.18 -1.67,6.38 -2.5,9.57 z"
         fill="#d5cbe3"
         id="path334" />
      <path
         d="m 745.26,1779.48 c -4.41,-3.11 -6.11,-8.77 -11.34,-11.35 10.45,17.75 20.72,35.54 27.64,54.98 1.32,7.5 3.85,14.79 3.65,22.55 -0.05,2.1 0.4,4.25 -1.87,5.55 -3.08,0.9 -4.51,-1.39 -6.22,-3.2 -9.76,-10.32 -19.16,-20.97 -29.47,-30.77 -3.01,-2.86 -6.4,-5.14 -10.49,-6.71 1.09,2.07 4.07,2 4.25,4.58 -4.09,2.98 -4.21,7.47 -4.47,11.9 -1.76,3.36 -4.16,5.74 -8.3,5.53 -1.82,-0.59 -2.29,-2.01 -2.31,-3.72 0.53,-3.04 4.91,-6.64 -1.27,-8.71 -0.95,-0.81 -1.45,-1.87 -1.69,-3.07 -0.4,-2.87 0.14,-5.36 2.83,-7 4.04,-2.47 3.39,-4.28 -0.83,-5.48 -1.19,-0.34 -2.45,-0.47 -3.49,-1.26 -2.3,-4.14 -1.73,-7.98 1.16,-11.59 0.38,-0.03 0.75,-0.05 1.13,-0.08 3.01,2.22 6.16,4.14 6.61,8.57 0.37,3.65 2.96,2.85 5.1,1.51 8.53,-5.3 12.84,-15.01 10.21,-24.76 -2.87,-10.66 0.2,-18.88 8.07,-26.25 5.45,-5.11 9.64,-11.45 17.5,-13.66 9.6,-2.71 15.94,1.22 14.15,10.67 -1.17,6.15 0.25,11.54 0.74,17.26 -5.48,1.72 -12.61,0.46 -14.13,9.01 -0.54,3.07 -5.57,2.52 -7.16,5.49 z"
         fill="#d5cbe4"
         id="path335" />
      <path
         d="m 577.97,1954.77 c -8.24,-1.94 -12.05,-7.98 -14.46,-15.42 -0.43,-1.33 -1.26,-2.92 -2.39,-3.58 -3.8,-2.23 -4.83,-4.51 -2.18,-8.59 2.91,-4.48 6.31,-7.87 11.7,-5.69 4.15,1.68 7.57,1.87 11.11,-0.75 2.13,-1.58 4.28,-1.01 6.53,-0.31 5.66,1.76 11.11,2.07 15.7,-2.63 0.91,-0.93 1.94,-1.75 3.27,-0.86 0.93,0.62 1.66,2.11 0.75,2.61 -6.01,3.3 -1.14,7.83 -1.52,11.73 -3.42,-0.12 -4.96,-3.64 -8.04,-4.42 -1.32,-0.33 -2.64,-1.8 -3.9,-0.17 -1.25,1.62 0.32,2.56 1.18,3.67 2.34,3 5.75,4.07 9.2,4.73 3.69,0.71 6.5,3.75 10.42,3.67 0.47,0.4 0.93,0.79 1.4,1.19 4.48,3.98 4.8,7.87 -0.32,10.18 -9.05,4.08 -17.79,9.43 -28.18,9.8 -4.17,-0.22 -8.64,0.16 -10.27,-5.14 z"
         fill="#ebe6f2"
         id="path336" />
      <path
         d="m 608.12,1889.75 c 3.76,-0.13 7.53,-0.27 11.29,-0.4 2.31,2.88 5.63,2.53 8.68,2.43 6.3,-0.19 12.65,1.89 18.91,-0.33 2.01,3.5 5.95,1.39 8.76,3.02 2.67,1.55 4.47,2.52 0.52,4.16 -2.67,1.1 -2.01,4.02 -4.27,5.81 -2.96,-4.1 -6.49,-5.88 -11.07,-1.96 -0.72,0.62 -2.92,0.05 -4.15,-0.56 -5.19,-2.59 -10.82,-3.4 -16.4,-4.53 -2.32,-0.47 -3.6,0.22 -4.6,2.1 -3.12,-2.81 -9.35,-3.15 -7.68,-9.73 z"
         fill="#a690c5"
         id="path337" />
      <path
         d="m 541.66,1963.02 c -5.88,-5.13 -11.79,-10.24 -15.57,-17.26 6.01,1.18 11.26,4.03 16.2,7.51 0.8,0.57 1.73,1.63 1.77,2.5 0.55,11.14 4.14,5.55 7.61,1.47 1.07,-1.25 2.44,-2.25 3.67,-3.36 6.65,5.52 15.35,5 23.03,7.28 6.84,2.04 14,3.71 21.28,4.68 5.39,0.72 10.94,1.69 16.08,1.02 11.08,-1.45 22.08,-0.28 33.1,-0.49 3.98,-0.07 7.94,-0.15 11.77,-1.46 2.56,-0.87 4.95,-0.75 6.85,1.49 4.3,4.11 9.4,3.73 14.63,2.58 2.14,-0.47 4.22,-0.53 5.63,1.54 1.24,1.82 0.98,3.54 -0.7,5.01 -8.68,3.78 -17.55,7 -26.85,8.9 -3.42,-0.09 -6.99,-0.74 -9.61,-2.6 -4.91,-3.49 -10.55,-1.99 -15.71,-3.38 -1.62,-0.44 -3.07,0.1 -3.09,2.07 -0.04,3.94 -1.89,7.8 -0.49,11.8 -0.22,0.98 -0.66,1.69 -1.83,1.48 -1.66,0.04 -3.33,0.08 -5.75,0.13 1.65,-3.01 3.15,-5.33 -0.28,-7.97 -3.04,-2.35 -5.02,-1.26 -7.91,-0.29 -5.2,1.75 -10.02,3.89 -16.35,1.66 -5.92,-2.08 -12.98,-0.9 -19.53,-1.24 -4.39,-0.23 -8.83,-0.47 -11.65,-4.69 -0.77,-1.16 -1.37,-2.99 -3.25,-1.53 -1.35,1.05 -1.29,2.57 -0.51,3.98 2.62,4.76 6.45,8.24 11.54,10.13 4.31,1.59 8.73,2.88 13.11,4.28 1.19,0.38 2.62,0.54 2.56,2.21 -0.05,1.51 -1.38,2.11 -2.52,2.47 -1.37,0.44 -2.91,0.84 -4.29,0.64 -6.73,-1 -12.93,-2.31 -20.04,0.84 -4.31,1.91 -6.3,-5.48 -7.78,-9 -2.47,-5.88 -5.5,-10.73 -11.22,-13.45 -3.64,-1.73 -1.61,-4.01 -1.33,-6.32 0.54,-4.46 3.85,-9.56 -2.56,-12.63 z"
         fill="#d6cbe4"
         id="path338" />
      <path
         d="m 659.46,1983.06 c 9.13,-2.78 18.26,-5.57 27.39,-8.35 4.14,-4.2 4.09,-5.34 -0.48,-10.44 0.13,-0.66 0.47,-1.18 1.02,-1.57 2.55,-1.27 5.2,-1.16 7.89,-0.68 0.65,0.18 1.23,0.5 1.76,0.92 1.68,3.7 2.05,7.84 3.75,11.54 -7.14,-0.21 -12.6,4.28 -18.8,6.69 -6.52,0.56 -12.83,2.33 -18.69,4.96 -20.83,9.33 -42.79,14.74 -64.98,19.43 -1.96,0.42 -4.35,0.53 -4.65,-1.76 -0.39,-2.96 2.37,-2.86 4.45,-2.97 10.84,-0.53 20.93,-4.4 31.3,-7.02 0.43,-0.4 0.86,-0.79 1.29,-1.19 9.35,-3.91 18.42,-8.65 28.76,-9.55 z"
         fill="#a18cbc"
         id="path339" />
      <path
         d="m 696.74,1963.24 c -0.41,-0.01 -0.81,-0.03 -1.22,-0.03 -2.22,-1.1 -6.42,-0.08 -5.18,-4.86 3.61,-0.91 7.19,-1.92 10.83,-2.69 2.95,-0.62 3.45,-1.94 1.75,-4.32 -3.11,-4.37 -4.14,-7.82 3.31,-7.78 0.59,0 1.38,-0.88 1.74,-1.53 1.24,-2.26 4.33,-1.84 4.93,-1.28 5.97,5.51 14.04,0.74 20.69,4.89 6.12,3.83 13.87,4.99 20.83,7.57 6.77,2.51 14.25,2.43 21.55,1.83 0.09,1.03 -2.67,1.52 -0.73,2.78 4.18,2.72 2.87,5.04 -0.26,7.39 -2.61,-0.27 -4.66,-1.43 -6.44,-3.43 -2.93,-3.3 -6.57,0.37 -10.02,-0.59 -1.24,-0.34 -0.13,3.83 -0.85,6 -1,3.03 2.51,3.37 3.92,4.96 4.95,5.62 8.25,2.98 11.71,-1.67 1.89,8.52 2.04,8.62 13.81,9.55 8.54,0.68 9.32,1.73 7.35,9.93 -0.03,1.61 -1.25,3.17 -0.15,4.83 4.37,6.65 -0.08,11.93 -2.76,17.48 -6.31,1.89 -8.71,-2.92 -11.7,-6.99 -3.91,5.01 -9.15,7.46 -15.31,7.91 -2.13,0.16 -4.33,0.24 -5.78,1.88 -3.58,4.05 -7.49,3.61 -11.68,1.28 -0.79,-0.56 -1.57,-1.12 -2.36,-1.69 -0.48,-2.35 -0.97,-4.7 -1.45,-7.05 7.33,-6.75 9.01,-15.59 9.52,-24.99 0.11,-2.13 -0.62,-2.38 -2.28,-2.63 -3.44,-0.51 -6.62,0.16 -9.69,1.64 -2.23,1.07 -4.34,2.57 -7.02,2.2 -2.08,1.29 -4.16,2.58 -6.24,3.87 -0.77,0.81 -1.71,1 -2.77,0.8 -1.47,-0.69 -2.08,-1.66 -1.01,-3.17 l -0.02,-0.04 c 1.8,-3.76 5.41,-5.13 8.89,-6.56 3.28,-1.35 4.35,-2.98 2.98,-6.75 -2.1,-5.75 -0.57,-7.56 6.29,-9.5 -4.3,1.7 -8.66,0.65 -12.93,0.32 -8.27,-0.64 -16.23,1.87 -24.4,1.88 -2.68,0 -5.51,0.61 -7.83,-1.45 z"
         fill="#7351a0"
         id="path340" />
      <path
         d="m 708.61,1831.96 c 3.22,-0.8 5.33,-3.21 7.65,-5.31 5.05,0.69 10.13,0.47 14.96,3.15 3.95,2.19 5.51,7.41 10.67,7.84 0.61,0.05 0.7,1.53 0.41,2.3 -1.29,3.36 0.23,6.07 1.73,8.9 3.43,6.48 5.3,6.67 10.26,0.82 0.57,-0.31 1.36,-0.54 1.75,-0.14 6.43,6.59 14.73,11.4 19.15,19.92 0.87,0.81 1.74,1.62 2.6,2.43 -0.83,3.46 0.83,8.4 -5.62,8.42 -1.46,0 -0.93,2.14 0.2,2.86 4.48,2.84 2.67,4.85 -1.12,4.96 -5.03,0.13 -2.57,5.25 -5,6.37 -3.8,1.75 -2.96,3.96 -1.63,6.72 1.29,2.67 0.34,4.84 -1.98,6.44 -3,2.07 -3.89,-0.85 -5.38,-2.35 -1.3,-1.32 -2.63,-2.61 -3.94,-3.92 -1.68,-5.01 -6.35,-9.52 -2.09,-15.48 0.9,-1.26 -0.56,-3.16 -1.16,-4.71 -1.37,-3.51 -4.58,-6.85 -4.33,-10.27 0.37,-5.05 0.02,-8.56 -4.08,-12.29 -3.23,-2.93 -9.45,-7.27 -13.69,-6.25 -3.66,0.88 -3.26,3.43 -1.67,5.8 2.68,3.97 3.55,7.95 1.06,12.3 -6,1.72 -7.53,-3.48 -10.16,-6.74 -1.83,-2.27 -0.72,-5.76 -2.7,-8.13 -4.02,-7.37 -7.15,-14.96 -5.89,-23.65 z"
         fill="#cabddd"
         id="path341" />
      <path
         d="m 588.09,1958.29 c 10.07,-0.26 18.29,-6.14 27.43,-9.22 4.56,-1.54 3.84,-5.66 1.23,-9.14 23.57,6.23 47.77,9.66 72.5,14.52 -1.74,3.56 -4.55,2.1 -5.34,3.94 -0.24,0.26 -0.49,0.52 -0.73,0.79 -1.3,0.75 -2.72,0.9 -4.19,0.83 -1.64,-0.15 -3.18,-0.46 -4.93,-0.15 -21.45,3.76 -43.07,4.95 -64.8,3.48 -3.36,-0.23 -6.68,0.09 -10,-0.03 -4.29,-0.16 -8.87,-0.2 -11.16,-5.01 z"
         fill="#cbbfdd"
         id="path342" />
      <path
         d="m 727.36,1870.47 c -0.36,-4.4 0.87,-8.97 -3.5,-12.65 -1.58,-1.33 -1.6,-5.32 1.46,-7.05 3.81,-2.16 17.15,2.86 17.65,7.01 0.38,3.18 1.06,3.48 3.75,2.62 1.78,-0.57 5.16,0.22 3.06,2.19 -6.89,6.48 -0.3,11.44 1.1,16.83 0.96,3.72 5.59,7.18 -0.46,10.55 -0.74,0.41 -0.37,1.59 0.35,2.14 3.18,2.46 2.33,6 2.57,9.25 -3.84,-1.41 -6.63,-4.12 -9.02,-7.32 -0.69,-2.73 -2.36,-4.42 -5.19,-4.87 -4.66,-1.17 -4.89,-6.92 -8.99,-8.67 0.36,-2.23 0.93,-4.44 1.02,-6.68 0.1,-2.41 -0.16,-4.94 -3.8,-3.36 z"
         fill="#bcacd3"
         id="path343" />
      <path
         d="m 690.34,1958.34 c 0.68,2.73 3.18,3.53 5.18,4.86 -2.94,0.11 -5.88,0.21 -8.83,0.32 -0.19,-0.21 -0.39,-0.42 -0.59,-0.62 -0.55,-1.54 -2.57,-2.39 -2.08,-4.42 0,0 -0.12,-0.1 -0.12,-0.1 2.15,-0.01 4.29,-0.03 6.44,-0.04 z"
         fill="#8c72b3"
         id="path344" />
      <path
         d="m 739.13,1889.19 q 6.66,-1.86 5.19,4.87 c -2.19,-1.13 -3.81,-2.87 -5.19,-4.87 z"
         fill="#a792c5"
         id="path345" />
      <path
         d="m 696.74,1963.24 c 10.98,0.64 21.72,-2.83 32.68,-1.95 6,0.48 12.17,-0.67 18.27,1.35 -1.39,2.61 -3.33,2.13 -5.08,1.53 -2.68,-0.91 -4.6,0.35 -5.98,2.23 -1.42,1.94 -0.71,4.28 0.69,5.85 3.73,4.15 1.89,5.73 -2.47,7.32 -3.88,1.42 -7.42,3.77 -11.1,5.72 -0.4,-2.7 -1.34,-3.83 -4.08,-1.88 -1.91,1.36 -4.61,1.3 -5.39,-0.99 -2.28,-6.75 -8.15,-6.74 -13.48,-7.95 -5.71,-2.17 -3.47,-7.21 -4.05,-11.23 z"
         fill="#8c72b3"
         id="path346" />
      <path
         d="m 650.56,2036.08 c -6.02,1.91 -13.22,0.7 -17.68,6.72 2.76,-8.02 7.74,-9.91 17.68,-6.72 z"
         fill="#8669ae"
         id="path347" />
      <path
         d="m 723.76,1985.33 c 0.07,1.05 0.37,1.98 1.37,2.52 -2.63,5.32 -5.57,6.68 -11.31,5.22 l 0.03,0.04 c 2.1,-4.12 6.35,-5.52 9.91,-7.78 z"
         fill="#8669ae"
         id="path348" />
      <path
         d="m 784.58,2056.96 c 2.21,-2.09 4.7,-2.63 7.51,-1.32 3.52,2.56 3.07,6.27 2.87,9.9 0.08,2.56 0.15,5.12 0.23,7.68 1.61,1.69 1.61,3.74 1.29,5.86 -2.42,16.02 -3.76,32.29 -11.14,47.13 -1.16,2.34 -1.6,5.38 -5.18,5.39 -0.74,-3.84 0.4,-7.5 1.55,-11.01 0.65,-1.98 2.28,-3.49 -0.03,-5.4 -2.11,-1.75 -4.19,-1.54 -6.36,-0.3 -4.16,2.38 -8.36,4.69 -12.44,7.2 -2.96,1.82 -6.06,2.71 -9.52,2.41 -1.58,-1.56 -1.45,-3.46 -0.77,-5.27 3.46,-9.19 6,-18.79 12.11,-26.79 2.06,-2.7 3.08,-5.83 4.09,-9.09 3.11,-10.03 7.09,-19.67 15.8,-26.4 z"
         fill="#d0c5df"
         id="path349" />
      <path
         d="m 784.58,2056.96 c -6.44,9.64 -12.47,19.29 -15.49,30.86 -1.79,6.83 -8.32,12 -10.36,19.09 -1.7,5.9 -5.12,11.27 -5.36,17.6 -5.06,6.78 -7.74,14.74 -11.27,22.31 -4.1,8.8 -9.6,16.8 -16.63,23.63 -3.9,-6.52 2.36,-10.85 3.52,-16.28 8.52,-15.39 13.61,-32.34 21.86,-47.85 1.28,-2.41 2.49,-4.88 3.16,-7.53 2.18,-8.61 5.45,-16.67 10.89,-23.84 3.16,-4.17 5.57,-8.89 7.02,-14 0.86,-2.29 1.47,-4.67 2.56,-6.88 5.49,-9.22 12.13,-17.78 16.18,-27.84 1.04,-2.43 2.44,-4.66 3.91,-6.84 0.98,-1.46 2,-3.3 4.31,-1.79 1.06,7.99 -4.4,14.21 -5.84,21.52 -4.6,5.1 -7.28,11.11 -8.44,17.83 z"
         fill="#866ea8"
         id="path350" />
      <path
         d="m 780.16,2131.6 c 4.43,-5.48 6.71,-12.13 8.46,-18.65 3.5,-12.98 5.5,-26.31 6.57,-39.74 3.35,-0.02 3.81,2.19 3.73,4.82 -0.47,8.33 -1.33,16.59 -3,24.8 -2.55,12.55 -6.96,24.27 -14.16,34.88 -0.48,0.71 -1.8,0.86 -2.72,1.27 -0.98,-2.67 0.85,-4.91 1.12,-7.39 z"
         fill="#9782b4"
         id="path351" />
      <path
         d="m 588.09,1958.29 c 7.58,5.69 16.47,2.6 24.68,3.09 4.5,0.27 9.02,1.17 13.6,0.97 16.01,-0.69 32.01,-1.46 47.8,-4.4 2.25,-0.42 4.09,0.34 6.11,0.71 -0.91,5.34 -6.84,3.33 -9.04,5.79 4.76,-1.77 10.06,-1.63 15.4,-1.07 0,0 0.06,0.13 0.06,0.13 0,0.42 0.01,0.83 0.03,1.25 0.17,1.27 -0.6,2.11 -1.62,2.31 -6.1,1.25 -12.22,2.23 -18.41,0.49 -1.14,-2.12 -2.74,-2.1 -4.8,-1.32 -10.34,3.95 -21.09,0.97 -31.63,1.6 -3.29,0.2 -6.58,0.17 -9.9,0.43 -6.76,0.54 -13.46,0.4 -20.41,-0.71 -7.32,-1.18 -14.55,-2.97 -21.76,-4.43 -6.89,-1.4 -13.87,-3.07 -20.66,-5.17 -2.03,-0.63 -2.12,-2.37 -2.2,-4.08 4.75,-5.33 9.94,-2.22 14.49,-0.1 2.88,1.34 5.29,1.77 8.14,0.97 2.96,2.35 6.06,4.32 10.12,3.52 z"
         fill="#937db1"
         id="path352" />
      <path
         d="m 773.36,2061.08 c -1.05,6.37 -4.51,11.81 -8.22,16.63 -4.64,6.03 -7.18,12.65 -8.92,19.73 -1.93,7.85 -7.36,14.03 -9.84,21.64 -2.03,6.23 -4.59,12.32 -7.27,18.31 -2.68,5.99 -5.95,11.68 -10.15,16.78 -0.33,-1.68 -0.84,-3.73 -2.89,-3.3 -6.86,1.44 -13.34,-1.35 -20.05,-1.38 6.19,-8.61 15.82,-13.61 22.64,-21.57 2.02,-2.36 4.41,-4.42 6.26,-7.07 -4.01,0.2 -6.62,2.82 -9.28,5.11 -9.1,7.86 -18.09,15.85 -27.12,23.79 -1.33,-4.88 -3.16,-9.71 -0.51,-14.78 0.43,-0.82 -0.27,-2.58 -1.29,-2.43 -7.19,1.08 -8.1,-4.71 -10.31,-9.11 -0.85,-5.22 4.13,-6.71 6.75,-8.66 17.11,-12.75 33.41,-26.77 51.92,-37.39 8.5,-4.88 14.63,-12.14 22.49,-17.49 2.89,-1.97 4.6,-2.96 5.78,1.19 z"
         fill="#b8a7cf"
         id="path353" />
      <path
         d="m 682.74,2121.12 c -1.18,-3.37 -0.97,-7.95 -6.55,-7.45 0.42,-7.1 5.19,-12.13 8.61,-17.75 8.92,-14.68 18.18,-29.14 29.21,-42.39 7.12,-8.55 17,-13.51 25.57,-20.18 3.6,-1.44 5.99,-5.59 10.61,-4.76 1.73,3.16 1.04,6.37 -1.03,8.77 -4.81,5.58 -5.62,12.63 -6.96,19.21 -1.33,6.51 -3.81,13.2 -1.75,20.12 -0.74,2.11 -2.47,3.36 -4.16,4.59 -17.1,12.47 -33.8,25.45 -50.17,38.86 -0.98,0.8 -1.98,1.6 -3.38,0.99 z"
         fill="#b9a8cf"
         id="path354" />
      <path
         d="m 749.87,2028.92 -9.83,5.21 c -0.87,-0.15 -1.42,-0.63 -1.6,-1.51 2.65,-1.62 5.26,-3.31 7.94,-4.85 5.19,-2.99 5.49,-7.63 0.68,-11.43 4.44,1.06 8.4,1.04 11.48,-3.28 1.11,-1.56 3.39,-1.39 5.61,-1.44 5.47,-0.11 11.16,-0.95 13.26,-7.53 0.32,-1 0.96,-1.92 2.18,-1.91 1.52,0.02 2.21,1.09 2.4,2.4 0.78,5.36 4.82,6.32 9.16,6.89 3.59,-1.6 6.96,-1.17 10.15,1.06 -0.98,1.61 -4.47,2 -2.45,5.06 -4.35,1.46 -4.07,6.65 -7.29,9.02 -2.41,-1.4 -1.28,-5.4 -5.13,-6.42 0.72,5.49 -2.99,8.52 -6.07,11.99 -5.81,6.54 -4.2,14.71 -4.69,22.41 -0.78,2.16 -1.56,4.33 -2.34,6.49 -1.23,-0.3 -1.73,-3.33 -3.38,-1.41 -4.61,5.35 -11.75,7.91 -15.33,14.44 -1.94,3.54 -6.54,2.58 -9.79,4.76 -15.55,10.42 -30.26,21.95 -45.27,33.08 -4.68,3.47 -9.62,6.69 -13.16,11.48 -2.29,2.64 -5.89,3.89 -7.57,7.19 -0.49,0.96 -1.27,1.78 -2.43,0.85 -1.02,-0.82 -0.77,-1.86 -0.05,-2.74 2.1,-2.56 4.25,-5.09 6.38,-7.63 18.23,-15.69 37.56,-29.97 56.9,-44.25 1.08,-4.04 4.75,-5.59 7.68,-7.72 2.14,-1.56 2.68,-2.63 1.93,-5.52 -2.1,-8.06 -2.92,-16.38 1.16,-24.16 1.58,-3.01 -1.96,-7.09 2.27,-9.3 -0.86,-0.59 -2.04,-0.47 -2.81,-1.26 z"
         fill="#9076b5"
         id="path355" />
      <path
         d="m 738.44,2032.62 c 0.53,0.5 1.07,1.01 1.6,1.51 -3.79,4.88 -9.44,7.38 -14.28,10.84 -11.3,8.07 -18.38,19.65 -26.27,30.49 -6.46,8.87 -11.84,18.54 -17.6,27.92 -2.05,3.34 -3.81,6.85 -5.7,10.28 -3.07,5.14 -6.07,10.31 -9.25,15.38 -0.82,1.31 -2,3.2 -3.97,1.89 -1.68,-1.11 -0.58,-2.74 0.23,-3.87 11.22,-15.55 19.09,-33.17 29.99,-48.88 8.3,-11.95 15.52,-25 27.67,-33.78 5.71,-4.13 10.68,-9.43 17.58,-11.8 z"
         fill="#826ca1"
         id="path356" />
      <path
         d="m 708.61,1831.96 c 1.96,7.88 3.92,15.77 5.89,23.65 -0.31,1.66 0.62,3.59 -1.09,4.95 -5.06,-10.55 -6.01,-22.32 -9.77,-33.22 -3.43,-9.96 -4.63,-20.08 -4.51,-30.47 0.02,-1.87 -0.19,-3.92 0.5,-5.55 1.13,-2.68 2.58,-2.5 3.4,0.4 0.55,3.83 -3.11,7.58 -0.23,11.46 3.57,4.12 -0.31,9.29 1.93,13.6 0.08,0.99 0.1,2.01 1.11,2.61 2.85,2.51 1.2,5.83 1.6,8.79 0,1.38 -0.21,2.84 1.17,3.79 z"
         fill="#8975a7"
         id="path357" />
      <path
         d="m 801.32,2012.54 c -3.46,0.33 -6.83,-0.13 -10.15,-1.06 2.71,-3.51 1.09,-8.47 4.12,-11.97 0.97,-1.12 -0.35,-2.33 -1.47,-2.94 -5.05,-2.74 -2.09,-4.65 0.63,-6.62 0.19,-0.09 0.41,-0.15 0.56,-0.29 2.64,-2.6 7.78,-5.33 6.84,-8.2 -1.34,-4.13 -3.7,-9.2 -8.44,-11.13 -4.48,-1.82 -4.32,-3.88 -1.95,-7.32 1.7,-2.47 1.23,-5.78 4.02,-8.2 6.41,-5.54 14.03,-2.84 21.04,-3.84 2.27,-0.32 2.61,2.44 0.49,3.95 -2.55,1.83 -5.35,3.3 -7.92,5.09 -1.95,1.36 -3.48,3.35 -3.36,5.75 0.15,2.93 3.26,1.92 4.99,2.95 -0.81,2.62 -3.7,2.52 -5.24,4.11 -0.79,0.82 -1.25,1.74 -0.52,2.78 0.65,0.92 1.63,1.47 2.7,0.77 4.86,-3.19 9.71,-6.39 14.47,-9.72 0.72,-0.51 1.45,-1.84 1.29,-2.6 -0.34,-1.59 -1.98,-1.14 -3.16,-1.15 -2.08,-0.01 -4.16,0.08 -7.05,0.15 2.89,-4.37 7.72,-4.75 10.72,-7.83 1.74,-1.78 3.69,1.39 3.69,3.4 -0.02,3.92 -0.34,7.88 -3.3,11.09 -2.91,3.15 -6.75,6.07 -3.68,11.33 3.24,5.55 7.7,5.37 12.8,3.2 0.74,-0.31 1.65,-0.2 2.49,-0.28 0.92,2.62 2.28,4.46 5.48,4.72 3.53,0.29 6.72,2.17 10.16,2.94 1.91,0.43 4.25,1.79 5.81,-0.17 1.09,-1.38 1.35,-3.9 0.74,-5.31 -0.88,-2.07 -3.42,-1.63 -5.53,-1.54 -2.76,0.12 -6.04,0.86 -6.64,-3.39 0.99,-0.57 1.2,-1.5 1.19,-2.53 0.11,-0.74 0.53,-1.19 1.25,-1.37 6.19,-2.17 11.48,-0.16 14.43,5.47 0.86,1.64 1.46,3.51 3.44,4.26 3.02,2.03 1.74,4.15 0.13,6.27 -1.13,0.21 -2.51,0.26 -2.8,1.58 -0.21,0.96 0.91,0.89 1.61,1.01 2.39,1.55 5.25,-0.36 7.67,1.02 5.43,-0.5 10.01,2.75 15.18,3.4 3.89,-0.99 6.14,1.88 8.82,3.74 -0.54,1.03 -1.54,1.19 -2.55,1.32 -3.79,0.02 -6.07,-4.18 -10.06,-3.58 -2.88,-1.62 -6.13,0.32 -9.05,-0.93 -0.77,-0.03 -1.55,-0.06 -2.32,-0.09 -5.58,-0.34 -11.23,-0.11 -16.61,-2.04 -2.72,1.64 -6.47,-3.37 -8.7,1.35 -2.41,1.64 -3.25,4.96 -7.48,4.72 -8.66,-0.5 -9.77,-1.24 -9.16,-9.93 -1.13,4.75 -0.88,6.44 1.69,10 1.23,1.7 2.72,3.23 3.68,5.11 2.08,4.07 0.44,6.53 -4.16,6.23 -1.68,-0.11 -3.29,-0.66 -4.94,-0.97 -1.37,-0.26 -2.75,-1.1 -4.51,0.06 1.94,3.42 3.56,7.04 5.79,10.3 2.13,3.12 2.39,5.94 -1.11,8.02 -3.3,1.96 -6.47,0.99 -7.96,-2.33 -1.95,-4.37 -5.23,-6.91 -9.27,-8.89 -3.39,-2.89 -6.19,-6.3 -8.8,-9.88 z"
         fill="#8063aa"
         id="path358" />
      <path
         d="m 866.38,1993.31 c -0.44,-2.08 1.3,-4.21 -0.13,-6.27 0.74,-0.33 1.54,-0.56 2.2,-1 2.38,-1.6 4.05,-5.62 7.66,-3.32 3.07,1.95 0.5,5.04 0.02,7.39 -0.76,3.77 -4.2,3.84 -7.35,3.69 -0.81,-0.04 -1.61,-0.32 -2.41,-0.49 z"
         fill="#8b72af"
         id="path359" />
      <path
         d="m 872.86,1996.91 c -2.57,-0.22 -5.36,1.19 -7.67,-1.02 2.57,0.24 5.34,-1.01 7.67,1.02 z"
         fill="#8b72af"
         id="path360" />
      <path
         d="m 848.39,1977.31 c -0.42,0.46 -0.84,0.91 -1.25,1.37 -1,-0.5 -1.28,-1.4 -1.36,-2.41 0.01,-0.46 0.02,-0.92 0.04,-1.38 0.86,0.81 1.72,1.62 2.58,2.43 z"
         fill="#8b72af"
         id="path361" />
      <path
         d="m 1020.84,1801.95 c -2.12,-1.65 -4.96,-2.35 -6.44,-4.86 4.41,-1.38 5.4,1.77 6.44,4.86 z"
         fill="#cabedc"
         id="path362" />
      <path
         d="m 695.97,2200.24 c -5.49,0.23 -4.04,-3.14 -3.28,-6.23 0.88,-3.57 4.99,-5.06 5.57,-8.79 5.94,-4.84 12.55,-8.8 18.36,-13.94 -3.42,8.64 -13.22,11.78 -17.26,19.85 -1.78,2.79 -3.46,5.63 -3.39,9.11 z"
         fill="#8d79aa"
         id="path363" />
      <path
         d="m 733.78,1983.83 c 6.43,-4.82 13.41,-7.23 21.24,-4.6 -0.08,5.01 -4.04,10.13 -0.64,15.66 0.27,0.43 0.3,1.55 0.23,1.57 -5.84,1.63 -5.15,9.92 -11.36,11.14 0.83,-2.54 2.7,-4.76 2.27,-7.69 -0.36,-2.4 0.28,-5.72 -4.13,-3.18 -3.03,1.75 -3.79,-0.64 -3.53,-2.93 0.48,-4.18 -1.48,-7.17 -4.08,-9.98 z"
         fill="#886db0"
         id="path364" />
      <path
         d="m 713.82,1993.07 c 4.55,-0.05 8.08,-2.33 11.31,-5.22 0.8,-0.05 1.61,-0.1 2.41,-0.15 1.57,0.15 3.91,-0.36 3.56,2.17 -0.35,2.57 -2.43,5.34 -4.79,4.83 -3.65,-0.79 -4.18,1.24 -5.95,3.32 -2.21,2.6 -4.76,6.11 -9.34,4.4 -1.3,-0.48 -2.37,-0.21 -3.26,0.97 -2.8,3.67 -6.28,3.19 -9.92,1.51 2.95,-4.34 9.01,-3.76 12.29,-7.8 1.11,-1.37 2.9,-2.26 3.69,-4.03 z"
         fill="#c2b4d6"
         id="path365" />
      <path
         d="m 794.96,2065.54 c -0.96,-3.3 -1.91,-6.6 -2.87,-9.91 -0.28,-1.33 -1.61,-2.44 -0.36,-5.06 3.22,5.06 5.94,9.29 3.22,14.96 z"
         fill="#9782b4"
         id="path366" />
      <path
         d="m 810.12,2022.41 c 5.38,-0.74 8.03,2.15 9.71,6.85 1.33,3.71 3.78,5.71 7.66,2.75 1.45,-1.11 2.3,-2.6 0.65,-4.25 -3.9,-3.9 -4.42,-9.83 -8.7,-13.51 4.57,-3.3 8.41,0.27 12.41,0.39 1.41,0.04 2.86,1.07 3.95,-0.54 1.14,-1.68 -0.38,-2.66 -1.17,-3.82 -2.79,-4.08 -6.21,-7.56 -6.29,-13.28 -0.07,-4.69 1.82,-5.24 5.82,-5.29 -0.68,1.55 -1.27,2.6 -1.6,3.73 -0.86,2.91 -0.6,7.88 1.58,7.39 3.21,-0.73 8.04,3.91 9.91,-2.18 0.75,-2.44 2.27,-0.88 3.53,-0.56 0.46,0.89 0.93,1.77 1.39,2.66 2.83,1.16 4.3,2.92 2.66,6.05 v 0 c -3.84,2.56 -7.42,-2.24 -11.27,-0.25 2.88,3.7 7.2,6.26 9.34,10.73 1.59,3.32 2.03,-2.33 3.51,-0.52 l -0.04,0.02 c 3,1 5.6,2.64 7.88,4.81 1.16,0.93 1.67,2.64 3.43,2.85 1.59,1.34 2.11,3.26 1.7,5.04 -1.93,8.33 3.2,11.54 9.73,13.83 0.21,0.22 0.41,0.44 0.62,0.66 -0.38,3.39 0.5,6.12 3.93,7.51 1.26,1.3 2.51,2.59 3.77,3.89 1.85,3.15 2.2,6.48 1.12,10.27 -3.43,-0.78 -4.63,-4.58 -8.38,-5.91 2.56,6.62 7.85,11.55 8.65,18.97 -3.34,-0.32 -5.23,-2.44 -5.95,-4.81 -1.76,-5.81 -8.86,-9.9 -4.76,-17.89 1.23,-2.4 -2.79,-0.94 -4.5,-0.43 -3.71,-5.39 -4.85,-12.75 -12.43,-15.21 -1.82,-0.59 -2.99,-1.35 -5.03,-0.57 -3.9,1.51 -10.87,-2.54 -10.44,-6.68 0.59,-5.68 -3.46,-4.8 -6.17,-5.6 -4.26,-1.26 -4.5,2.41 -5.39,5.09 -2.47,2.35 -2.6,5.41 -2.57,8.51 -2.84,1.57 -5.75,1.01 -8.66,0.29 0.02,-0.37 -0.01,-0.73 -0.11,-1.09 -7.1,-1.74 -5.7,-8.59 -7.86,-13.27 -0.94,-2.03 -1.1,-4.43 -1.61,-6.66 z"
         fill="#704f9c"
         id="path367" />
      <path
         d="m 856.27,1998.74 c 5.59,0.24 11.37,-1.06 16.61,2.04 -1.83,0.23 -2.17,1.01 -0.78,2.29 6.62,6.07 13.71,11.57 20.65,17.26 11.07,9.06 24.31,14.56 35.66,23.05 2.01,1.5 2.05,1.84 1.02,4.03 -10.4,-4.64 -19.63,-11.21 -29.28,-17.14 -10.13,-6.23 -19.05,-13.94 -28.35,-21.1 -5.02,-3.86 -10.16,-7.23 -15.53,-10.43 z"
         fill="#8b72af"
         id="path368" />
      <path
         d="m 881.4,2046.06 c -1.63,-0.03 -3.27,-0.05 -4.9,-0.08 0,0 -0.04,0.04 -0.04,0.04 -5.69,-2.47 -10.85,-12.62 -9.42,-18.54 4.84,-2.53 6.34,3.08 9.78,4.3 8.42,2.98 8.82,5.78 4.58,14.28 z"
         fill="#d1c6e1"
         id="path369" />
      <path
         d="m 853.19,2018.76 c -2.3,1.01 -0.08,3.44 -2.07,5.47 -3.19,-6.72 -8.66,-11.12 -13.56,-16.05 -0.61,-0.62 -1.06,-1.54 -0.26,-2.14 0.53,-0.4 1.55,-0.44 2.27,-0.27 4.03,0.95 8.03,2 12.04,3.02 -0.66,4.41 3.92,3.24 6.12,5.03 -1.95,1.7 -4.86,1.97 -4.54,4.93 z"
         fill="#8063aa"
         id="path370" />
      <path
         d="m 867.05,2027.49 c 0.74,7.4 5.43,12.79 9.42,18.54 -9.02,-0.44 -12.6,-4.55 -11.78,-13.31 0.19,-2.07 -0.13,-4.18 -0.22,-6.27 0.86,0.35 1.72,0.7 2.58,1.04 z"
         fill="#8c70b3"
         id="path371" />
      <path
         d="m 861.03,2023.59 c -4.12,0.84 -5.23,-3.25 -7.88,-4.81 3.94,-0.55 8.6,-2.27 7.88,4.81 z"
         fill="#8063aa"
         id="path372" />
      <path
         d="m 851.61,2008.8 c 0.39,-2.58 -1.36,-4.22 -2.66,-6.05 5.8,-0.14 5.85,2.25 2.66,6.05 z"
         fill="#8063aa"
         id="path373" />
      <path
         d="m 875.2,2000.86 c 3.03,0.18 6.25,-1.46 9.05,0.93 -3.01,-0.35 -6.22,1.21 -9.05,-0.93 z"
         fill="#8b72af"
         id="path374" />
      <path
         d="m 819.69,2043.43 c 2.89,-0.1 5.77,-0.19 8.66,-0.29 -2.81,2.52 -5.7,2.44 -8.66,0.29 z"
         fill="#a690c4"
         id="path375" />
      <path
         d="m 896.37,1928.24 c 0.09,-1.45 0.08,-2.92 0.31,-4.35 0.19,-1.16 0.07,-2.07 -1.05,-2.6 -1.29,-0.6 -2.39,-0.22 -3.41,0.71 -6.05,5.55 -10.48,13.11 -19.53,14.97 -1.43,0.29 -2.13,3.36 -3.52,4.82 -1.43,1.5 -3.55,1.71 -5.12,0.33 -1.54,-1.35 0.88,-1.85 1.1,-2.9 4.64,-2.23 7.96,-6.47 13.02,-8.22 1.86,-0.64 4.17,-3.14 2.45,-5.58 -1.61,-2.28 1.71,-7.8 -4.51,-7.02 -0.91,0.11 -1.69,-0.38 -1.82,-1.31 -0.19,-1.36 0.95,-1.7 1.92,-2.01 12.24,-3.8 23.43,-10.41 35.92,-13.55 3.17,-1.99 6.76,-1.18 10.17,-1.54 0.47,-1.42 1.16,-2.86 2.62,-3.27 9.12,-2.59 18.24,-5.23 27.89,-4.55 3.08,4.48 -0.62,6.61 -3.46,8.17 -5.86,3.22 -11.33,6.9 -16.61,10.99 -4.71,3.64 -11,3.14 -16.36,5.67 -3.9,1.85 -7.65,3.56 -11.17,6.14 -2.71,1.99 -4.88,5.23 -8.86,5.11 z"
         fill="#987fbb"
         id="path376" />
      <path
         d="m 845.94,1981.21 c 2.07,2.07 4.33,2.9 7.31,1.8 3.77,-1.39 5.03,1.04 6.1,5.04 2.38,8.91 -3.34,6.23 -7.19,5.45 -4.84,-0.99 -9.46,-3.04 -14.29,-4.14 -3.99,-0.91 -1.24,-3.65 -1.95,-5.4 2.61,-3.57 5.89,-4.71 10.02,-2.76 z"
         fill="#8b72af"
         id="path377" />
      <path
         d="m 782.49,1963.77 c 1.86,-3.38 3.67,-6.79 5.63,-10.11 0.75,-1.27 1.9,-1.47 2.97,-0.18 -3.46,2.93 -2.68,9.41 -8.6,10.29 z"
         fill="#7351a0"
         id="path378" />
      <path
         d="m 776.22,1965.17 c 1.68,-0.04 3.36,-0.08 5.04,-0.12 -1.6,3.28 -3.32,1.84 -5.04,0.12 z"
         fill="#7351a0"
         id="path379" />
      <path
         d="m 775.19,1869.44 c -6.84,-6.59 -13.68,-13.19 -20.52,-19.78 -1.84,-0.15 -3.02,-1.37 -4.06,-2.68 -7.96,-9.95 -16.62,-19.19 -26.61,-27.14 -1.47,-1.17 -2.75,-2.59 -3.04,-4.59 -2.14,-2.4 -8.12,-2.52 -6.28,-6.66 0.82,-1.85 5.89,1.37 8.4,3.24 7.67,5.69 14.38,12.42 20.7,19.6 5.88,6.68 12.29,12.89 18.47,19.3 6.43,2.7 10.04,8.34 14.1,13.51 -0.39,1.73 -0.77,3.46 -1.16,5.18 z"
         fill="#a896c0"
         id="path380" />
      <path
         d="m 776.36,1864.26 c -5.35,-3.83 -9.55,-8.84 -14.1,-13.51 3.23,-4.74 2.08,-10.93 0.35,-14.48 -2.37,-4.86 -0.39,-8.88 -1.03,-13.17 4.23,8.83 8.7,17.56 12.6,26.54 1.98,4.54 0.03,9.94 2.18,14.62 z"
         fill="#c3b4d7"
         id="path381" />
      <path
         d="m 896.37,1928.24 c 3.92,-4.3 9.13,-7.02 13.36,-11.02 2.77,-2.63 8.01,-3.66 11.2,-3.97 9.22,-0.9 14.71,-6.94 21.53,-11.39 4.03,-2.63 9.72,-2.96 11.18,-8.81 0.34,-1.14 0.99,-1.82 2.28,-1.54 2.3,0.42 4.47,0.1 6.44,-1.22 2.73,-1.7 6.07,0.29 8.8,-1.45 0.43,0.01 0.85,0.02 1.28,0.03 0.92,5.58 2.56,11.07 5.95,15.52 2.09,2.75 5.27,7.96 9.06,0.77 1.39,-2.64 4.48,-1.47 6.88,-1.65 -11.45,14.11 -24.6,26.12 -42.13,32.12 -10.79,3.69 -22.21,4.21 -33.41,3.27 -10.13,-0.85 -19.9,-0.3 -29.64,2.3 -4.48,0.81 -4.76,-1.66 -3.91,-5.01 v 0 c 2.12,-2.06 3.8,-4.51 5.99,-6.49 1.34,-1.8 3.45,-0.87 5.14,-1.44 z"
         fill="#c5b8d9"
         id="path382" />
      <path
         d="m 955.92,1891.51 c -0.76,0.51 -1.52,1.02 -2.28,1.54 -10.61,1.57 -21.55,1.63 -31.33,6.94 -1.28,-1.42 -4.17,-3.65 -0.45,-4.42 9.77,-2.03 19.13,-6.05 29.28,-6.27 2,-0.04 3.79,0.19 4.78,2.22 z"
         fill="#7453a0"
         id="path383" />
      <path
         d="m 971.16,1888.83 c -2.61,2.44 -5.87,0.95 -8.8,1.45 2.61,-2.43 5.87,-0.94 8.8,-1.45 z"
         fill="#b09ec8"
         id="path384" />
      <path
         d="m 885.23,1936.18 c 0.47,2.32 0.99,4.6 3.91,5.01 -1.75,1.77 -3.49,1.83 -5.06,-0.18 -1.59,-2.03 -1.19,-3.68 1.15,-4.83 z"
         fill="#987fbb"
         id="path385" />
      <path
         d="m 891.23,1929.69 c -1.39,2.72 -2.77,5.45 -5.99,6.49 -0.61,-4.57 3.88,-4.43 5.99,-6.49 z"
         fill="#987fbb"
         id="path386" />
      <path
         d="m 720.96,1815.26 c 12.71,10.03 23.89,21.55 33.71,34.41 0.42,4.08 -2.17,6.03 -5.52,6.18 -3.01,0.13 -5.11,-1.63 -6.07,-5.16 -1.12,-4.13 -5.95,-7.51 -0.78,-12.89 -4.04,0.06 -7.24,2.01 -8.36,-3.85 -0.57,-2.96 -7.56,-6.53 -12.36,-5.16 -3.33,0.96 -4,-0.33 -5.33,-2.14 -0.62,-4.7 -2.41,-9.88 4.7,-11.39 z"
         fill="#e6e0ef"
         id="path387" />
      <path
         d="m 704.73,1816.76 c -1.73,-4.38 -2.74,-8.86 -1.92,-13.6 1.64,-0.04 3.38,-0.43 4.9,-0.03 2.1,0.56 3.37,2.55 3.81,4.47 0.47,2.08 -1.59,2.56 -3.19,2.99 -3.24,0.88 -4.02,3.16 -3.6,6.16 z"
         fill="#cabddd"
         id="path388" />
      <path
         d="m 707.44,1828.16 c -2.21,-2.62 -0.84,-5.9 -1.6,-8.79 q 6.99,2.6 1.6,8.79 z"
         fill="#cabddd"
         id="path389" />
      <path
         d="m 659.46,1983.06 c -9.68,2.9 -18.3,9.01 -28.76,9.55 -4.87,-4.73 1.64,-10.16 -0.83,-15.09 -0.04,-0.08 1.55,-1.39 1.91,-1.21 5.23,2.67 11.48,-1.04 16.55,2.82 3.23,2.46 7.35,2.83 11.14,3.93 z"
         fill="#cabedc"
         id="path390" />
      <path
         d="m 666.7,1967.57 c 6.48,-2.32 13.68,0.46 20.03,-2.81 2.41,-0.13 5.09,0.1 4.78,3.17 -0.28,2.79 0.53,7.06 -4.65,6.78 1.21,-5.69 -1.35,-5 -5.51,-3.89 -5.15,1.37 -10.6,1.55 -14.65,-3.24 z"
         fill="#b9a9d1"
         id="path391" />
      <path
         d="m 686.64,1963.39 c -5.15,2.62 -10.7,1.02 -16.46,1.77 1.98,-4.9 7.69,-3.15 10.1,-6.49 1.25,-0.06 2.5,-0.13 3.75,-0.19 1.1,1.51 5.28,1.39 2.61,4.91 z"
         fill="#7351a0"
         id="path392" />
      <path
         d="m 775.69,2054.59 c -0.88,0 -1.7,-0.13 -1.68,-1.26 0.09,-9.61 -0.26,-19.44 8.53,-26.1 1.71,-1.29 2.98,-1.97 1.98,-4.33 -0.83,-1.95 -1.57,-4.17 1.59,-4.93 3.1,-0.75 4.08,1.37 4.68,3.72 0.41,1.6 0.54,3.28 0.79,4.92 0.67,5.21 -3.76,8.21 -5.63,12.29 -2.57,5.62 -6.76,10.49 -10.25,15.69 z"
         fill="#a690c4"
         id="path393" />
      <path
         d="m 749.87,2028.92 c 1.01,-0.01 3,0.03 2.8,0.41 -2.31,4.22 0.84,8.82 -1.78,13.68 -1.58,2.93 -3.98,8.63 -1.08,13.86 1.58,2.85 -0.5,7.36 2.95,10.01 -4.56,3.48 -8.83,6.74 -13.11,10.01 -1.01,-5.07 -2.5,-9.52 0.19,-15.3 1.61,-3.46 2.4,-8.79 2.87,-13.36 0.45,-4.38 1.99,-8.12 5.01,-11.18 2.35,-2.38 1.98,-5.28 2.17,-8.12 z"
         fill="#a48ec3"
         id="path394" />
    </g>
    <g
       id="g403">
      <g
         id="g396">
        <path
           d="m 779.58,1952.84 c -9.23,-4.47 -19.28,-5.42 -29.21,-5.4 -4.78,0.01 -9.83,0.79 -14.72,1.51 -1.77,0.26 -3.45,1.21 -5.21,1.39 -2,0.2 -5.14,1.64 -5.78,-0.74 -0.67,-2.51 2.66,-3.06 4.61,-4.22 3.94,-2.34 8.51,-1.95 12.81,-3 -0.6,-2.41 -2.85,-1.83 -3.84,-3.12 -1.78,-2.33 -2.5,-5 0.22,-6.52 2.69,-1.51 6.24,-2.98 9.06,-2.47 5.69,1.03 11.31,-0.34 17.09,1.1 9.55,2.37 18.32,5.61 25.06,13.01 1.92,2.1 2.59,3.3 4.67,-0.32 3.61,-6.3 3.56,-13.48 5.95,-20.06 1.28,-3.51 -3.42,-6.66 -3.45,-11 -0.03,-4.52 -3.61,-6.82 -8.07,-7.15 -2.23,-0.17 -3.54,-1.3 -3.41,-3.34 0.13,-2.06 1.84,-3.13 3.81,-3.14 2.65,-0.02 5.4,-0.98 7.93,0.76 3.29,2.26 3.3,-0.27 3.04,-2.36 -0.42,-3.41 -2.98,-5.55 -5.26,-7.78 -0.81,-0.79 -1.79,-1.65 -1.1,-2.73 0.82,-1.29 1.97,-0.23 2.85,0.2 6.83,3.35 11.27,7.74 11.27,16.45 0,8.26 -0.14,16.61 1.2,24.95 0.87,5.39 0.61,11.52 -3.05,16.51 -2.87,-0.45 -0.91,-3.33 -2.98,-4.58 -0.76,4.24 -3.61,7.39 -5.49,11.42 6.23,-0.47 12.03,-0.99 17.85,-1.32 2.2,-0.13 4.55,-0.8 4.75,-2.83 0.75,-7.41 7.29,-12.03 8.6,-19.43 0.78,-4.41 1.82,-8.26 -0.2,-12.37 -0.75,-1.53 -1.43,-3.1 -0.19,-4.56 1.36,-1.59 3.34,-1.47 5.05,-0.84 10.15,3.74 18.84,8.78 17.78,22.31 -0.21,2.62 1.33,2.62 3.57,2.28 7.71,-1.18 14.17,-5.05 20.65,-8.95 1.5,-0.9 3.05,-2.89 4.68,-0.97 2.04,2.39 5.14,4.31 5.27,7.85 0.1,2.75 -2.48,2.56 -4.33,3.12 -3.98,1.22 -7.53,3.18 -11.02,5.55 -7.06,4.78 -15.29,7.15 -23.18,10.18 -2.45,0.94 -4.87,1.98 -8.66,3.54 15.62,3.8 30.8,0.93 44.53,7.3 -9.73,7.83 -21.28,3.73 -33.24,6.24 4.51,2.15 7.8,3.39 10.74,5.19 6.11,3.76 10.74,8.73 12.99,15.87 1.41,4.47 -0.88,6.79 -3.8,9.12 -2.17,1.73 -3.71,0.66 -3.67,-1.57 0.08,-3.79 -2.12,-4.97 -4.79,-7.17 -9.19,-7.56 -21.27,-8.57 -30.99,-14.89 -3.83,-2.49 -9.16,-3.28 -14.17,-1.96 0.88,4.34 3.32,5.6 7.7,5.34 5.7,-0.34 9.78,1.98 13.36,7.35 1.64,2.46 4.69,6.67 9.38,7.45 3.64,0.61 6.85,2.77 9.38,6.16 -2.61,1.39 -4.07,-0.25 -5.66,-1.18 -1.1,-0.64 -2.25,-1.67 -3.38,-0.52 -1.18,1.19 0.01,2.45 0.64,3.39 3.71,5.53 7.42,11.08 11.4,16.42 1.76,2.36 3.05,4.91 4.44,7.44 0.93,1.7 1.36,3.58 -0.43,4.9 -1.71,1.26 -3.71,0.81 -4.8,-0.86 -1.77,-2.71 -3.69,-2.71 -6.39,-1.54 -1.49,0.64 -2.81,-0.02 -3.87,-1.86 -8.22,-14.24 -18.13,-27.25 -29.19,-39.4 -0.83,-0.91 -1.35,-2.33 -2.85,-2.27 -1.53,0.06 -3.19,-1.91 -4.48,-0.17 -1,1.36 0.22,2.92 1.09,3.92 4.57,5.25 2.44,11.72 3.08,17.55 1.02,9.31 2.29,18.65 1.99,28.09 -0.13,4.09 -0.28,8.19 2.32,11.96 2.21,3.19 -0.53,6.14 -1.56,9.09 -0.31,0.89 -1.42,1.1 -2.36,0.78 -4.64,-1.57 -10.05,-9.48 -9.85,-14.37 0.03,-0.72 -0.21,-1.8 0.17,-2.11 5.41,-4.38 1,-9.74 1.5,-14.59 0.14,-1.39 -0.48,-3.07 -1.91,-3.64 -1.69,-0.69 -2.41,1.14 -3.52,1.96 -2.31,1.71 -2.57,5.93 -6.76,5.39 -1.93,-0.25 -4.39,0.4 -4.89,-2.24 -0.51,-2.68 0.46,-5.1 3.22,-6.16 3.26,-1.25 6.23,-2.81 8.56,-5.52 3.74,-4.34 5.56,-17.33 2.8,-22.15 -1.36,-2.37 -3.21,-5.29 -5.97,-1.46 -5.84,8.1 -13.94,13.89 -21.6,19.81 -3.35,2.59 -7.71,6.54 -13.54,5.51 -3.47,-0.62 -4.42,-2.05 -2.37,-4.51 3.31,-4 7.85,-6.64 12.57,-8.64 9.91,-4.2 18.12,-10.55 24.97,-18.75 1.36,-1.63 0.48,-2.49 -1.32,-3.02 -3.13,-0.91 -6.84,-0.75 -9.42,-2.03 -7.66,-3.8 -14.91,-2.44 -22.43,-0.37 -1.52,0.42 -3.2,0.24 -4.73,0.97 -3.83,1.84 -6.77,2.46 -9.93,-2.17 -3.7,-5.41 -4.44,-6.06 1.56,-8.82 5.37,-2.47 11.01,-4.66 16.77,-5.84 6.61,-1.36 12.73,-3.2 17.39,-8.25 2.75,-2.98 -0.53,-5.19 -2,-6.39 -4.76,-3.88 -10.02,-7.38 -16.2,-8.47 -3.82,-0.67 -7.6,-1.74 -11.35,-2.5 -5.11,-1.03 -8.48,1.22 -12.96,2.72 2.13,2.32 4.37,1.39 6.35,1.36 8.85,-0.12 17.02,2.18 24.64,6.61 1.92,1.12 3.79,2.18 4.2,4.63 l 0.03,-0.03 z m 50.08,-9.65 c 5.18,-1.64 11.71,0.33 14.18,-6.78 1.71,-4.93 -2.19,-16.16 -6.91,-18.2 -1.07,-0.46 -2.49,-0.53 -2.23,1.08 1.37,8.55 -1.5,16.13 -5.05,23.9 z m -63.36,28.05 c 5.47,1.14 9.94,-0.98 14.58,-1.07 1.27,-0.03 3.42,0.29 3.06,-1.89 -0.32,-1.93 -2.53,-1.59 -3.58,-1.05 -4.2,2.17 -9.04,1.87 -14.06,4.01 z m -2.21,0.95 c -1.69,-0.69 -3.14,-0.52 -4.16,1.03 -0.47,0.72 -0.09,1.43 0.74,1.52 1.84,0.2 2.89,-0.81 3.42,-2.55 z"
           fill="#ece6ba"
           id="path395" />
        <path
           d="m 779.56,1952.87 c 0.4,0.16 0.8,0.32 1.19,0.47 -0.13,0.04 -0.32,0.17 -0.39,0.12 -0.28,-0.18 -0.52,-0.41 -0.78,-0.63 0,0 -0.03,0.03 -0.03,0.03 z"
           fill="#ece6ba"
           id="path396" />
      </g>
      <g
         id="g402">
        <path
           d="m 826.63,1968.26 c 3.7,2.13 10.22,2.64 17.14,1.77 -2.04,-1.87 -4.25,-3.65 -3.55,-6.99 -1.23,-1.5 -3.18,-1.56 -5.84,-2.63 2.1,0.53 3.17,0.65 4.1,1.17 1.26,0.7 2.1,1.86 3.05,2.89 1.57,0.7 3.16,0.64 4.74,0.02 8.01,-6.56 8.81,-10.51 2.63,-12.95 -5.67,-2.24 -22.93,2.12 -28.19,6.94 0.13,3.94 1.82,7.41 5.94,9.78 z"
           fill="#9e99ad"
           id="path397" />
        <path
           d="m 853.46,1966.84 c -1.75,-1.96 -4.86,-1.33 -6.52,-3.42 -0.82,-0.32 -1.59,-0.23 -2.3,0.3 -1.35,-0.08 -2.7,-0.16 -4.05,-0.23 -1.19,2.32 -5.64,1.33 -5.3,5.93 l 7.07,0.79 c 3.7,-0.37 7.57,-1.16 11.22,-2.32 0.05,-0.32 0.03,-0.66 -0.11,-1.04 z"
           fill="#d0cedc"
           id="path398" />
        <path
           d="m 823.03,1948.57 c -0.18,1.4 -0.36,2.79 -0.54,4.19 9.16,2.97 17.75,-1.83 26.69,-1.95 4.72,-0.06 9.79,-0.84 8.28,6.69 0.8,1.44 1.31,3.01 0.71,4.22 -2.4,4.79 -20.12,-0.34 -20.64,1.45 -0.21,0.72 2.42,2.38 10.66,5.78 0.51,0.01 1.03,0 1.56,0 11.88,-2.84 22.89,-9.6 20.9,-19.32 -3.01,-14.68 -28.36,-12 -40.1,-7.5 -1.62,1.15 -3.25,2.28 -5.03,3.11 -1.22,0.82 -2.13,1.86 -2.47,3.34 z"
           fill="#d7d4e8"
           id="path399" />
        <path
           d="m 820.96,1960.71 c 0.12,0.17 0.21,0.33 0.34,0.49 2.88,-3.87 23.31,-9.26 27.64,-7.45 2.89,1.21 2.75,2.85 0.99,4.78 -1.67,1.82 -3.52,3.46 -5.3,5.19 0.76,0.14 1.51,0.28 2.27,0.42 4.91,0.79 9.61,1.09 11.42,-5.08 0.75,-2.89 5.76,-4.02 3.64,-7.96 -2.01,-3.73 -6.13,-3.72 -9.43,-3.29 -10.06,1.31 -20.04,3.25 -30.04,4.95 -0.52,0.38 -0.95,0.78 -1.32,1.18 -0.52,2.37 -0.63,4.67 -0.2,6.77 z"
           fill="#bcbad0"
           id="path400" />
        <path
           d="m 840.59,1963.47 c -1.03,-0.1 -2.06,-0.12 -3.07,-0.3 -3.01,-0.54 -6.76,3.56 -9.02,-1.27 -0.62,-1.32 0.34,-3.14 1.73,-3.18 4.14,-0.14 9.37,-2.11 10.36,4.77 0,0 0.01,-0.01 0.01,-0.01 z"
           fill="#8e8aa6"
           id="path401" />
        <path
           d="m 846.9,1964.14 c 3.81,-1.69 7.61,-3.39 11.42,-5.08 5.24,1.03 2.87,3.64 1.26,6.09 -2.15,0.64 -4.3,1.29 -6.45,1.94 -1.08,-3.08 -7.58,5.27 -6.23,-2.95 z"
           fill="#ebeaf1"
           id="path402" />
      </g>
    </g>
  </g>
</svg>
