<?xml version="1.0" encoding="UTF-8" standalone="no"?>
<!-- Created with Inkscape (http://www.inkscape.org/) -->

<svg
   width="172.47382mm"
   height="799.2525mm"
   viewBox="0 0 172.47382 799.25251"
   version="1.1"
   id="svg1"
   inkscape:version="1.4.2 (ebf0e940d0, 2025-05-08)"
   sodipodi:docname="LeafPath.svg"
   inkscape:export-filename="LeafPath.svg"
   inkscape:export-xdpi="172.41212"
   inkscape:export-ydpi="172.41212"
   xmlns:inkscape="http://www.inkscape.org/namespaces/inkscape"
   xmlns:sodipodi="http://sodipodi.sourceforge.net/DTD/sodipodi-0.dtd"
   xmlns="http://www.w3.org/2000/svg"
   xmlns:svg="http://www.w3.org/2000/svg">
  <sodipodi:namedview
     id="namedview1"
     pagecolor="#ffffff"
     bordercolor="#000000"
     borderopacity="0.25"
     inkscape:showpageshadow="2"
     inkscape:pageopacity="0.0"
     inkscape:pagecheckerboard="0"
     inkscape:deskcolor="#d1d1d1"
     inkscape:document-units="mm"
     inkscape:zoom="0.71179153"
     inkscape:cx="66.733022"
     inkscape:cy="-41.444719"
     inkscape:window-width="1920"
     inkscape:window-height="1008"
     inkscape:window-x="0"
     inkscape:window-y="0"
     inkscape:window-maximized="1"
     inkscape:current-layer="layer1"
     showguides="false" />
  <defs
     id="defs1" />
  <g
     inkscape:label="Calque 1"
     inkscape:groupmode="layer"
     id="layer1"
     transform="translate(-1.899206,-3.32754)">
    <g
       id="leafPath"
       transform="matrix(0.26458333,0,0,0.26458333,-42.907194,41.078898)"
       inkscape:label="leafPath">
      <path
         id="LeafPath"
         d="m 442.22,1.07 c -3.63,14.59 -6.87,29.28 -9.73,44.04 -2.84,14.69 -5.29,29.45 -7.37,44.26 -2.08,14.81 -3.78,29.67 -5.1,44.57 -1.32,14.89 -2.27,29.82 -2.85,44.76 -0.58,14.94 -0.78,29.9 -0.61,44.86 0.17,15.02 0.7,30.04 1.6,45.04 0.9,15 2.16,29.85 3.78,44.73 1.62,14.88 3.6,29.73 5.93,44.52 2.34,14.85 5.04,29.65 8.08,44.38 3.04,14.73 6.42,29.25 10.16,43.75 3.73,14.5 7.81,28.91 12.23,43.22 4.44,14.37 9.22,28.63 14.35,42.76 5.13,14.13 10.54,28.02 16.31,41.83 5.77,13.81 11.86,27.47 18.29,40.98 6.43,13.51 13.18,26.86 20.26,40.03 7.11,13.23 14.55,26.28 22.31,39.14 7.73,12.8 15.77,25.41 24.13,37.81 8.36,12.4 17.04,24.58 26.02,36.54 8.98,11.96 18.28,23.69 27.87,35.17 9.59,11.48 19.59,22.76 29.77,33.79 10.2,11.06 20.58,21.94 30.93,32.85 10.41,10.97 20.81,21.96 30.99,33.15 10.14,11.16 20.07,22.52 29.54,34.25 9.27,11.49 18.1,23.36 26.18,35.72 8.08,12.36 15.18,24.81 21.33,37.97 6.17,13.21 11.22,26.95 14.87,41.07 3.63,14.07 5.85,28.48 6.53,42.99 0.66,14.09 -0.09,28.25 -2.19,42.19 -2.1,13.93 -5.5,27.66 -10,41.01 -4.58,13.61 -10.29,26.82 -16.9,39.56 -6.61,12.74 -14.36,25.45 -22.7,37.42 -8.51,12.21 -17.77,23.9 -27.62,35.06 -9.85,11.16 -20.52,22.07 -31.57,32.31 -11.11,10.31 -22.7,20.1 -34.72,29.33 -11.82,9.08 -24.05,17.65 -36.62,25.66 -13.38,8.53 -27.14,16.48 -41.03,24.13 -13.89,7.65 -28.73,15.36 -43.29,22.64 -14.53,7.27 -29.16,14.33 -43.83,21.32 -14.67,6.99 -29.36,13.92 -44.02,20.94 -14.66,7.02 -29.34,14.14 -43.87,21.49 -14.41,7.29 -28.71,14.8 -42.8,22.69 -14.04,7.86 -27.87,16.09 -41.39,24.83 -13.52,8.74 -26.71,17.97 -39.45,27.8 -12.6,9.72 -24.76,20.01 -36.27,31 -11.51,10.99 -22.11,22.37 -31.99,34.59 -9.88,12.22 -18.8,24.99 -26.62,38.52 -7.82,13.53 -14.45,27.69 -19.63,42.4 -5.18,14.71 -8.77,30.17 -10.65,45.75 -1.88,15.58 -2.04,31.17 -0.3,46.66 1.74,15.49 5.28,30.5 10.93,44.89 5.07,12.92 11.78,25.13 20,36.31 6.29,8.56 13.38,16.52 21.12,23.8 7.74,7.28 16.03,13.8 24.75,19.77 8.72,5.97 18.11,11.47 27.62,16.4 9.83,5.1 19.92,9.67 30.16,13.9 10.4,4.3 20.95,8.23 31.58,11.93 10.8,3.77 21.67,7.31 32.57,10.78 10.9,3.47 21.94,6.88 32.9,10.34 10.96,3.46 21.86,6.96 32.72,10.67 10.62,3.63 21.17,7.45 31.58,11.63 10.11,4.05 20.09,8.44 29.83,13.33 9.74,4.89 18.82,10.03 27.71,15.9 8.63,5.7 16.86,11.99 24.5,18.96 7.63,6.96 14.67,14.59 20.86,22.86 7.15,9.56 13.25,19.93 18.03,30.86 6.18,14.13 10.1,29.25 11.93,44.55 1.85,15.46 1.65,31.13 -0.12,46.59 -1.82,15.82 -5.33,31.44 -10.04,46.65 -4.71,15.21 -10.83,30.41 -17.91,44.9 -7.27,14.87 -15.69,29.15 -24.63,43.07 -8.94,13.92 -18.98,28.21 -29,41.94 -10.04,13.76 -20.3,27.35 -30.43,41.04 -10.16,13.74 -20.2,27.57 -29.73,41.76 -9.33,13.89 -18.16,28.11 -26.13,42.83 -7.97,14.72 -14.43,28.52 -20.51,43.3 -6.11,14.85 -11.43,30.02 -15.97,45.42 -4.52,15.34 -8.25,30.92 -11.18,46.64 -2.94,15.72 -5.09,31.59 -6.45,47.52 -1.36,15.93 -1.92,32.09 -1.66,48.15 0.26,15.99 1.33,31.96 3.21,47.84 1.88,15.88 4.57,31.64 8.09,47.23 3.26,14.44 7.23,28.72 11.9,42.77 0.61,1.82 3.5,1.04 2.89,-0.8 -5.05,-15.18 -9.27,-30.62 -12.67,-46.25 -3.4,-15.63 -5.97,-31.43 -7.71,-47.33 -1.74,-15.9 -2.66,-32.02 -2.77,-48.08 -0.11,-16.06 0.6,-32 2.11,-47.92 1.51,-15.92 3.82,-31.79 6.94,-47.48 3.12,-15.69 7.01,-31.22 11.7,-46.51 4.69,-15.29 10.15,-30.35 16.41,-45.07 6.26,-14.72 13.35,-29.22 21.19,-43.24 8.22,-14.72 17.3,-28.94 26.82,-42.85 9.61,-14.05 19.68,-27.77 29.83,-41.43 10.16,-13.67 20.4,-27.27 30.37,-41.08 9.95,-13.77 19.64,-27.75 28.67,-42.15 8.76,-13.97 16.92,-28.33 23.91,-43.29 6.79,-14.54 12.56,-29.56 17.05,-44.97 4.44,-15.25 7.61,-30.89 9.13,-46.71 1.52,-15.82 1.34,-31.09 -0.83,-46.49 -2.15,-15.29 -6.4,-30.25 -12.82,-44.3 -4.85,-10.61 -10.94,-20.67 -18.03,-29.94 -6.32,-8.27 -13.41,-15.91 -21.14,-22.88 -7.73,-6.97 -16.06,-13.29 -24.77,-19 -8.71,-5.71 -18.14,-11.04 -27.63,-15.79 -9.81,-4.9 -19.86,-9.31 -30.03,-13.39 -10.41,-4.18 -20.96,-8 -31.58,-11.63 -10.62,-3.63 -21.77,-7.22 -32.71,-10.67 -10.96,-3.46 -21.95,-6.86 -32.9,-10.34 -10.9,-3.46 -21.78,-7 -32.57,-10.77 -10.79,-3.77 -21.18,-7.63 -31.58,-11.93 -10.4,-4.3 -20.11,-8.73 -29.83,-13.79 -9.72,-5.06 -18.76,-10.37 -27.6,-16.43 -8.7,-5.96 -16.97,-12.54 -24.62,-19.8 -7.65,-7.26 -14.69,-15.21 -20.86,-23.78 -8.21,-11.39 -14.89,-23.83 -19.8,-36.98 -5.4,-14.48 -8.76,-29.71 -10.19,-45.09 -1.45,-15.53 -1.02,-31.25 1.15,-46.69 2.17,-15.44 6.1,-30.82 11.6,-45.52 5.47,-14.62 12.42,-28.67 20.49,-42.02 8.09,-13.4 17.31,-26.1 27.37,-38.1 10.06,-12 21.04,-23.39 32.57,-34.07 11.68,-10.82 23.98,-20.96 36.71,-30.51 12.73,-9.55 26.28,-18.81 39.94,-27.43 13.66,-8.62 27.53,-16.7 41.63,-24.46 14.16,-7.79 28.51,-15.22 42.96,-22.45 14.45,-7.23 29.12,-14.29 43.76,-21.27 14.64,-6.98 29.37,-13.92 44.03,-20.94 14.72,-7.04 29.39,-14.17 43.95,-21.54 14.46,-7.32 28.81,-14.87 42.95,-22.79 13.66,-7.66 27.18,-15.61 40.28,-24.2 12.5,-8.19 24.64,-16.93 36.38,-26.18 11.74,-9.25 23.3,-19.21 34.24,-29.6 10.94,-10.39 21.33,-21.25 31.14,-32.67 9.81,-11.42 18.85,-23.15 27.21,-35.5 8.17,-12.06 15.61,-24.62 22.11,-37.66 6.37,-12.77 11.86,-26 16.21,-39.59 4.3,-13.41 7.48,-27.17 9.36,-41.13 1.89,-14.02 2.48,-28.21 1.62,-42.33 -0.86,-14.12 -3.28,-28.97 -7.06,-43.03 -3.79,-14.08 -8.98,-27.76 -15.23,-40.93 -6.25,-13.17 -13.53,-25.75 -21.53,-37.88 -8.14,-12.33 -17.01,-24.17 -26.3,-35.65 -9.45,-11.67 -19.34,-22.98 -29.45,-34.08 -10.18,-11.19 -20.58,-22.17 -31,-33.14 -10.42,-10.97 -20.82,-21.89 -31.05,-32.99 -10.13,-10.99 -20.03,-22.19 -29.61,-33.67 -9.59,-11.49 -18.88,-23.23 -27.85,-35.2 -8.97,-11.97 -17.62,-24.17 -25.97,-36.58 -8.35,-12.41 -16.37,-25.03 -24.07,-37.84 -7.74,-12.87 -15.16,-25.94 -22.25,-39.18 -7.09,-13.24 -13.8,-26.55 -20.2,-40.06 -6.41,-13.52 -12.49,-27.2 -18.23,-41.02 -5.74,-13.82 -11.15,-27.78 -16.21,-41.87 -5.07,-14.09 -9.8,-28.3 -14.19,-42.61 -4.41,-14.38 -8.47,-28.86 -12.19,-43.43 -3.7,-14.51 -7.05,-29.11 -10.06,-43.78 -3.01,-14.67 -5.66,-29.41 -7.95,-44.2 -2.29,-14.79 -4.23,-29.63 -5.81,-44.51 -1.58,-14.88 -2.8,-29.8 -3.65,-44.74 -0.85,-14.94 -1.35,-29.89 -1.47,-44.85 -0.12,-15.02 0.12,-30.04 0.75,-45.05 0.63,-15.01 1.61,-29.86 2.98,-44.75 1.37,-14.89 3.11,-29.74 5.25,-44.54 2.14,-14.8 4.65,-29.56 7.55,-44.23 2.69,-13.6 5.71,-27.13 9.05,-40.58 0.47,-1.87 -2.43,-2.67 -2.89,-0.8 v 0 z"
         fill="#ff0000" />
    </g>
    <g
       id="leaf"
       data-name="葉っぱと蕾"
       inkscape:label="leaf"
       transform="matrix(0.07362387,0,0,0.07362387,31.592923,-150.134)">
      <g
         id="_葉っぱ"
         data-name="葉っぱ">
        <path
           d="m 903.87,2110.22 c -2.65,-2.65 -5.51,-4.29 -7.27,-6.24 -1.49,-1.55 -3.03,-3.2 -4.6,-4.72 l -4.8,-4.33 c -3.26,-2.85 -6.73,-6.06 -10.15,-8.68 -0.58,-0.46 -1.08,-0.99 -1.61,-1.49 -4.26,-0.18 -8.73,-0.53 -13.07,-0.16 l -6.7,0.34 c -2.26,0.13 -4.41,0.54 -6.66,0.82 -16.57,2.22 -33.11,7.93 -48.62,15.71 -15.58,7.79 -30.14,17.67 -43.73,28.8 -30.62,25.09 -56.49,55.24 -77.11,87.54 -10.16,15.95 -18.51,32.63 -26.33,48.98 l -11.46,23.91 c -3.79,7.75 -7.61,15.09 -11.39,21.25 l -2.46,6.45 -0.54,1.47 c -0.05,0.17 -0.24,0.6 -0.45,1.08 l -0.59,1.35 -2.34,5.4 c -1.51,3.61 -3.03,7.22 -4.56,10.86 -1.41,3.62 -2.54,7.21 -3.79,10.83 -1.19,3.61 -2.45,7.27 -3.52,10.89 -0.95,3.59 -1.91,7.2 -2.87,10.84 -2.01,7.31 -3.36,14.47 -4.79,21.78 -3.63,19.66 -4.56,39.76 -6.2,58 -1.45,14.96 -3.2,35.43 -3.82,53.9 -0.58,18.55 -0.2,35.64 4.17,45.45 4.9,11 12.53,10.85 21.42,5.2 8.61,-5.66 18.01,-16.7 25.91,-25.49 6,-6.57 11.58,-13.5 17.05,-20.87 l 2.5,-9.74 c 7.53,-28.25 15.79,-55.33 26.55,-80.02 5.27,-12.54 11.49,-24.02 17.98,-34.92 l 5.21,-7.71 5.97,-8.95 c 4.74,-7.27 8.71,-13.91 12.63,-20.49 15.36,-26.07 29.26,-50.51 43.78,-74.04 10.64,-17.41 21.44,-34.35 32.83,-50.02 11.35,-15.67 23.44,-30.02 36.07,-41.06 7.2,-9.84 14.54,-18.61 21.7,-25.77 7.19,-7.19 13.98,-12.67 20.75,-16.8 5.02,-3.2 12.83,-7.07 18.41,-12.35 1.1,-3.11 1.97,-6.24 2.55,-9.35 -1.05,-2.54 -3.39,-5.14 -6.05,-7.67 z m -141.46,164.29 c -1.57,0 -1.57,-2.44 0,-2.44 1.57,0 1.57,2.44 0,2.44 z"
           fill="#99ae6a"
           id="path1" />
        <path
           d="m 626.2,2369.19 3.24,0.37 c 3,4.76 5.95,7.44 11.79,-1.83 1.62,-2.5 3.51,-1.9 5.24,-2.53 1.65,-0.6 3.78,-2.06 5.6,-4.21 1.78,-2.16 3.38,-5 4.14,-8.43 0.98,-4.83 2.12,-8.64 3.65,-11.81 0.84,-1.73 1.44,-2.62 2.3,-3.66 0.84,-1 1.81,-1.88 2.96,-2.76 1.81,-1.48 2.5,-3.71 0.96,-5.21 -3.51,-3.32 0.96,-8.21 2.26,-8.91 5.29,-3.04 5.77,-8.67 6.33,-15.82 0.56,-7.07 3.92,-13.05 7.24,-13.92 3.14,-0.84 4.7,-3.98 7.06,-8.17 4.34,-7.67 7.53,-17.21 11.06,-25.33 4.32,-10.01 9.02,-16.03 13.29,-18.65 6.33,-3.83 4.64,-7.4 4.27,-12.23 4.77,-3.77 10.38,-3.88 12.17,-18.04 1.78,-1.24 2.41,2.08 4.97,-1.3 1.13,-1.57 5.82,-7.28 10.39,-13.11 4.73,-5.77 9.35,-11.66 10.52,-13.74 2.55,-4.81 5.41,-8.78 8.52,-12.63 3.03,-3.89 6.11,-7.74 9.13,-12.37 3.32,-5.23 3.36,2.38 6.19,1.34 -15.52,15.9 -28.82,36.3 -41.38,55.67 -3.67,5.56 -7.96,10.32 -10.45,18.13 -13.52,19.18 -25.92,39.91 -36.81,63.04 -6.22,13.1 -12.14,26.51 -18.31,39 -1.54,3.12 -3.09,6.17 -4.66,9.02 l -5.34,10.16 c -3.84,6.97 -6.91,14.13 -10.12,21.25 -9.14,21.2 -17.05,41.49 -24.74,61.55 -7.14,18.6 -11.27,40.38 -18.12,58.8 -4.08,-1.92 -6.72,-8.91 -11.29,-9.45 -1.46,-0.17 -4.41,1.3 -4.14,-3.74 0.32,-5.85 3.05,-3.05 4.61,-4.91 1.35,-1.63 2.9,-2.25 4.35,-3.46 7.8,-6.55 8.67,-10.76 4.65,-21.88 -0.19,-0.54 -0.41,-1.17 -0.43,-1.87 -0.33,-12.38 -4.74,-12.64 -9.51,-12.12 3.49,-29.42 8.24,-60.54 19.24,-93.58 2.46,-7.33 5.87,-14.29 9.67,-20.44 0.14,0.86 0.66,1.82 0.37,2.56 -7.3,18.92 -1.64,27.42 -3.47,42.2 -0.89,5.56 -0.18,6.98 2.6,3.05 z"
           fill="#7f9958"
           id="path2" />
        <path
           d="m 830.41,2170.52 c -1.24,1.69 -3.75,3.08 -3.53,5.25 0.95,9.22 -3.38,7.56 -7.13,10 -5.79,3.57 -10.29,12.2 -14.87,19.45 -2.93,4.52 -5.15,9.53 -9.09,11.91 -3.26,1.89 -7.84,2.33 -9.03,11.86 -0.03,0.25 -0.32,0.79 -0.48,0.9 -11.21,7.83 -13.47,26.82 -19.81,40.55 0.54,1.19 0.28,2.88 -0.21,4.71 l 5.68,3.58 c 0.98,-3.66 2.08,-7.18 3.89,-10.37 1.88,-3.23 3.77,-6.05 2.1,-9.95 -1.38,-3.21 0.74,-8.55 3.28,-7.27 5.23,2.61 9.21,-5.96 12.72,-12.13 5.65,-9.94 12.43,-15.57 18.45,-23.89 2.58,-3.5 4.92,-3.27 7.55,-4.46 12.33,-15.5 25.64,-29.13 38.97,-38.26 2.03,-2.9 3.89,-6.37 5.82,-9.1 l 2.86,-4.47 2.93,-4.01 c -4.01,-7.13 -8.51,-14.2 -7.38,-24.55 -0.85,-0.7 -2.58,-1.32 -3.46,-0.19 -2.13,2.53 -3.87,5.22 -5.84,6.57 -1.96,1.36 -4.03,1.9 -6.54,1.12 -1.03,-0.33 -1.87,3.34 -2.11,4.97 -1.49,10.39 -8.32,18.41 -14.77,27.81 z"
           fill="#849d5e"
           id="path3" />
        <path
           d="m 694.51,2196.05 c 4,-4.26 7.85,-8.2 12,-12.03 14.12,-13.31 28.39,-33.41 44.64,-49.12 -21.37,18.27 -40.29,39.02 -56.64,61.15 z"
           fill="#a7b775"
           id="path4" />
        <path
           d="m 777.94,2258.39 c 1.67,3.91 -0.22,6.72 -2.1,9.95 -1.81,3.19 -2.91,6.71 -3.89,10.37 -1.43,7.11 -6.06,10.16 -7.85,16.88 l 13.5,-22.36 c 13.57,-22.13 27.37,-43.69 42.33,-62.59 -2.62,1.19 -4.97,0.96 -7.55,4.46 -6.02,8.31 -12.8,13.95 -18.45,23.89 -3.51,6.17 -7.49,14.74 -12.72,12.13 -2.54,-1.28 -4.66,4.07 -3.28,7.27 z"
           fill="#8fa863"
           id="path5" />
        <path
           d="m 906.08,2130.63 c 0.31,-0.83 0.61,-1.65 0.92,-2.47 0.16,-1.64 0.55,-3.29 1.64,-4.94 0.77,-2.65 1.34,-5.29 1.68,-7.92 -2.77,-2.79 -5.38,-5.9 -8.22,-9.08 -2.81,-2.8 -5.83,-5.65 -9.54,-8.32 -0.51,-0.42 -2.28,0.21 -3.46,0.32 -2.86,2.35 -5.57,4.71 -3,6.51 1.78,1.27 2.01,2.66 1.37,4.11 -0.65,1.44 -2.19,2.9 -4.01,4.84 1.26,1.32 2.48,2.62 3.64,3.97 2.94,-0.29 5.37,0.2 6.85,1.31 1.48,1.06 2.06,3.03 1.55,4.98 -0.41,1.75 -1.64,3.45 -3.46,3.9 -0.97,0.25 -1.91,0.24 -2.66,-0.03 -0.74,-0.18 -1.29,-0.73 -1.42,-1.8 -0.35,-2.76 -0.62,-5.56 -0.86,-8.34 -3.66,2.03 -6.78,4.8 -10.74,3.71 -1.56,-0.47 -4.09,2.12 -6.04,3.78 -1.11,1 -2.22,1.7 -3.36,1.48 -1.32,1.02 -2.57,2.36 -3.82,3.62 -1.13,10.35 3.38,17.42 7.38,24.55 0.64,-0.67 1.28,-1.41 1.92,-2.04 l 1.93,-1.72 c 1.28,-1.09 2.54,-2.6 3.74,-3.58 1.84,-1.57 3.78,-3.55 5.74,-4.55 l 2.95,-1.86 c 0.99,-0.54 1.98,-0.87 2.97,-1.36 3.96,-2.03 7.9,-2.94 12.18,-4.62 1.28,-1.59 2.7,-2.79 4.13,-4.43 z"
           fill="#8fa863"
           id="path6" />
        <path
           d="m 653.46,2534.38 c 1.8,-3.13 3.62,-5.98 5.38,-8.53 2.18,-8.94 4.35,-17.78 6.64,-26.47 l 0.19,-0.69 -1.21,1.73 c -7.22,10.33 -15.07,19.29 -23.19,22.93 -5.24,8.79 -10.33,14.08 -13.65,3.58 -1.86,-5.79 -5.21,-3.49 -8.16,-2.44 -2.84,1.02 -5.52,1.39 -8.16,1.06 -1.02,4.44 -1.94,9.02 -3.46,13.1 -1.48,4.14 -2.78,10.14 -5.95,8.97 -3.45,4.04 -0.45,6.06 -1.09,9.26 1.31,0.57 2.79,0.69 3.88,1.8 2.4,2.45 4.53,1.83 7.02,-5.09 2.21,-6.56 5.6,-10.03 8.45,-15.07 2.08,-3.7 3.99,-3.12 5.26,-1.48 1.75,2.28 2.75,5.63 5.86,3.52 1.61,-1.1 1.25,2.41 0.68,4.75 -1.09,4.49 -0.24,7.4 -0.05,10.88 7.41,-4.27 14.94,-9.94 21.59,-21.79 z"
           fill="#849d5e"
           id="path7" />
        <path
           d="m 597.78,2435.42 c 4.77,-0.52 9.17,-0.26 9.51,12.12 0.02,0.7 0.24,1.33 0.43,1.87 4.01,11.12 3.15,15.33 -4.65,21.88 -1.45,1.21 -3,1.83 -4.35,3.46 -1.56,1.86 -4.29,-0.93 -4.61,4.91 -0.28,5.04 2.68,3.57 4.14,3.74 4.57,0.54 7.21,7.53 11.29,9.45 -2.7,15.12 -8.4,28.72 -10.06,44.12 l -2.93,8.69 -3.26,8.45 c -3.24,-9.07 -4.49,-19.44 -2.68,-33.77 1.28,-10.11 1.23,-20.48 1.3,-30.66 0.02,-17.67 2.61,-35.63 5.9,-54.26 z"
           fill="#8fa863"
           id="path8" />
        <path
           d="m 600.79,2556.87 c 1.31,0.57 2.79,0.69 3.88,1.8 2.4,2.45 4.53,1.83 7.02,-5.09 2.21,-6.56 5.6,-10.03 8.45,-15.07 2.08,-3.7 3.99,-3.12 5.26,-1.49 1.75,2.28 2.75,5.63 5.86,3.52 1.61,-1.1 1.25,2.41 0.68,4.75 -1.09,4.49 -0.24,7.4 -0.05,10.88 -4.54,3.16 -9.7,7.45 -14.12,8.73 -2.92,0.83 -5.71,2.22 -8.48,4.42 -2.91,2.14 -5.8,5.08 -8.74,9.08 l -0.24,-1.09 0.15,1.23 c -1.94,3.98 -4.4,7.64 -6.68,11.41 -2.28,3.77 -4.54,7.56 -7.16,11.19 -3.07,4.53 -5.71,5.15 -7.98,5.78 -2.88,0.8 -4.94,-0.09 -0.52,-7.53 1.5,-2.54 3.01,-5.07 4.41,-7.68 1.25,-2.72 2.47,-5.46 3.64,-8.21 2.48,-5.4 4.19,-11.27 5.78,-17.06 4.08,0.01 5.33,8.07 10.54,4.85 l -0.05,0.98 0.32,-0.36 -0.27,-0.62 c 0.9,-6.18 -5.69,-4.47 -1.69,-14.41 z"
           fill="#96ad6b"
           id="path9" />
        <path
           d="m 910.7,2109.67 c -1.68,-1.42 -2.68,-3.24 -3.03,-5.05 -0.37,-1.92 -0.4,-3.8 -1.04,-5.49 l -3.49,-3.7 c -0.6,-0.3 -1.28,-0.65 -2.07,-0.79 -0.78,-0.17 -0.56,-1.21 -0.79,-1.88 l -1.37,-1.15 c -0.68,-0.35 -1.55,-0.59 -2.69,-0.67 -1.18,2.5 -3.93,3.77 -7.93,5.3 l 0.81,1.98 c 1.19,-0.12 2.95,-0.74 3.46,-0.32 3.71,2.68 6.73,5.52 9.54,8.32 2.84,3.18 5.45,6.29 8.22,9.08 0.25,-1.89 0.4,-3.77 0.38,-5.63 z"
           fill="#99ae6a"
           id="path10" />
        <path
           d="m 849.01,2085.76 c -2.11,0.32 -4.2,0.63 -6.3,0.95 0.67,2.92 2.48,5.22 4.16,7.59 3.74,-3.19 7.38,-5.05 11.17,-6.13 3.85,-0.97 7.44,-2.08 11.52,-3.68 -3.45,-0.28 -6.71,0.17 -10.2,0.25 -1.72,0.1 -3.49,0.15 -5.22,0.31 l -5.14,0.7 z"
           fill="#8fa863"
           id="path11" />
        <path
           d="m 600.79,2556.87 c -4,9.94 2.59,8.23 1.69,14.41 -5.21,3.23 -6.47,-4.83 -10.54,-4.85 0.65,-4.03 1,-8.2 1.34,-12.33 l 3.26,-8.45 2.93,-8.69 c 2.36,-3.41 3.28,-10.95 7.05,-10.71 0.04,7.64 -4.34,13.97 -4.64,21.35 -3.45,4.04 -0.45,6.06 -1.09,9.26 z"
           fill="#799454"
           id="path12" />
        <path
           d="m 869.78,2084.51 1.69,2.69 c 3.23,-1.07 5.58,-1.17 7.54,-0.89 1.99,0.38 3.64,1.23 5.47,1.78 1.24,0.39 2.24,1.03 3.54,1.29 1.31,0.28 2.88,0.05 5.45,-0.69 -0.21,-0.59 -0.49,-1.15 -0.79,-1.7 -7.31,-1.41 -14.97,-2.33 -22.9,-2.48 z"
           fill="#99ae6a"
           id="path13" />
        <path
           d="m 910.06,2103.08 c -0.97,-1.2 -2.04,-2.42 -3.19,-3.7 l -0.23,-0.26 c 0.64,1.69 0.67,3.57 1.04,5.49 0.35,1.82 1.35,3.63 3.03,5.05 -0.02,-2.21 -0.22,-4.41 -0.65,-6.59 z"
           fill="#b1c299"
           id="path14" />
        <path
           d="m 871.47,2087.2 c 3.23,-1.07 5.58,-1.17 7.54,-0.89 1.99,0.38 3.64,1.23 5.47,1.78 1.24,0.39 2.24,1.03 3.54,1.29 1.31,0.28 2.88,0.05 5.45,-0.69 l 2.76,2.25 c -1.18,2.49 -3.93,3.77 -7.93,5.3 -2.53,-1.68 -5.23,-3.42 -8.05,-4.98 -2.78,-1.39 -5.71,-2.74 -8.78,-4.06 z"
           fill="#8fa863"
           id="path15" />
        <path
           d="m 886.1,2104.73 c -2.56,-1.8 0.14,-4.16 3,-6.51 l -0.81,-1.98 c -2.53,-1.68 -5.23,-3.42 -8.05,-4.98 -2.78,-1.39 -5.71,-2.74 -8.78,-4.06 l -1.69,-2.69 h -0.23 c -4.08,1.59 -7.67,2.7 -11.52,3.67 -3.79,1.08 -7.43,2.93 -11.17,6.13 -3.93,3.97 -6.73,3.99 -9.91,4.71 -2.57,0.54 -4.55,0.12 -7.77,3.1 -3.45,3.18 -5.71,4.74 -7.22,5.02 -1.54,0.23 -2.41,-0.93 -2.77,-3.1 -0.19,-1.14 -0.98,-1.78 -2.79,-0.35 -2.35,1.85 -3.39,4.29 -2.65,5.12 2.51,2.94 1.29,9.82 5.17,11.48 3.89,-2.23 7.96,-4.16 11.84,-6.18 4.59,-3.44 8.89,-5.83 11.96,-4.71 l 2.38,-0.69 c 1.38,-1.27 2.76,-2.19 4.08,-2.26 l 2.34,-0.67 1.08,-0.21 -1.19,0.5 -2.39,0.8 c -1.39,1.27 -2.74,2.16 -4.06,2.21 l -2.42,0.79 -7.63,7.95 1.06,3.79 c 3.78,-0.34 8.08,-2.88 12.35,-5.44 4.21,-2.19 7.86,-3.95 10.39,-2.29 0.47,0.3 1.16,0.93 1.52,0.71 2.66,-1.62 4.85,-2.27 6.75,-2.4 1.94,0.02 3.61,0.6 5.21,1.14 1.61,0.56 3.17,1.12 4.93,1.22 1.78,0.16 3.79,0.17 6.31,-0.87 1.82,-1.93 3.36,-3.4 4.01,-4.84 0.64,-1.46 0.41,-2.84 -1.37,-4.11 z"
           fill="#849d5e"
           id="path16" />
        <path
           d="m 858.94,2103.66 c -0.11,0.18 -0.38,0.38 -0.57,0.57 l -0.28,-0.51 0.71,-0.37 c 0.06,0.1 0.21,0.2 0.14,0.31 z"
           fill="#849d5e"
           id="path17" />
        <path
           d="m 717.59,2226.1 c 0.37,4.83 2.06,8.4 -4.27,12.23 -4.26,2.63 -8.96,8.64 -13.29,18.65 -3.53,8.12 -6.72,17.66 -11.06,25.33 -2.36,4.18 -3.93,7.33 -7.06,8.17 -3.33,0.87 -6.68,6.85 -7.24,13.92 -0.56,7.15 -1.04,12.77 -6.33,15.82 -1.3,0.7 -5.76,5.59 -2.26,8.91 1.54,1.5 0.84,3.72 -0.96,5.21 -1.15,0.88 -2.13,1.76 -2.96,2.76 -0.86,1.04 -1.46,1.93 -2.3,3.66 -1.53,3.16 -2.67,6.98 -3.65,11.81 -0.76,3.43 -2.36,6.26 -4.14,8.43 -1.83,2.15 -3.95,3.61 -5.6,4.21 -1.72,0.63 -3.62,0.03 -5.24,2.53 -5.84,9.27 -8.79,6.59 -11.79,1.83 2.35,-4.65 4.74,-9.39 7.15,-14.16 2.27,-4.81 5.02,-9.64 7.78,-14.35 1.4,-2.33 2.78,-4.65 4.16,-6.94 0.78,-1.28 1.25,-1.96 1.77,-2.69 l 1.6,-2.2 c 1.15,-1.54 2.29,-3.07 3.42,-4.58 1.18,-1.48 2.41,-2.98 3.69,-4.48 0.75,-0.86 1.76,-2.04 2.07,-3.19 4.07,-15.42 12.36,-24.43 19.04,-36.27 6.09,-10.86 10.43,-24.84 17.84,-34.26 6.42,-8.15 12.82,-16.76 19.62,-20.34 z"
           fill="#8fa863"
           id="path18" />
        <path
           d="m 818.93,2120.29 c 3.89,-2.23 7.96,-4.16 11.84,-6.17 l -0.27,1.08 c -2.42,2.41 -3.96,4.58 -2.51,5.95 l -2.84,3.51 c -1.19,-0.74 -2.69,0.11 -4.48,2.51 -1.74,-1.39 -3.52,-2.83 -7.55,3.04 -1.29,2.07 -2.78,3.54 -4.44,4.45 -15.58,8.58 -30.01,25.84 -42.73,42.88 -13.43,17.82 -25.66,36.77 -37.16,56.01 -0.91,-0.36 -1.6,-1.09 -1.16,-3.49 2.49,-7.8 6.78,-12.57 10.45,-18.13 12.56,-19.37 25.86,-39.77 41.38,-55.67 12.15,-13.93 25.36,-23.08 39.46,-35.96 z"
           fill="#a7b775"
           id="path19" />
        <path
           d="m 626.2,2369.19 c -2.78,3.94 -3.49,2.51 -2.6,-3.05 1.17,0.25 2.56,-0.11 2.6,3.05 z"
           fill="#8fa863"
           id="path20" />
        <path
           d="m 727.64,2230.04 c -0.44,2.4 0.25,3.13 1.16,3.49 -11.29,20.95 -21.98,41.99 -32.03,63.54 -5.99,12.75 -11.97,25.48 -18.18,37.67 -5.79,11.35 -14.02,25.11 -19.21,39.14 -8.76,18.74 -16.12,37.85 -20.66,58.75 -0.24,0.53 -0.4,1.13 -0.47,1.79 -2.64,0.94 -3.5,5.49 -4.5,9.75 -2.48,7.77 -5.13,15.35 -7.24,23.31 -5.12,19.45 -11.63,37.54 -15.21,58.05 -1.02,4.44 -1.94,9.02 -3.46,13.1 -1.48,4.14 -2.78,10.14 -5.95,8.97 0.29,-7.38 4.67,-13.71 4.64,-21.35 -3.77,-0.24 -4.69,7.3 -7.05,10.71 1.67,-15.39 7.36,-29 10.06,-44.11 6.85,-18.42 10.98,-40.2 18.12,-58.8 7.7,-20.06 15.6,-40.35 24.74,-61.55 3.21,-7.11 6.28,-14.27 10.12,-21.25 l 5.34,-10.16 c 1.57,-2.85 3.12,-5.9 4.66,-9.02 6.17,-12.48 12.09,-25.9 18.31,-39 10.89,-23.13 23.29,-43.86 36.81,-63.04 z"
           fill="#dbdea7"
           id="path21" />
        <path
           d="m 664.46,2500.41 1.21,-1.73 c 7.47,-28 15.69,-54.83 26.36,-79.33 1.69,-3.9 3.39,-7.82 5.28,-11.48 0.81,-3.29 2.1,-5.92 4.02,-8.13 2.93,-5.59 6.1,-10.88 9.23,-16.15 -0.23,-2.35 0.46,-4.38 2.26,-6.43 0.67,-0.76 1.63,-2.56 1.63,-3.37 0.02,-1.54 0.02,-2.75 0.31,-4.18 0.39,-1.58 0.84,-3.01 1.33,-4.3 1.04,-2.63 2.14,-4.64 3.34,-6.34 2.48,-3.47 5.39,-5.77 7.99,-8.53 0.43,-0.45 1.21,-0.92 1.24,-1.12 1.9,-13.39 9.5,-19.63 12.87,-30.22 2.04,-6.47 3.54,-12.46 7.88,-14.75 4.03,-2.15 3.89,-7.19 4.37,-12.74 1.27,-14.89 6.47,-25.66 12.69,-21.19 6.34,-13.73 8.6,-32.72 19.81,-40.55 0.16,-0.11 0.45,-0.65 0.48,-0.9 1.19,-9.53 5.78,-9.96 9.03,-11.86 3.93,-2.38 6.15,-7.38 9.09,-11.91 4.58,-7.25 9.08,-15.88 14.87,-19.45 3.75,-2.44 8.08,-0.78 7.13,-10 -0.22,-2.17 2.28,-3.56 3.53,-5.25 6.45,-9.4 13.28,-17.42 14.77,-27.81 0.25,-1.63 1.08,-5.3 2.11,-4.97 2.5,0.78 4.57,0.25 6.54,-1.12 1.97,-1.34 3.71,-4.04 5.84,-6.57 0.88,-1.13 2.61,-0.5 3.46,0.19 1.25,-1.26 2.5,-2.6 3.82,-3.62 1.08,-3.04 2.26,-2.26 3.36,-1.48 1.95,-1.66 4.48,-4.25 6.04,-3.78 3.95,1.1 7.08,-1.68 10.74,-3.71 v 0 c -1.16,-1.36 -2.37,-2.67 -3.64,-3.98 -2.52,1.05 -4.53,1.03 -6.31,0.87 -1.76,-0.1 -3.32,-0.67 -4.93,-1.22 -1.6,-0.54 -3.27,-1.12 -5.21,-1.14 -1.9,0.12 -4.09,0.77 -6.75,2.4 -0.37,0.22 -1.05,-0.41 -1.52,-0.71 -2.53,-1.66 -6.18,0.11 -10.39,2.29 -4.27,2.56 -8.57,5.1 -12.35,5.44 -2.44,3 -4.91,6.08 -7.22,8.08 -2.25,2.08 -4.49,2.92 -6.7,1.05 l -2.77,-1.69 c -2.91,2.76 -5.57,6.73 -8.22,8.66 -16.84,12.27 -29.59,34.44 -42.93,51.58 -0.42,0.54 -0.93,1.72 -1.19,1.78 -5.35,1.5 -9.73,9.61 -14.32,16.21 -3.95,5.47 -7.69,8.46 -8.35,17.71 -0.32,5.81 -4.69,7.37 -6.95,9.11 -5.43,4.23 -7.29,8.31 -5.6,15.83 1.36,5.98 0.62,12.14 -5.18,15.01 -2.57,1.27 -3.69,5 -4.72,8.92 l -5.12,19.42 c -1.14,4.43 -2.39,8.55 -5.18,9.3 -3.7,1 -6.22,8.16 -7.71,12.47 -6.09,17.58 -13.24,29.88 -24.24,38.06 -2.39,1.9 -5.21,3.7 -8.11,6.27 -1.43,1.28 -2.94,2.74 -4.32,4.52 -1.32,1.8 -2.59,3.9 -3.76,6.38 -1.2,2.55 -2.64,4.32 -4.02,3.63 -8.76,18.74 -16.12,37.85 -20.66,58.75 2.29,2.45 4.87,4.19 6.81,7.47 4.63,7.89 2.35,21.38 1.47,33.09 -0.58,7.73 -2.56,15.42 -6.62,21.43 -6.25,9.4 -6.63,19.4 -1.22,26.2 l 2.11,2.51 c 8.12,-3.64 15.97,-12.6 23.19,-22.93 z"
           fill="#738c4d"
           id="path22" />
        <path
           d="m 697.31,2407.87 4.02,-8.13 c -1.92,2.21 -3.21,4.84 -4.02,8.13 z"
           fill="#678446"
           id="path23" />
        <path
           d="m 766.48,2270.43 c -6.22,-4.47 -11.42,6.3 -12.69,21.19 -0.48,5.55 -0.34,10.6 -4.37,12.74 -4.35,2.29 -5.84,8.28 -7.88,14.75 -3.37,10.58 -10.97,16.83 -12.87,30.22 -0.03,0.2 -0.81,0.67 -1.24,1.12 -2.61,2.76 -5.51,5.06 -7.99,8.53 -1.19,1.7 -2.3,3.71 -3.34,6.34 -0.5,1.3 -0.94,2.72 -1.33,4.3 -0.29,1.43 -0.29,2.64 -0.31,4.18 0,0.81 -0.96,2.61 -1.63,3.37 -1.8,2.05 -2.49,4.08 -2.26,6.43 l 5.14,-7.59 2.55,-3.77 3.51,-5.34 c 4.57,-7.08 8.53,-13.67 12.36,-20.13 L 756,2309.35 c 0.85,-1.74 1.69,-3.46 2.56,-5.23 l 0.54,-2.22 c -0.7,-3.67 -2,-6.89 -1.95,-11.1 0.16,-10.65 4.77,-13.31 9.15,-15.68 0.49,-1.83 0.75,-3.51 0.21,-4.71 z m -4.07,4.08 c -1.57,0 -1.57,-2.44 0,-2.44 1.57,0 1.57,2.44 0,2.44 z"
           fill="#678446"
           id="path24" />
        <path
           d="m 759.08,2301.91 4.74,-5.84 0.29,-0.48 c 1.79,-6.72 6.42,-9.77 7.85,-16.88 l -5.68,-3.58 c -4.38,2.37 -8.98,5.03 -9.15,15.68 -0.06,4.21 1.25,7.43 1.95,11.1 z"
           fill="#799454"
           id="path25" />
        <polygon
           points="758.99,2304.24 763.82,2296.07 759.08,2301.91 758.54,2304.13 "
           fill="#849d5e"
           id="polygon25" />
        <path
           d="m 887.1,2117.64 c 2.94,-0.29 5.37,0.2 6.85,1.31 1.48,1.06 2.06,3.03 1.55,4.98 -0.41,1.75 -1.64,3.45 -3.46,3.9 -0.97,0.25 -1.91,0.24 -2.66,-0.03 -0.74,-0.18 -1.29,-0.73 -1.42,-1.8 -0.35,-2.76 -0.62,-5.56 -0.86,-8.34 v 0 z"
           fill="#738c4d"
           id="path26" />
        <path
           d="m 866.95,2126.63 c 1.08,-3.04 2.26,-2.26 3.36,-1.48 -1.11,1 -2.22,1.7 -3.36,1.48 z"
           fill="#849d5e"
           id="path27" />
        <path
           d="m 638.72,2432.64 c 2.29,2.45 4.87,4.19 6.81,7.47 4.63,7.89 2.35,21.38 1.47,33.09 -0.58,7.73 -2.56,15.42 -6.62,21.43 -6.25,9.4 -6.63,19.4 -1.22,26.2 l 2.11,2.51 c -5.24,8.79 -10.33,14.08 -13.65,3.58 -1.86,-5.79 -5.21,-3.49 -8.16,-2.44 -2.84,1.02 -5.52,1.39 -8.16,1.06 3.58,-20.51 10.1,-38.6 15.21,-58.05 2.11,-7.96 4.76,-15.54 7.24,-23.31 4.27,2.3 4.91,-2.63 4.5,-9.75 0.07,-0.66 0.22,-1.26 0.47,-1.79 z"
           fill="#7f9958"
           id="path28" />
        <polygon
           points="602.43,2572.26 602.48,2571.28 602.75,2571.9 "
           fill="#799454"
           id="polygon28" />
        <polygon
           points="600.53,2578.4 600.45,2578.54 600.29,2577.31 "
           fill="#799454"
           id="polygon29" />
        <path
           d="m 835.99,2121.61 c -2.44,3 -4.91,6.08 -7.22,8.08 -2.25,2.08 -4.49,2.92 -6.7,1.05 1.4,-2.02 3.17,-4.05 3.08,-6.09 l 2.84,-3.51 c 2.13,-0.25 4.41,-1.38 6.94,-3.31 v 0 c 0,0 1.06,3.79 1.06,3.79 z"
           fill="#799454"
           id="path29" />
        <path
           d="m 842.55,2109.88 -7.63,7.94 v 0 c 0,0 -4.43,-2.63 -4.43,-2.63 l 0.27,-1.08 c 4.59,-3.44 8.89,-5.83 11.96,-4.71 l -0.18,0.48 z"
           fill="#a7b775"
           id="path30" />
        <path
           d="m 858.8,2103.35 c 0.06,0.1 0.21,0.2 0.14,0.31 -0.11,0.18 -0.38,0.38 -0.57,0.57 l -0.28,-0.51 z"
           fill="#a7b775"
           id="path31" />
        <path
           d="m 845.12,2108.71 c 1.38,-1.27 2.76,-2.18 4.08,-2.25 l -0.16,0.42 c -1.38,1.26 -2.74,2.16 -4.06,2.21 z"
           fill="#a7b775"
           id="path32" />
        <polygon
           points="851.43,2106.07 851.54,2105.78 852.62,2105.58 "
           fill="#a7b775"
           id="polygon32" />
        <polygon
           points="842.73,2109.4 845.12,2108.72 844.98,2109.09 842.55,2109.88 "
           fill="#a7b775"
           id="polygon33" />
        <polygon
           points="849.2,2106.46 851.54,2105.79 851.43,2106.07 849.04,2106.88 "
           fill="#a7b775"
           id="polygon34" />
        <path
           d="m 819.3,2129.05 c -2.91,2.76 -5.57,6.73 -8.22,8.66 -16.84,12.28 -29.59,34.44 -42.93,51.58 -0.42,0.54 -0.93,1.72 -1.19,1.78 -5.35,1.5 -9.73,9.61 -14.32,16.21 -3.95,5.47 -7.69,8.46 -8.35,17.71 -0.32,5.81 -4.69,7.37 -6.95,9.11 -5.43,4.23 -7.29,8.31 -5.6,15.83 1.36,5.98 0.62,12.14 -5.18,15.01 -2.57,1.27 -3.69,5 -4.72,8.92 l -5.12,19.42 c -1.14,4.43 -2.39,8.55 -5.18,9.3 -3.7,1 -6.22,8.16 -7.71,12.47 -6.09,17.58 -13.24,29.88 -24.24,38.06 -2.39,1.9 -5.21,3.7 -8.11,6.27 -1.43,1.28 -2.94,2.74 -4.32,4.52 -1.32,1.8 -2.59,3.9 -3.76,6.38 -1.2,2.55 -2.64,4.32 -4.02,3.63 5.19,-14.03 13.42,-27.79 19.2,-39.14 6.21,-12.19 12.19,-24.92 18.18,-37.67 10.05,-21.55 20.74,-42.59 32.03,-63.54 11.5,-19.24 23.73,-38.19 37.16,-56.01 12.72,-17.04 27.15,-34.29 42.73,-42.88 1.66,-0.91 3.15,-2.39 4.44,-4.45 4.03,-5.87 5.81,-4.43 7.55,-3.04 l -1.37,1.89 z"
           fill="#799454"
           id="path34" />
        <path
           d="m 830.5,2115.19 4.43,2.63 c -2.53,1.94 -4.81,3.07 -6.94,3.31 -1.45,-1.37 0.09,-3.53 2.51,-5.95 z"
           fill="#849d5e"
           id="path35" />
        <path
           d="m 819.3,2129.05 1.37,-1.89 c 1.79,-2.4 3.29,-3.25 4.48,-2.51 0.09,2.04 -1.68,4.07 -3.08,6.09 z"
           fill="#849d5e"
           id="path36" />
        <path
           d="m 638.25,2434.43 c 0.41,7.12 -0.23,12.05 -4.5,9.75 1,-4.26 1.87,-8.81 4.5,-9.75 z"
           fill="#738c4d"
           id="path37" />
      </g>
    </g>
  </g>
</svg>
